<?xml version="1.0" encoding="UTF-8" standalone="no"?>
<!-- Created with Inkscape (http://www.inkscape.org/) -->

<svg
   xmlns:dc="http://purl.org/dc/elements/1.1/"
   xmlns:cc="http://creativecommons.org/ns#"
   xmlns:rdf="http://www.w3.org/1999/02/22-rdf-syntax-ns#"
   xmlns:svg="http://www.w3.org/2000/svg"
   xmlns="http://www.w3.org/2000/svg"
   xmlns:sodipodi="http://sodipodi.sourceforge.net/DTD/sodipodi-0.dtd"
   xmlns:inkscape="http://www.inkscape.org/namespaces/inkscape"
   id="svg3421"
   version="1.1"
   inkscape:version="0.91 r13725"
   width="1078.75"
   height="112.5"
   viewBox="0 0 1078.75 112.5"
   sodipodi:docname="BelgranoSur.svg">
  <metadata
     id="metadata3427">
    <rdf:RDF>
      <cc:Work
         rdf:about="">
        <dc:format>image/svg+xml</dc:format>
        <dc:type
           rdf:resource="http://purl.org/dc/dcmitype/StillImage" />
        <dc:title></dc:title>
      </cc:Work>
    </rdf:RDF>
  </metadata>
  <defs
     id="defs3425" />
  <sodipodi:namedview
     pagecolor="#ffffff"
     bordercolor="#666666"
     borderopacity="1"
     objecttolerance="10"
     gridtolerance="10"
     guidetolerance="10"
     inkscape:pageopacity="0"
     inkscape:pageshadow="2"
     inkscape:window-width="1366"
     inkscape:window-height="706"
     id="namedview3423"
     showgrid="false"
     inkscape:zoom="1.1179606"
     inkscape:cx="542.1856"
     inkscape:cy="56.25"
     inkscape:window-x="-8"
     inkscape:window-y="-8"
     inkscape:window-maximized="1"
     inkscape:current-layer="layer2" />
  <g
     inkscape:groupmode="layer"
     id="layer2"
     inkscape:label="Vector">
    <g
       style="font-style:normal;font-weight:normal;font-size:102.5px;line-height:125%;font-family:sans-serif;letter-spacing:0px;word-spacing:0px;fill:#000000;fill-opacity:1;stroke:none;stroke-width:1px;stroke-linecap:butt;stroke-linejoin:miter;stroke-opacity:1"
       id="text3431">
      <path
         sodipodi:type="inkscape:offset"
         inkscape:radius="0"
         inkscape:original="M 135.60352 18.501953 L 125.96875 33.365234 L 132.11914 33.365234 L 143.80469 22.294922 L 135.60352 18.501953 z M 491.97266 19.527344 L 491.97266 94.351562 L 507.55273 94.351562 L 507.55273 19.527344 L 491.97266 19.527344 z M 870.8125 21.576172 C 856.155 21.576172 845.69922 30.187578 845.69922 43.205078 L 845.69922 43.410156 C 845.69922 57.657656 855.02797 61.65375 869.48047 65.34375 C 881.47297 68.41875 883.93164 70.469297 883.93164 74.466797 L 883.93164 74.671875 C 883.93164 78.874375 880.03758 81.4375 873.58008 81.4375 C 865.38008 81.4375 858.6157 78.054609 852.1582 72.724609 L 842.83008 83.896484 C 851.44008 91.583984 862.40844 95.376953 873.27344 95.376953 C 888.75094 95.376953 899.61523 87.382266 899.61523 73.134766 L 899.61523 72.929688 C 899.61523 60.424687 891.41437 55.196797 876.85938 51.404297 C 864.45687 48.226797 861.38281 46.689609 861.38281 41.974609 L 861.38281 41.769531 C 861.38281 38.284531 864.55992 35.517578 870.60742 35.517578 C 876.65492 35.517578 882.90672 38.182344 889.26172 42.589844 L 897.46289 30.699219 C 890.18539 24.856719 881.2675 21.576172 870.8125 21.576172 z M 63.601562 22.601562 L 63.601562 94.351562 L 112.08398 94.351562 L 112.08398 86.869141 L 71.699219 86.869141 L 71.699219 22.601562 L 63.601562 22.601562 z M 358.56055 22.601562 L 358.56055 94.351562 L 392.69336 94.351562 C 408.88836 94.351562 419.54883 87.791875 419.54883 74.671875 L 419.54883 74.466797 C 419.54883 64.831797 414.42359 60.013437 406.12109 56.835938 C 411.24609 53.965938 415.55078 49.456875 415.55078 41.359375 L 415.55078 41.154297 C 415.55078 36.234297 413.91086 32.237031 410.63086 28.957031 C 406.53086 24.857031 400.07305 22.601562 391.87305 22.601562 L 358.56055 22.601562 z M 373.93555 36.439453 L 389.51562 36.439453 C 396.17813 36.439453 399.86914 39.105312 399.86914 43.820312 L 399.86914 44.023438 C 399.86914 49.353437 395.46219 51.609375 388.49219 51.609375 L 373.93555 51.609375 L 373.93555 36.439453 z M 454.19141 38.386719 C 438.20141 38.386719 427.0293 51.301875 427.0293 66.984375 L 427.0293 67.189453 C 427.0293 83.999453 439.22602 95.582031 455.72852 95.582031 C 465.67102 95.582031 473.05078 91.687031 478.17578 85.332031 L 469.25781 77.439453 C 464.95281 81.436953 461.16109 83.076172 455.93359 83.076172 C 448.96359 83.076172 444.04336 79.386953 442.50586 72.314453 L 480.73828 72.314453 C 480.84078 70.879453 480.94336 69.444844 480.94336 68.214844 C 480.94336 52.634844 472.53891 38.386719 454.19141 38.386719 z M 542.91992 38.386719 C 530.31242 38.386719 518.52539 47.611719 518.52539 64.011719 L 518.52539 64.216797 C 518.52539 80.514297 530.10742 89.841797 542.91992 89.841797 C 551.22242 89.841797 556.24492 86.458828 560.85742 80.923828 L 560.85742 83.589844 C 560.85742 93.429844 555.83578 98.554688 545.17578 98.554688 C 537.89828 98.554688 532.26055 96.70875 526.62305 93.53125 L 521.29297 105.2168 C 528.26297 108.9068 536.66844 110.95703 545.58594 110.95703 C 556.24594 110.95703 564.13867 108.70117 569.26367 103.57617 C 573.87617 98.96367 576.23242 91.789219 576.23242 81.949219 L 576.23242 39.412109 L 560.65234 39.412109 L 560.65234 46.585938 C 556.44984 41.973438 551.42742 38.386719 542.91992 38.386719 z M 622.06055 38.386719 C 612.83555 37.976719 607.7107 42.897422 604.5332 50.482422 L 604.5332 39.412109 L 588.95312 39.412109 L 588.95312 94.351562 L 604.5332 94.351562 L 604.5332 74.056641 C 604.5332 60.936641 610.88773 54.683594 621.24023 54.683594 L 622.06055 54.683594 L 622.06055 38.386719 z M 718.92383 38.386719 C 711.03133 38.386719 706.41953 42.588672 702.83203 47.201172 L 702.83203 39.412109 L 687.25195 39.412109 L 687.25195 94.351562 L 702.83203 94.351562 L 702.83203 63.705078 C 702.83203 56.325078 706.62336 52.53125 712.56836 52.53125 C 718.51336 52.53125 721.99805 56.325078 721.99805 63.705078 L 721.99805 94.351562 L 737.57812 94.351562 L 737.57812 58.785156 C 737.57812 46.177656 730.71133 38.386719 718.92383 38.386719 z M 776.97656 38.386719 C 759.85906 38.386719 747.14844 51.199375 747.14844 66.984375 L 747.14844 67.189453 C 747.14844 82.974453 759.75648 95.582031 776.77148 95.582031 C 793.88898 95.582031 806.59766 82.769375 806.59766 66.984375 L 806.59766 66.779297 C 806.59766 50.994297 793.99156 38.386719 776.97656 38.386719 z M 1006.1445 38.386719 C 996.9195 37.976719 991.79469 42.897422 988.61719 50.482422 L 988.61719 39.412109 L 973.03711 39.412109 L 973.03711 94.351562 L 988.61719 94.351562 L 988.61719 74.056641 C 988.61719 60.936641 994.97169 54.683594 1005.3242 54.683594 L 1006.1445 54.683594 L 1006.1445 38.386719 z M 650.64648 38.796875 C 641.31898 38.796875 635.37367 40.540078 629.32617 43.205078 L 633.22266 55.09375 C 638.24516 53.24875 642.44758 52.121094 648.39258 52.121094 C 656.18258 52.121094 660.17969 55.708516 660.17969 62.166016 L 660.17969 63.089844 C 656.28469 61.757344 652.28695 60.833984 646.75195 60.833984 C 633.73445 60.833984 624.61133 66.368828 624.61133 78.361328 L 624.61133 78.566406 C 624.61133 89.431406 633.12016 95.376953 643.47266 95.376953 C 651.05766 95.376953 656.28367 92.60875 660.07617 88.40625 L 660.07617 94.351562 L 675.14453 94.351562 L 675.14453 62.474609 C 675.14453 55.094609 673.29922 49.047266 669.19922 44.947266 C 665.30422 41.052266 659.15398 38.796875 650.64648 38.796875 z M 910.06445 39.412109 L 910.06445 74.978516 C 910.06445 87.586016 916.93125 95.376953 928.71875 95.376953 C 936.61125 95.376953 941.225 91.175 944.8125 86.5625 L 944.8125 94.351562 L 960.39258 94.351562 L 960.39258 39.412109 L 944.8125 39.412109 L 944.8125 70.058594 C 944.8125 77.438594 941.01922 81.232422 935.07422 81.232422 C 929.12922 81.232422 925.64453 77.438594 925.64453 70.058594 L 925.64453 39.412109 L 910.06445 39.412109 z M 176.19336 40.232422 C 167.07086 40.232422 161.53578 44.843984 158.05078 50.583984 L 158.05078 41.359375 L 150.1582 41.359375 L 150.1582 94.351562 L 158.05078 94.351562 L 158.05078 64.011719 C 158.05078 54.069219 164.815 47.40625 173.9375 47.40625 C 183.265 47.40625 188.5957 53.556484 188.5957 63.396484 L 188.5957 94.351562 L 196.48828 94.351562 L 196.48828 61.449219 C 196.48828 48.841719 189.00586 40.232422 176.19336 40.232422 z M 234.05859 40.232422 C 219.40109 40.232422 208.63867 52.532187 208.63867 67.804688 L 208.63867 68.009766 C 208.63867 84.409766 220.52898 95.582031 235.08398 95.582031 C 245.12898 95.582031 251.58602 91.583672 256.91602 85.638672 L 251.99609 81.232422 C 247.69109 85.742422 242.56656 88.714844 235.28906 88.714844 C 225.85906 88.714844 217.76227 82.257344 216.63477 70.777344 L 258.66016 70.777344 C 258.76266 69.854844 258.76172 69.239844 258.76172 68.214844 C 258.76172 52.737344 249.74109 40.232422 234.05859 40.232422 z M 291.26562 40.642578 C 283.57812 40.642578 277.83859 42.383828 271.99609 45.048828 L 274.35352 51.507812 C 279.27352 49.252812 284.19281 47.611328 290.44531 47.611328 C 300.38781 47.611328 306.23047 52.531953 306.23047 62.064453 L 306.23047 63.910156 C 301.51547 62.577656 296.69859 61.654297 289.93359 61.654297 C 276.50609 61.654297 267.28125 67.598984 267.28125 78.771484 L 267.28125 78.976562 C 267.28125 89.841562 277.22445 95.478516 287.06445 95.478516 C 296.39195 95.478516 302.54047 91.174922 306.23047 86.357422 L 306.23047 94.351562 L 313.81641 94.351562 L 313.81641 61.960938 C 313.81641 55.195937 311.97031 50.071875 308.38281 46.484375 C 304.48781 42.589375 298.74813 40.642578 291.26562 40.642578 z M 125.14844 41.359375 L 125.14844 94.351562 L 133.04102 94.351562 L 133.04102 41.359375 L 125.14844 41.359375 z M 233.85352 46.894531 C 244.41102 46.894531 249.94758 55.298594 250.76758 64.933594 L 216.63477 64.933594 C 217.65977 54.581094 224.62852 46.894531 233.85352 46.894531 z M 454.19141 50.892578 C 460.75141 50.892578 464.85094 55.606172 465.77344 62.576172 L 442.30078 62.576172 C 443.53078 55.503672 447.73391 50.892578 454.19141 50.892578 z M 547.42969 51.302734 C 555.01469 51.302734 560.85742 56.529219 560.85742 64.011719 L 560.85742 64.216797 C 560.85742 71.699297 555.01469 76.927734 547.42969 76.927734 C 539.84469 76.927734 534.10547 71.801797 534.10547 64.216797 L 534.10547 64.011719 C 534.10547 56.529219 539.84469 51.302734 547.42969 51.302734 z M 776.77148 51.814453 C 785.38148 51.814453 791.22266 58.886875 791.22266 66.984375 L 791.22266 67.189453 C 791.22266 75.286953 785.89406 82.154297 776.97656 82.154297 C 768.36656 82.154297 762.52344 75.081875 762.52344 66.984375 L 762.52344 66.779297 C 762.52344 58.681797 767.85398 51.814453 776.77148 51.814453 z M 373.93555 64.728516 L 392.18164 64.728516 C 400.27914 64.728516 403.86719 67.702031 403.86719 72.519531 L 403.86719 72.724609 C 403.86719 78.054609 399.66336 80.513672 392.69336 80.513672 L 373.93555 80.513672 L 373.93555 64.728516 z M 290.75391 67.496094 C 297.21141 67.496094 302.43898 68.624453 306.33398 69.751953 L 306.33398 74.876953 C 306.33398 83.281953 298.33906 89.226562 288.60156 89.226562 C 281.42656 89.226562 275.27539 85.332422 275.27539 78.669922 L 275.27539 78.464844 C 275.27539 71.802344 280.81141 67.496094 290.75391 67.496094 z M 650.44141 70.162109 C 654.23391 70.162109 657.71977 70.980937 660.38477 72.210938 L 660.38477 74.978516 C 660.38477 80.616016 655.465 84.615234 648.1875 84.615234 C 643.165 84.615234 639.67969 82.153672 639.67969 77.951172 L 639.67969 77.746094 C 639.67969 72.826094 643.77891 70.162109 650.44141 70.162109 z "
         style="font-style:normal;font-variant:normal;font-weight:normal;font-stretch:normal;font-family:Gotham;-inkscape-font-specification:Gotham;letter-spacing:-1.29999995px;fill:#ffffff"
         id="path3573"
         d="m 135.60352,18.501953 -9.63477,14.863281 6.15039,0 11.68555,-11.070312 -8.20117,-3.792969 z m 356.36914,1.025391 0,74.824218 15.58007,0 0,-74.824218 -15.58007,0 z m 378.83984,2.048828 c -14.6575,0 -25.11328,8.611406 -25.11328,21.628906 l 0,0.205078 c 0,14.2475 9.32875,18.243594 23.78125,21.933594 11.9925,3.075 14.45117,5.125547 14.45117,9.123047 l 0,0.205078 c 0,4.2025 -3.89406,6.765625 -10.35156,6.765625 -8.2,0 -14.96438,-3.382891 -21.42188,-8.712891 l -9.32812,11.171875 c 8.61,7.6875 19.57836,11.480469 30.44336,11.480469 15.4775,0 26.34179,-7.994687 26.34179,-22.242187 l 0,-0.205078 c 0,-12.505001 -8.20086,-17.732891 -22.75585,-21.525391 -12.40251,-3.1775 -15.47657,-4.714688 -15.47657,-9.429688 l 0,-0.205078 c 0,-3.485 3.17711,-6.251953 9.22461,-6.251953 6.0475,0 12.2993,2.664766 18.6543,7.072266 l 8.20117,-11.890625 c -7.2775,-5.8425 -16.19539,-9.123047 -26.65039,-9.123047 z m -807.210938,1.02539 0,71.75 48.482418,0 0,-7.482421 -40.384761,0 0,-64.267579 -8.097657,0 z m 294.958988,0 0,71.75 34.13281,0 c 16.195,0 26.85547,-6.559687 26.85547,-19.679687 l 0,-0.205078 c 0,-9.635 -5.12524,-14.45336 -13.42774,-17.630859 5.125,-2.87 9.42969,-7.379063 9.42969,-15.476563 l 0,-0.205078 c 0,-4.92 -1.63992,-8.917266 -4.91992,-12.197266 -4.1,-4.1 -10.55781,-6.355469 -18.75781,-6.355469 l -33.3125,0 z m 15.375,13.837891 15.58007,0 c 6.66251,0 10.35352,2.665859 10.35352,7.380859 l 0,0.203126 c 0,5.329999 -4.40695,7.585937 -11.37695,7.585937 l -14.55664,0 0,-15.169922 z m 80.25586,1.947266 c -15.99,0 -27.16211,12.915156 -27.16211,28.597656 l 0,0.205078 c 0,16.81 12.19672,28.392578 28.69922,28.392578 9.9425,0 17.32226,-3.895 22.44726,-10.25 l -8.91797,-7.892578 c -4.305,3.9975 -8.09672,5.636719 -13.32422,5.636719 -6.97,0 -11.89023,-3.689219 -13.42773,-10.761719 l 38.23242,0 c 0.1025,-1.435 0.20508,-2.869609 0.20508,-4.099609 0,-15.58 -8.40445,-29.828125 -26.75195,-29.828125 z m 88.72851,0 c -12.6075,0 -24.39453,9.225 -24.39453,25.625 l 0,0.205078 c 0,16.2975 11.58203,25.625 24.39453,25.625 8.3025,0 13.325,-3.382969 17.9375,-8.917969 l 0,2.666016 c 0,9.84 -5.02164,14.964844 -15.68164,14.964844 -7.2775,0 -12.91523,-1.845938 -18.55273,-5.023438 l -5.33008,11.68555 c 6.97,3.69 15.37547,5.74023 24.29297,5.74023 10.66,0 18.55273,-2.25586 23.67773,-7.38086 4.6125,-4.6125 6.96875,-11.786951 6.96875,-21.626951 l 0,-42.53711 -15.58008,0 0,7.173829 c -4.2025,-4.6125 -9.22492,-8.199219 -17.73242,-8.199219 z m 79.14063,0 c -9.225,-0.41 -14.34985,4.510703 -17.52735,12.095703 l 0,-11.070313 -15.58008,0 0,54.939453 15.58008,0 0,-20.294921 c 0,-13.12 6.35453,-19.373047 16.70703,-19.373047 l 0.82032,0 0,-16.296875 z m 96.86328,0 c -7.8925,0 -12.5043,4.201953 -16.0918,8.814453 l 0,-7.789063 -15.58008,0 0,54.939453 15.58008,0 0,-30.646484 c 0,-7.38 3.79133,-11.173828 9.73633,-11.173828 5.945,0 9.42969,3.793828 9.42969,11.173828 l 0,30.646484 15.58007,0 0,-35.566406 c 0,-12.6075 -6.86679,-20.398437 -18.65429,-20.398437 z m 58.05273,0 c -17.1175,0 -29.82812,12.812656 -29.82812,28.597656 l 0,0.205078 c 0,15.785 12.60804,28.392578 29.62304,28.392578 17.1175,0 29.82618,-12.812656 29.82618,-28.597656 l 0,-0.205078 c 0,-15.785 -12.6061,-28.392578 -29.6211,-28.392578 z m 229.16794,0 c -9.225,-0.41 -14.34981,4.510703 -17.52731,12.095703 l 0,-11.070313 -15.58008,0 0,54.939453 15.58008,0 0,-20.294921 c 0,-13.12 6.3545,-19.373047 16.70701,-19.373047 l 0.8203,0 0,-16.296875 z m -355.49802,0.410156 c -9.3275,0 -15.27281,1.743203 -21.32031,4.408203 l 3.89649,11.888672 c 5.0225,-1.845 9.22492,-2.972656 15.16992,-2.972656 7.79,0 11.78711,3.587422 11.78711,10.044922 l 0,0.923828 c -3.895,-1.3325 -7.89274,-2.25586 -13.42774,-2.25586 -13.0175,0 -22.14062,5.534844 -22.14062,17.527344 l 0,0.205078 c 0,10.865 8.50883,16.810547 18.86133,16.810547 7.585,0 12.81101,-2.768203 16.60351,-6.970703 l 0,5.945312 15.06836,0 0,-31.876953 c 0,-7.38 -1.84531,-13.427343 -5.94531,-17.527343 -3.895,-3.895 -10.04524,-6.150391 -18.55274,-6.150391 z m 259.41797,0.615234 0,35.566407 c 0,12.6075 6.8668,20.398437 18.6543,20.398437 7.8925,0 12.50625,-4.201953 16.09375,-8.814453 l 0,7.789062 15.58008,0 0,-54.939453 -15.58008,0 0,30.646485 c 0,7.38 -3.79328,11.173828 -9.73828,11.173828 -5.945,0 -9.42969,-3.793828 -9.42969,-11.173828 l 0,-30.646485 -15.58008,0 z m -733.87109,0.820313 c -9.1225,0 -14.65758,4.611562 -18.14258,10.351562 l 0,-9.224609 -7.89258,0 0,52.992187 7.89258,0 0,-30.339843 c 0,-9.9425 6.76422,-16.605469 15.88672,-16.605469 9.3275,0 14.6582,6.150234 14.6582,15.990234 l 0,30.955078 7.89258,0 0,-32.902343 c 0,-12.6075 -7.48242,-21.216797 -20.29492,-21.216797 z m 57.86523,0 c -14.6575,0 -25.41992,12.299765 -25.41992,27.572266 l 0,0.205078 c 0,16.4 11.89031,27.572265 26.44531,27.572265 10.045,0 16.50204,-3.998359 21.83204,-9.943359 l -4.91993,-4.40625 c -4.305,4.51 -9.42953,7.482422 -16.70703,7.482422 -9.43,0 -17.52679,-6.4575 -18.65429,-17.9375 l 42.02539,0 c 0.1025,-0.9225 0.10156,-1.5375 0.10156,-2.5625 0,-15.4775 -9.02063,-27.982422 -24.70313,-27.982422 z m 57.20703,0.410156 c -7.6875,0 -13.42703,1.74125 -19.26953,4.40625 l 2.35743,6.458984 c 4.92,-2.255 9.83929,-3.896484 16.09179,-3.896484 9.9425,0 15.78516,4.920625 15.78516,14.453125 l 0,1.845703 c -4.715,-1.3325 -9.53188,-2.255859 -16.29688,-2.255859 -13.4275,0 -22.65234,5.944687 -22.65234,17.117187 l 0,0.205078 c 0,10.865 9.9432,16.501954 19.7832,16.501954 9.3275,0 15.47602,-4.303594 19.16602,-9.121094 l 0,7.99414 7.58594,0 0,-32.390624 c 0,-6.765001 -1.8461,-11.889063 -5.4336,-15.476563 -3.895,-3.895 -9.63468,-5.841797 -17.11719,-5.841797 z m -166.11718,0.716797 0,52.992187 7.89258,0 0,-52.992187 -7.89258,0 z m 108.70508,5.535156 c 10.5575,0 16.09406,8.404063 16.91406,18.039063 l -34.13281,0 c 1.025,-10.3525 7.99375,-18.039063 17.21875,-18.039063 z m 220.33789,3.998047 c 6.56,0 10.65953,4.713594 11.58203,11.683594 l -23.47266,0 c 1.23,-7.0725 5.43313,-11.683594 11.89063,-11.683594 z m 93.23828,0.410156 c 7.585,0 13.42773,5.226485 13.42773,12.708985 l 0,0.205078 c 0,7.4825 -5.84273,12.710937 -13.42773,12.710937 -7.585,0 -13.32422,-5.125937 -13.32422,-12.710937 l 0,-0.205078 c 0,-7.4825 5.73922,-12.708985 13.32422,-12.708985 z m 229.34179,0.511719 c 8.61,0 14.45118,7.072422 14.45118,15.169922 l 0,0.205078 c 0,8.0975 -5.3286,14.964844 -14.2461,14.964844 -8.61,0 -14.45312,-7.072422 -14.45312,-15.169922 l 0,-0.205078 c 0,-8.0975 5.33054,-14.964844 14.24804,-14.964844 z m -402.83593,12.914063 18.24609,0 c 8.0975,0 11.68555,2.973515 11.68555,7.791015 l 0,0.205078 c 0,5.33 -4.20383,7.789063 -11.17383,7.789063 l -18.75781,0 0,-15.785156 z m -83.18164,2.767578 c 6.4575,0 11.68507,1.128359 15.58007,2.255859 l 0,5.125 c 0,8.405 -7.99492,14.349609 -17.73242,14.349609 -7.175,0 -13.32617,-3.89414 -13.32617,-10.55664 l 0,-0.205078 c 0,-6.6625 5.53602,-10.96875 15.47852,-10.96875 z m 359.6875,2.666015 c 3.7925,0 7.27836,0.818828 9.94336,2.048829 l 0,2.767578 c 0,5.6375 -4.91977,9.636718 -12.19727,9.636718 -5.0225,0 -8.50781,-2.461562 -8.50781,-6.664062 l 0,-0.205078 c 0,-4.92 4.09922,-7.583985 10.76172,-7.583985 z" />
    </g>
  </g>
  <g
     inkscape:label="Vector copia"
     id="g3483"
     inkscape:groupmode="layer"
     style="display:none">
    <text
       sodipodi:linespacing="125%"
       id="text3485"
       y="94.351868"
       x="249.45453"
       style="font-style:normal;font-weight:normal;font-size:102.5px;line-height:125%;font-family:sans-serif;letter-spacing:0px;word-spacing:0px;fill:#000000;fill-opacity:1;stroke:none;stroke-width:1px;stroke-linecap:butt;stroke-linejoin:miter;stroke-opacity:1"
       xml:space="preserve"><tspan
         style="font-style:normal;font-variant:normal;font-weight:normal;font-stretch:normal;font-family:Gotham;-inkscape-font-specification:Gotham;fill:#000000"
         y="94.351868"
         x="249.45453"
         id="tspan3487"
         sodipodi:role="line"><tspan
   id="tspan3489"
   style="font-style:normal;font-variant:normal;font-weight:300;font-stretch:normal;font-family:Gotham;-inkscape-font-specification:'Gotham Light';fill:#000000">Línea </tspan>Mitre</tspan></text>
  </g>
</svg>
