<?xml version="1.0" encoding="UTF-8" standalone="no"?>
<!-- Created with Inkscape (http://www.inkscape.org/) -->

<svg
   xmlns:dc="http://purl.org/dc/elements/1.1/"
   xmlns:cc="http://creativecommons.org/ns#"
   xmlns:rdf="http://www.w3.org/1999/02/22-rdf-syntax-ns#"
   xmlns:svg="http://www.w3.org/2000/svg"
   xmlns="http://www.w3.org/2000/svg"
   xmlns:sodipodi="http://sodipodi.sourceforge.net/DTD/sodipodi-0.dtd"
   xmlns:inkscape="http://www.inkscape.org/namespaces/inkscape"
   id="svg3421"
   version="1.1"
   inkscape:version="0.91 r13725"
   width="1078.75"
   height="112.5"
   viewBox="0 0 1078.75 112.5"
   sodipodi:docname="Mitre.svg">
  <metadata
     id="metadata3427">
    <rdf:RDF>
      <cc:Work
         rdf:about="">
        <dc:format>image/svg+xml</dc:format>
        <dc:type
           rdf:resource="http://purl.org/dc/dcmitype/StillImage" />
        <dc:title></dc:title>
      </cc:Work>
    </rdf:RDF>
  </metadata>
  <defs
     id="defs3425" />
  <sodipodi:namedview
     pagecolor="#ffffff"
     bordercolor="#666666"
     borderopacity="1"
     objecttolerance="10"
     gridtolerance="10"
     guidetolerance="10"
     inkscape:pageopacity="0"
     inkscape:pageshadow="2"
     inkscape:window-width="1366"
     inkscape:window-height="706"
     id="namedview3423"
     showgrid="false"
     inkscape:zoom="1.1179606"
     inkscape:cx="539.375"
     inkscape:cy="56.25"
     inkscape:window-x="-8"
     inkscape:window-y="-8"
     inkscape:window-maximized="1"
     inkscape:current-layer="layer2" />
  <g
     inkscape:groupmode="layer"
     id="layer2"
     inkscape:label="Vector">
    <g
       style="font-style:normal;font-weight:normal;font-size:102.5px;line-height:125%;font-family:sans-serif;letter-spacing:0px;word-spacing:0px;fill:#ffffff;fill-opacity:1;stroke:none;stroke-width:1px;stroke-linecap:butt;stroke-linejoin:miter;stroke-opacity:1"
       id="text3431">
      <path
         sodipodi:type="inkscape:offset"
         inkscape:radius="0"
         inkscape:original="M 332.9043 18.501953 L 323.26953 33.365234 L 329.41797 33.365234 L 341.10352 22.294922 L 332.9043 18.501953 z M 649.91602 19.527344 L 649.91602 33.365234 L 666.31641 33.365234 L 666.31641 19.527344 L 649.91602 19.527344 z M 259.60156 22.601562 L 259.60156 94.351562 L 308.08398 94.351562 L 308.08398 86.869141 L 267.69922 86.869141 L 267.69922 22.601562 L 259.60156 22.601562 z M 562.36133 22.601562 L 562.36133 94.351562 L 577.83984 94.351562 L 577.83984 47.816406 L 597.82617 78.15625 L 598.23633 78.15625 L 618.42969 47.509766 L 618.42969 94.351562 L 634.11133 94.351562 L 634.11133 22.601562 L 617.0957 22.601562 L 598.23633 52.941406 L 579.37695 22.601562 L 562.36133 22.601562 z M 683.20117 25.369141 L 683.20117 39.412109 L 676.64062 39.412109 L 676.64062 52.736328 L 683.20117 52.736328 L 683.20117 78.771484 C 683.20117 91.481484 689.65891 95.273438 699.19141 95.273438 C 704.41891 95.273438 708.21023 94.045156 711.49023 92.097656 L 711.49023 79.591797 C 709.23523 80.821797 706.67273 81.539062 703.80273 81.539062 C 700.31773 81.539062 698.78125 79.796484 698.78125 76.208984 L 698.78125 52.736328 L 711.69531 52.736328 L 711.69531 39.412109 L 698.78125 39.412109 L 698.78125 25.369141 L 683.20117 25.369141 z M 756.1875 38.386719 C 746.9625 37.976719 741.83766 42.897422 738.66016 50.482422 L 738.66016 39.412109 L 723.08008 39.412109 L 723.08008 94.351562 L 738.66016 94.351562 L 738.66016 74.056641 C 738.66016 60.936641 745.01469 54.683594 755.36719 54.683594 L 756.1875 54.683594 L 756.1875 38.386719 z M 788.81836 38.386719 C 772.82836 38.386719 761.6543 51.301875 761.6543 66.984375 L 761.6543 67.189453 C 761.6543 83.999453 773.85297 95.582031 790.35547 95.582031 C 800.29797 95.582031 807.67773 91.687031 812.80273 85.332031 L 803.88477 77.439453 C 799.57977 81.436953 795.78805 83.076172 790.56055 83.076172 C 783.59055 83.076172 778.67031 79.386953 777.13281 72.314453 L 815.36523 72.314453 C 815.46773 70.879453 815.57031 69.444844 815.57031 68.214844 C 815.57031 52.634844 807.16586 38.386719 788.81836 38.386719 z M 650.32617 39.412109 L 650.32617 94.351562 L 665.90625 94.351562 L 665.90625 39.412109 L 650.32617 39.412109 z M 374.79297 40.232422 C 365.67047 40.232422 360.13539 44.843984 356.65039 50.583984 L 356.65039 41.359375 L 348.75781 41.359375 L 348.75781 94.351562 L 356.65039 94.351562 L 356.65039 64.011719 C 356.65039 54.069219 363.41461 47.40625 372.53711 47.40625 C 381.86461 47.40625 387.19531 53.556484 387.19531 63.396484 L 387.19531 94.351562 L 395.08789 94.351562 L 395.08789 61.449219 C 395.08789 48.841719 387.60547 40.232422 374.79297 40.232422 z M 433.95898 40.232422 C 419.30148 40.232422 408.53906 52.532187 408.53906 67.804688 L 408.53906 68.009766 C 408.53906 84.409766 420.42937 95.582031 434.98438 95.582031 C 445.02938 95.582031 451.48641 91.583672 456.81641 85.638672 L 451.89648 81.232422 C 447.59148 85.742422 442.46695 88.714844 435.18945 88.714844 C 425.75945 88.714844 417.66266 82.257344 416.53516 70.777344 L 458.55859 70.777344 C 458.66109 69.854844 458.66211 69.239844 458.66211 68.214844 C 458.66211 52.737344 449.64148 40.232422 433.95898 40.232422 z M 492.4668 40.642578 C 484.7793 40.642578 479.03781 42.383828 473.19531 45.048828 L 475.55273 51.507812 C 480.47273 49.252812 485.39398 47.611328 491.64648 47.611328 C 501.58898 47.611328 507.43164 52.531953 507.43164 62.064453 L 507.43164 63.910156 C 502.71664 62.577656 497.89781 61.654297 491.13281 61.654297 C 477.70531 61.654297 468.48047 67.598984 468.48047 78.771484 L 468.48047 78.976562 C 468.48047 89.841562 478.42367 95.478516 488.26367 95.478516 C 497.59117 95.478516 503.74164 91.174922 507.43164 86.357422 L 507.43164 94.351562 L 515.01562 94.351562 L 515.01562 61.960938 C 515.01562 55.195937 513.17148 50.071875 509.58398 46.484375 C 505.68898 42.589375 499.9493 40.642578 492.4668 40.642578 z M 322.44922 41.359375 L 322.44922 94.351562 L 330.3418 94.351562 L 330.3418 41.359375 L 322.44922 41.359375 z M 433.75391 46.894531 C 444.31141 46.894531 449.84602 55.298594 450.66602 64.933594 L 416.53516 64.933594 C 417.56016 54.581094 424.52891 46.894531 433.75391 46.894531 z M 788.81836 50.892578 C 795.37836 50.892578 799.47789 55.606172 800.40039 62.576172 L 776.92773 62.576172 C 778.15773 55.503672 782.36086 50.892578 788.81836 50.892578 z M 491.95312 67.496094 C 498.41062 67.496094 503.6382 68.624453 507.5332 69.751953 L 507.5332 74.876953 C 507.5332 83.281953 499.53828 89.226562 489.80078 89.226562 C 482.62578 89.226562 476.47656 85.332422 476.47656 78.669922 L 476.47656 78.464844 C 476.47656 71.802344 482.01063 67.496094 491.95312 67.496094 z "
         style="font-style:normal;font-variant:normal;font-weight:normal;font-stretch:normal;font-family:Gotham;-inkscape-font-specification:Gotham;fill:#ffffff"
         id="path3481"
         d="m 332.9043,18.501953 -9.63477,14.863281 6.14844,0 11.68555,-11.070312 -8.19922,-3.792969 z m 317.01172,1.025391 0,13.83789 16.40039,0 0,-13.83789 -16.40039,0 z m -390.31446,3.074218 0,71.75 48.48242,0 0,-7.482421 -40.38476,0 0,-64.267579 -8.09766,0 z m 302.75977,0 0,71.75 15.47851,0 0,-46.535156 19.98633,30.339844 0.41016,0 20.19336,-30.646484 0,46.841796 15.68164,0 0,-71.75 -17.01563,0 -18.85937,30.339844 -18.85938,-30.339844 -17.01562,0 z m 120.83984,2.767579 0,14.042968 -6.56055,0 0,13.324219 6.56055,0 0,26.035156 c 0,12.71 6.45774,16.501954 15.99024,16.501954 5.2275,0 9.01882,-1.228282 12.29882,-3.175782 l 0,-12.505859 c -2.255,1.23 -4.8175,1.947265 -7.6875,1.947265 -3.485,0 -5.02148,-1.742578 -5.02148,-5.330078 l 0,-23.472656 12.91406,0 0,-13.324219 -12.91406,0 0,-14.042968 -15.58008,0 z m 72.98633,13.017578 c -9.225,-0.41 -14.34984,4.510703 -17.52734,12.095703 l 0,-11.070313 -15.58008,0 0,54.939453 15.58008,0 0,-20.294921 c 0,-13.12 6.35453,-19.373047 16.70703,-19.373047 l 0.82031,0 0,-16.296875 z m 32.63086,0 c -15.99,0 -27.16406,12.915156 -27.16406,28.597656 l 0,0.205078 c 0,16.81 12.19867,28.392578 28.70117,28.392578 9.9425,0 17.32226,-3.895 22.44726,-10.25 l -8.91796,-7.892578 c -4.305,3.9975 -8.09672,5.636719 -13.32422,5.636719 -6.97,0 -11.89024,-3.689219 -13.42774,-10.761719 l 38.23242,0 c 0.1025,-1.435 0.20508,-2.869609 0.20508,-4.099609 0,-15.58 -8.40445,-29.828125 -26.75195,-29.828125 z m -138.49219,1.02539 0,54.939453 15.58008,0 0,-54.939453 -15.58008,0 z m -275.5332,0.820313 c -9.1225,0 -14.65758,4.611562 -18.14258,10.351562 l 0,-9.224609 -7.89258,0 0,52.992187 7.89258,0 0,-30.339843 c 0,-9.9425 6.76422,-16.605469 15.88672,-16.605469 9.3275,0 14.6582,6.150234 14.6582,15.990234 l 0,30.955078 7.89258,0 0,-32.902343 c 0,-12.6075 -7.48242,-21.216797 -20.29492,-21.216797 z m 59.16601,0 c -14.6575,0 -25.41992,12.299765 -25.41992,27.572266 l 0,0.205078 c 0,16.4 11.89031,27.572265 26.44532,27.572265 10.045,0 16.50203,-3.998359 21.83203,-9.943359 l -4.91993,-4.40625 c -4.305,4.51 -9.42953,7.482422 -16.70703,7.482422 -9.43,0 -17.52679,-6.4575 -18.65429,-17.9375 l 42.02343,0 c 0.1025,-0.9225 0.10352,-1.5375 0.10352,-2.5625 0,-15.4775 -9.02063,-27.982422 -24.70313,-27.982422 z m 58.50782,0.410156 c -7.6875,0 -13.42899,1.74125 -19.27149,4.40625 l 2.35742,6.458984 c 4.92,-2.255 9.84125,-3.896484 16.09375,-3.896484 9.9425,0 15.78516,4.920625 15.78516,14.453125 l 0,1.845703 c -4.715,-1.3325 -9.53383,-2.255859 -16.29883,-2.255859 -13.4275,0 -22.65234,5.944687 -22.65234,17.117187 l 0,0.205078 c 0,10.865 9.9432,16.501954 19.7832,16.501954 9.3275,0 15.47797,-4.303594 19.16797,-9.121094 l 0,7.99414 7.58398,0 0,-32.390624 c 0,-6.765001 -1.84414,-11.889063 -5.43164,-15.476563 -3.895,-3.895 -9.63468,-5.841797 -17.11718,-5.841797 z m -170.01758,0.716797 0,52.992187 7.89258,0 0,-52.992187 -7.89258,0 z m 111.30469,5.535156 c 10.5575,0 16.09211,8.404063 16.91211,18.039063 l -34.13086,0 c 1.025,-10.3525 7.99375,-18.039063 17.21875,-18.039063 z m 355.06445,3.998047 c 6.56,0 10.65953,4.713594 11.58203,11.683594 l -23.47266,0 c 1.23,-7.0725 5.43313,-11.683594 11.89063,-11.683594 z M 491.95312,67.496094 c 6.4575,0 11.68508,1.128359 15.58008,2.255859 l 0,5.125 c 0,8.405 -7.99492,14.349609 -17.73242,14.349609 -7.175,0 -13.32422,-3.89414 -13.32422,-10.55664 l 0,-0.205078 c 0,-6.6625 5.53407,-10.96875 15.47656,-10.96875 z" />
    </g>
  </g>
</svg>
