<?xml version="1.0" encoding="UTF-8" standalone="no"?>
<!-- Created with Inkscape (http://www.inkscape.org/) -->

<svg
   xmlns:dc="http://purl.org/dc/elements/1.1/"
   xmlns:cc="http://creativecommons.org/ns#"
   xmlns:rdf="http://www.w3.org/1999/02/22-rdf-syntax-ns#"
   xmlns:svg="http://www.w3.org/2000/svg"
   xmlns="http://www.w3.org/2000/svg"
   xmlns:sodipodi="http://sodipodi.sourceforge.net/DTD/sodipodi-0.dtd"
   xmlns:inkscape="http://www.inkscape.org/namespaces/inkscape"
   id="svg3421"
   version="1.1"
   inkscape:version="0.91 r13725"
   width="1078.75"
   height="112.5"
   viewBox="0 0 1078.75 112.5"
   sodipodi:docname="Roca.svg">
  <metadata
     id="metadata3427">
    <rdf:RDF>
      <cc:Work
         rdf:about="">
        <dc:format>image/svg+xml</dc:format>
        <dc:type
           rdf:resource="http://purl.org/dc/dcmitype/StillImage" />
        <dc:title></dc:title>
      </cc:Work>
    </rdf:RDF>
  </metadata>
  <defs
     id="defs3425" />
  <sodipodi:namedview
     pagecolor="#ffffff"
     bordercolor="#666666"
     borderopacity="1"
     objecttolerance="10"
     gridtolerance="10"
     guidetolerance="10"
     inkscape:pageopacity="0"
     inkscape:pageshadow="2"
     inkscape:window-width="1366"
     inkscape:window-height="706"
     id="namedview3423"
     showgrid="false"
     inkscape:zoom="1.1179606"
     inkscape:cx="542.1856"
     inkscape:cy="56.25"
     inkscape:window-x="-8"
     inkscape:window-y="-8"
     inkscape:window-maximized="1"
     inkscape:current-layer="layer2" />
  <g
     inkscape:groupmode="layer"
     id="layer2"
     inkscape:label="Vector"
     style="display:inline">
    <g
       style="font-style:normal;font-weight:normal;font-size:102.5px;line-height:125%;font-family:sans-serif;letter-spacing:0px;word-spacing:0px;fill:#000000;fill-opacity:1;stroke:none;stroke-width:1px;stroke-linecap:butt;stroke-linejoin:miter;stroke-opacity:1"
       id="text3431">
      <path
         sodipodi:type="inkscape:offset"
         inkscape:radius="0"
         inkscape:original="M 332.9043 18.501953 L 323.26953 33.365234 L 329.41797 33.365234 L 341.10352 22.294922 L 332.9043 18.501953 z M 259.60156 22.601562 L 259.60156 94.351562 L 308.08398 94.351562 L 308.08398 86.869141 L 267.69922 86.869141 L 267.69922 22.601562 L 259.60156 22.601562 z M 562.36133 22.601562 L 562.36133 94.351562 L 578.14648 94.351562 L 578.14648 71.392578 L 590.54883 71.392578 L 605.92383 94.351562 L 624.37305 94.351562 L 606.8457 68.726562 C 615.9682 65.344063 622.2207 58.066875 622.2207 46.484375 L 622.2207 46.279297 C 622.2207 39.514297 620.06977 33.876406 616.07227 29.878906 C 611.35727 25.163906 604.28461 22.601562 595.16211 22.601562 L 562.36133 22.601562 z M 578.14648 36.849609 L 593.82812 36.849609 C 601.51562 36.849609 606.23047 40.334609 606.23047 47.099609 L 606.23047 47.304688 C 606.23047 53.352187 601.82422 57.451172 594.13672 57.451172 L 578.14648 57.451172 L 578.14648 36.849609 z M 660.95508 38.386719 C 643.83758 38.386719 631.12695 51.199375 631.12695 66.984375 L 631.12695 67.189453 C 631.12695 82.974453 643.735 95.582031 660.75 95.582031 C 677.8675 95.582031 690.57812 82.769375 690.57812 66.984375 L 690.57812 66.779297 C 690.57812 50.994297 677.97008 38.386719 660.95508 38.386719 z M 727.99609 38.386719 C 711.18609 38.386719 699.19336 51.301875 699.19336 66.984375 L 699.19336 67.189453 C 699.19336 82.871953 711.28852 95.582031 727.79102 95.582031 C 738.75852 95.582031 744.90828 91.379609 750.23828 85.537109 L 741.11719 76.3125 C 737.32469 79.9 733.73727 82.154297 728.50977 82.154297 C 720.00227 82.154297 714.56836 75.389375 714.56836 66.984375 L 714.56836 66.779297 C 714.56836 58.681797 720.10453 51.814453 727.89453 51.814453 C 733.42953 51.814453 736.91344 54.171328 740.39844 57.861328 L 749.93164 47.611328 C 744.80664 41.871328 738.34859 38.386719 727.99609 38.386719 z M 783.07031 38.796875 C 773.74281 38.796875 767.79945 40.540078 761.75195 43.205078 L 765.64648 55.09375 C 770.66898 53.24875 774.87141 52.121094 780.81641 52.121094 C 788.60641 52.121094 792.60352 55.708516 792.60352 62.166016 L 792.60352 63.089844 C 788.70852 61.757344 784.71078 60.833984 779.17578 60.833984 C 766.15828 60.833984 757.03516 66.368828 757.03516 78.361328 L 757.03516 78.566406 C 757.03516 89.431406 765.54398 95.376953 775.89648 95.376953 C 783.48148 95.376953 788.70945 92.60875 792.50195 88.40625 L 792.50195 94.351562 L 807.56836 94.351562 L 807.56836 62.474609 C 807.56836 55.094609 805.72305 49.047266 801.62305 44.947266 C 797.72805 41.052266 791.57781 38.796875 783.07031 38.796875 z M 374.79297 40.232422 C 365.67047 40.232422 360.13539 44.843984 356.65039 50.583984 L 356.65039 41.359375 L 348.75781 41.359375 L 348.75781 94.351562 L 356.65039 94.351562 L 356.65039 64.011719 C 356.65039 54.069219 363.41461 47.40625 372.53711 47.40625 C 381.86461 47.40625 387.19531 53.556484 387.19531 63.396484 L 387.19531 94.351562 L 395.08789 94.351562 L 395.08789 61.449219 C 395.08789 48.841719 387.60547 40.232422 374.79297 40.232422 z M 433.95898 40.232422 C 419.30148 40.232422 408.53906 52.532187 408.53906 67.804688 L 408.53906 68.009766 C 408.53906 84.409766 420.42937 95.582031 434.98438 95.582031 C 445.02938 95.582031 451.48641 91.583672 456.81641 85.638672 L 451.89648 81.232422 C 447.59148 85.742422 442.46695 88.714844 435.18945 88.714844 C 425.75945 88.714844 417.66266 82.257344 416.53516 70.777344 L 458.55859 70.777344 C 458.66109 69.854844 458.66211 69.239844 458.66211 68.214844 C 458.66211 52.737344 449.64148 40.232422 433.95898 40.232422 z M 492.4668 40.642578 C 484.7793 40.642578 479.03781 42.383828 473.19531 45.048828 L 475.55273 51.507812 C 480.47273 49.252812 485.39398 47.611328 491.64648 47.611328 C 501.58898 47.611328 507.43164 52.531953 507.43164 62.064453 L 507.43164 63.910156 C 502.71664 62.577656 497.89781 61.654297 491.13281 61.654297 C 477.70531 61.654297 468.48047 67.598984 468.48047 78.771484 L 468.48047 78.976562 C 468.48047 89.841562 478.42367 95.478516 488.26367 95.478516 C 497.59117 95.478516 503.74164 91.174922 507.43164 86.357422 L 507.43164 94.351562 L 515.01562 94.351562 L 515.01562 61.960938 C 515.01562 55.195937 513.17148 50.071875 509.58398 46.484375 C 505.68898 42.589375 499.9493 40.642578 492.4668 40.642578 z M 322.44922 41.359375 L 322.44922 94.351562 L 330.3418 94.351562 L 330.3418 41.359375 L 322.44922 41.359375 z M 433.75391 46.894531 C 444.31141 46.894531 449.84602 55.298594 450.66602 64.933594 L 416.53516 64.933594 C 417.56016 54.581094 424.52891 46.894531 433.75391 46.894531 z M 660.75 51.814453 C 669.36 51.814453 675.20312 58.886875 675.20312 66.984375 L 675.20312 67.189453 C 675.20312 75.286953 669.87258 82.154297 660.95508 82.154297 C 652.34508 82.154297 646.50195 75.081875 646.50195 66.984375 L 646.50195 66.779297 C 646.50195 58.681797 651.8325 51.814453 660.75 51.814453 z M 491.95312 67.496094 C 498.41062 67.496094 503.6382 68.624453 507.5332 69.751953 L 507.5332 74.876953 C 507.5332 83.281953 499.53828 89.226562 489.80078 89.226562 C 482.62578 89.226562 476.47656 85.332422 476.47656 78.669922 L 476.47656 78.464844 C 476.47656 71.802344 482.01063 67.496094 491.95312 67.496094 z M 782.86523 70.162109 C 786.65773 70.162109 790.14359 70.980937 792.80859 72.210938 L 792.80859 74.978516 C 792.80859 80.616016 787.88883 84.615234 780.61133 84.615234 C 775.58883 84.615234 772.10352 82.153672 772.10352 77.951172 L 772.10352 77.746094 C 772.10352 72.826094 776.20273 70.162109 782.86523 70.162109 z "
         style="font-style:normal;font-variant:normal;font-weight:normal;font-stretch:normal;font-family:Gotham;-inkscape-font-specification:Gotham;fill:#ffffff"
         id="path3597"
         d="m 332.9043,18.501953 -9.63477,14.863281 6.14844,0 11.68555,-11.070312 -8.19922,-3.792969 z m -73.30274,4.099609 0,71.75 48.48242,0 0,-7.482421 -40.38476,0 0,-64.267579 -8.09766,0 z m 302.75977,0 0,71.75 15.78515,0 0,-22.958984 12.40235,0 15.375,22.958984 18.44922,0 -17.52735,-25.625 c 9.1225,-3.382499 15.375,-10.659687 15.375,-22.242187 l 0,-0.205078 c 0,-6.765 -2.15093,-12.402891 -6.14843,-16.400391 -4.715,-4.715 -11.78766,-7.277344 -20.91016,-7.277344 l -32.80078,0 z m 15.78515,14.248047 15.68164,0 c 7.6875,0 12.40235,3.485 12.40235,10.25 l 0,0.205079 c 0,6.047499 -4.40625,10.146484 -12.09375,10.146484 l -15.99024,0 0,-20.601563 z m 82.8086,1.53711 c -17.1175,0 -29.82813,12.812656 -29.82813,28.597656 l 0,0.205078 c 0,15.785 12.60805,28.392578 29.62305,28.392578 17.1175,0 29.82812,-12.812656 29.82812,-28.597656 l 0,-0.205078 c 0,-15.785 -12.60804,-28.392578 -29.62304,-28.392578 z m 67.04101,0 c -16.81,0 -28.80273,12.915156 -28.80273,28.597656 l 0,0.205078 c 0,15.6825 12.09516,28.392578 28.59766,28.392578 10.9675,0 17.11726,-4.202422 22.44726,-10.044922 L 741.11719,76.3125 c -3.7925,3.5875 -7.37992,5.841797 -12.60742,5.841797 -8.5075,0 -13.94141,-6.764922 -13.94141,-15.169922 l 0,-0.205078 c 0,-8.0975 5.53617,-14.964844 13.32617,-14.964844 5.535,0 9.01891,2.356875 12.50391,6.046875 l 9.5332,-10.25 c -5.125,-5.74 -11.58305,-9.224609 -21.93555,-9.224609 z m 55.07422,0.410156 c -9.3275,0 -15.27086,1.743203 -21.31836,4.408203 l 3.89453,11.888672 c 5.0225,-1.845 9.22493,-2.972656 15.16993,-2.972656 7.79,0 11.78711,3.587422 11.78711,10.044922 l 0,0.923828 c -3.895,-1.3325 -7.89274,-2.25586 -13.42774,-2.25586 -13.0175,0 -22.14062,5.534844 -22.14062,17.527344 l 0,0.205078 c 0,10.865 8.50882,16.810547 18.86132,16.810547 7.585,0 12.81297,-2.768203 16.60547,-6.970703 l 0,5.945312 15.06641,0 0,-31.876953 c 0,-7.38 -1.84531,-13.427343 -5.94531,-17.527343 -3.895,-3.895 -10.04524,-6.150391 -18.55274,-6.150391 z m -408.27734,1.435547 c -9.1225,0 -14.65758,4.611562 -18.14258,10.351562 l 0,-9.224609 -7.89258,0 0,52.992187 7.89258,0 0,-30.339843 c 0,-9.9425 6.76422,-16.605469 15.88672,-16.605469 9.3275,0 14.6582,6.150234 14.6582,15.990234 l 0,30.955078 7.89258,0 0,-32.902343 c 0,-12.6075 -7.48242,-21.216797 -20.29492,-21.216797 z m 59.16601,0 c -14.6575,0 -25.41992,12.299765 -25.41992,27.572266 l 0,0.205078 c 0,16.4 11.89031,27.572265 26.44532,27.572265 10.045,0 16.50203,-3.998359 21.83203,-9.943359 l -4.91993,-4.40625 c -4.305,4.51 -9.42953,7.482422 -16.70703,7.482422 -9.43,0 -17.52679,-6.4575 -18.65429,-17.9375 l 42.02343,0 c 0.1025,-0.9225 0.10352,-1.5375 0.10352,-2.5625 0,-15.4775 -9.02063,-27.982422 -24.70313,-27.982422 z m 58.50782,0.410156 c -7.6875,0 -13.42899,1.74125 -19.27149,4.40625 l 2.35742,6.458984 c 4.92,-2.255 9.84125,-3.896484 16.09375,-3.896484 9.9425,0 15.78516,4.920625 15.78516,14.453125 l 0,1.845703 c -4.715,-1.3325 -9.53383,-2.255859 -16.29883,-2.255859 -13.4275,0 -22.65234,5.944687 -22.65234,17.117187 l 0,0.205078 c 0,10.865 9.9432,16.501954 19.7832,16.501954 9.3275,0 15.47797,-4.303594 19.16797,-9.121094 l 0,7.99414 7.58398,0 0,-32.390624 c 0,-6.765001 -1.84414,-11.889063 -5.43164,-15.476563 -3.895,-3.895 -9.63468,-5.841797 -17.11718,-5.841797 z m -170.01758,0.716797 0,52.992187 7.89258,0 0,-52.992187 -7.89258,0 z m 111.30469,5.535156 c 10.5575,0 16.09211,8.404063 16.91211,18.039063 l -34.13086,0 c 1.025,-10.3525 7.99375,-18.039063 17.21875,-18.039063 z M 660.75,51.814453 c 8.61,0 14.45312,7.072422 14.45312,15.169922 l 0,0.205078 c 0,8.0975 -5.33054,14.964844 -14.24804,14.964844 -8.61,0 -14.45313,-7.072422 -14.45313,-15.169922 l 0,-0.205078 c 0,-8.0975 5.33055,-14.964844 14.24805,-14.964844 z M 491.95312,67.496094 c 6.4575,0 11.68508,1.128359 15.58008,2.255859 l 0,5.125 c 0,8.405 -7.99492,14.349609 -17.73242,14.349609 -7.175,0 -13.32422,-3.89414 -13.32422,-10.55664 l 0,-0.205078 c 0,-6.6625 5.53407,-10.96875 15.47656,-10.96875 z m 290.91211,2.666015 c 3.7925,0 7.27836,0.818828 9.94336,2.048829 l 0,2.767578 c 0,5.6375 -4.91976,9.636718 -12.19726,9.636718 -5.0225,0 -8.50781,-2.461562 -8.50781,-6.664062 l 0,-0.205078 c 0,-4.92 4.09921,-7.583985 10.76171,-7.583985 z" />
    </g>
  </g>
  <g
     inkscape:label="Vector copia"
     id="g3483"
     inkscape:groupmode="layer"
     style="display:none">
    <text
       sodipodi:linespacing="125%"
       id="text3485"
       y="94.351868"
       x="249.45453"
       style="font-style:normal;font-weight:normal;font-size:102.5px;line-height:125%;font-family:sans-serif;letter-spacing:0px;word-spacing:0px;fill:#000000;fill-opacity:1;stroke:none;stroke-width:1px;stroke-linecap:butt;stroke-linejoin:miter;stroke-opacity:1"
       xml:space="preserve"><tspan
         style="font-style:normal;font-variant:normal;font-weight:normal;font-stretch:normal;font-family:Gotham;-inkscape-font-specification:Gotham;fill:#000000"
         y="94.351868"
         x="249.45453"
         id="tspan3487"
         sodipodi:role="line"><tspan
   id="tspan3489"
   style="font-style:normal;font-variant:normal;font-weight:300;font-stretch:normal;font-family:Gotham;-inkscape-font-specification:'Gotham Light';fill:#000000">Línea </tspan>Mitre</tspan></text>
  </g>
</svg>
