<?xml version="1.0" encoding="UTF-8" standalone="no"?>
<!-- Created with Inkscape (http://www.inkscape.org/) -->

<svg
   xmlns:dc="http://purl.org/dc/elements/1.1/"
   xmlns:cc="http://creativecommons.org/ns#"
   xmlns:rdf="http://www.w3.org/1999/02/22-rdf-syntax-ns#"
   xmlns:svg="http://www.w3.org/2000/svg"
   xmlns="http://www.w3.org/2000/svg"
   xmlns:sodipodi="http://sodipodi.sourceforge.net/DTD/sodipodi-0.dtd"
   xmlns:inkscape="http://www.inkscape.org/namespaces/inkscape"
   id="svg3336"
   version="1.1"
   inkscape:version="0.91 r13725"
   width="1078.75"
   height="112.5"
   viewBox="0 0 1078.75 112.5"
   sodipodi:docname="SanMartin.svg">
  <metadata
     id="metadata3342">
    <rdf:RDF>
      <cc:Work
         rdf:about="">
        <dc:format>image/svg+xml</dc:format>
        <dc:type
           rdf:resource="http://purl.org/dc/dcmitype/StillImage" />
        <dc:title></dc:title>
      </cc:Work>
    </rdf:RDF>
  </metadata>
  <defs
     id="defs3340" />
  <sodipodi:namedview
     pagecolor="#000000"
     bordercolor="#666666"
     borderopacity="1"
     objecttolerance="10"
     gridtolerance="10"
     guidetolerance="10"
     inkscape:pageopacity="0"
     inkscape:pageshadow="2"
     inkscape:window-width="1366"
     inkscape:window-height="706"
     id="namedview3338"
     showgrid="false"
     inkscape:zoom="1.1179606"
     inkscape:cx="539.375"
     inkscape:cy="56.25"
     inkscape:window-x="-8"
     inkscape:window-y="-8"
     inkscape:window-maximized="1"
     inkscape:current-layer="svg3336" />
  <g
     style="font-style:normal;font-weight:normal;font-size:40px;line-height:125%;font-family:sans-serif;letter-spacing:0px;word-spacing:0px;fill:#ffffff;fill-opacity:1;stroke:none;stroke-width:1px;stroke-linecap:butt;stroke-linejoin:miter;stroke-opacity:1"
     id="text3340">
    <path
       sodipodi:type="inkscape:offset"
       inkscape:radius="0"
       inkscape:original="M 887.50781 15.541016 L 876.13086 33.683594 L 887.60938 33.683594 L 900.93555 21.382812 L 887.50781 15.541016 z M 197.31055 18.820312 L 187.67578 33.683594 L 193.82617 33.683594 L 205.50977 22.613281 L 197.31055 18.820312 z M 449.83008 21.894531 C 435.17258 21.894531 424.71875 30.505937 424.71875 43.523438 L 424.71875 43.728516 C 424.71875 57.976016 434.04555 61.972109 448.49805 65.662109 C 460.49055 68.737109 462.95117 70.787656 462.95117 74.785156 L 462.95117 74.990234 C 462.95117 79.192734 459.05516 81.755859 452.59766 81.755859 C 444.39766 81.755859 437.63328 78.372969 431.17578 73.042969 L 421.84766 84.214844 C 430.45766 91.902344 441.42602 95.695312 452.29102 95.695312 C 467.76852 95.695312 478.63281 87.700625 478.63281 73.453125 L 478.63281 73.248047 C 478.63281 60.743047 470.43391 55.515156 455.87891 51.722656 C 443.47641 48.545156 440.40039 47.007969 440.40039 42.292969 L 440.40039 42.087891 C 440.40039 38.602891 443.5775 35.835938 449.625 35.835938 C 455.6725 35.835938 461.92625 38.500703 468.28125 42.908203 L 476.48047 31.017578 C 469.20297 25.175078 460.28508 21.894531 449.83008 21.894531 z M 124.00781 22.919922 L 124.00781 94.669922 L 172.49023 94.669922 L 172.49023 87.1875 L 132.10547 87.1875 L 132.10547 22.919922 L 124.00781 22.919922 z M 644.18359 22.919922 L 644.18359 94.669922 L 659.66016 94.669922 L 659.66016 48.134766 L 679.64844 78.474609 L 680.05859 78.474609 L 700.25195 47.828125 L 700.25195 94.669922 L 715.93359 94.669922 L 715.93359 22.919922 L 698.91797 22.919922 L 680.05859 53.259766 L 661.19922 22.919922 L 644.18359 22.919922 z M 834.79297 25.6875 L 834.79297 39.730469 L 828.23438 39.730469 L 828.23438 53.054688 L 834.79297 53.054688 L 834.79297 79.089844 C 834.79297 91.799844 841.2507 95.591797 850.7832 95.591797 C 856.0107 95.591797 859.80398 94.363516 863.08398 92.416016 L 863.08398 79.910156 C 860.82898 81.140156 858.26648 81.857422 855.39648 81.857422 C 851.91148 81.857422 850.37305 80.114844 850.37305 76.527344 L 850.37305 53.054688 L 863.28906 53.054688 L 863.28906 39.730469 L 850.37305 39.730469 L 850.37305 25.6875 L 834.79297 25.6875 z M 581.32422 38.705078 C 573.43172 38.705078 568.81797 42.907031 565.23047 47.519531 L 565.23047 39.730469 L 549.65039 39.730469 L 549.65039 94.669922 L 565.23047 94.669922 L 565.23047 64.023438 C 565.23047 56.643437 569.02375 52.849609 574.96875 52.849609 C 580.91375 52.849609 584.39844 56.643437 584.39844 64.023438 L 584.39844 94.669922 L 599.97852 94.669922 L 599.97852 59.103516 C 599.97852 46.496016 593.11172 38.705078 581.32422 38.705078 z M 823.39648 38.705078 C 814.17148 38.295078 809.04664 43.215781 805.86914 50.800781 L 805.86914 39.730469 L 790.28906 39.730469 L 790.28906 94.669922 L 805.86914 94.669922 L 805.86914 74.375 C 805.86914 61.255 812.22367 55.001953 822.57617 55.001953 L 823.39648 55.001953 L 823.39648 38.705078 z M 935.57617 38.705078 C 927.68367 38.705078 923.06992 42.907031 919.48242 47.519531 L 919.48242 39.730469 L 903.90234 39.730469 L 903.90234 94.669922 L 919.48242 94.669922 L 919.48242 64.023438 C 919.48242 56.643437 923.2757 52.849609 929.2207 52.849609 C 935.1657 52.849609 938.65039 56.643437 938.65039 64.023438 L 938.65039 94.669922 L 954.23047 94.669922 L 954.23047 59.103516 C 954.23047 46.496016 947.36367 38.705078 935.57617 38.705078 z M 512.64648 39.115234 C 503.31898 39.115234 497.37367 40.858438 491.32617 43.523438 L 495.22266 55.412109 C 500.24516 53.567109 504.44758 52.439453 510.39258 52.439453 C 518.18258 52.439453 522.17969 56.026875 522.17969 62.484375 L 522.17969 63.408203 C 518.28469 62.075703 514.28695 61.152344 508.75195 61.152344 C 495.73445 61.152344 486.61133 66.687188 486.61133 78.679688 L 486.61133 78.884766 C 486.61133 89.749766 495.12016 95.695312 505.47266 95.695312 C 513.05766 95.695312 518.28367 92.927109 522.07617 88.724609 L 522.07617 94.669922 L 537.14453 94.669922 L 537.14453 62.792969 C 537.14453 55.412969 535.29922 49.365625 531.19922 45.265625 C 527.30422 41.370625 521.15398 39.115234 512.64648 39.115234 z M 753.28516 39.115234 C 743.95766 39.115234 738.01234 40.858438 731.96484 43.523438 L 735.85938 55.412109 C 740.88188 53.567109 745.08625 52.439453 751.03125 52.439453 C 758.82125 52.439453 762.81836 56.026875 762.81836 62.484375 L 762.81836 63.408203 C 758.92336 62.075703 754.92562 61.152344 749.39062 61.152344 C 736.37312 61.152344 727.25 66.687188 727.25 78.679688 L 727.25 78.884766 C 727.25 89.749766 735.75688 95.695312 746.10938 95.695312 C 753.69438 95.695312 758.92234 92.927109 762.71484 88.724609 L 762.71484 94.669922 L 777.7832 94.669922 L 777.7832 62.792969 C 777.7832 55.412969 775.93789 49.365625 771.83789 45.265625 C 767.94289 41.370625 761.79266 39.115234 753.28516 39.115234 z M 874.49023 39.730469 L 874.49023 94.669922 L 890.07031 94.669922 L 890.07031 39.730469 L 874.49023 39.730469 z M 239.19922 40.550781 C 230.07672 40.550781 224.54164 45.162344 221.05664 50.902344 L 221.05664 41.677734 L 213.16406 41.677734 L 213.16406 94.669922 L 221.05664 94.669922 L 221.05664 64.330078 C 221.05664 54.387578 227.82281 47.724609 236.94531 47.724609 C 246.27281 47.724609 251.60156 53.874844 251.60156 63.714844 L 251.60156 94.669922 L 259.49414 94.669922 L 259.49414 61.767578 C 259.49414 49.160078 252.01172 40.550781 239.19922 40.550781 z M 298.36523 40.550781 C 283.70773 40.550781 272.94531 52.850547 272.94531 68.123047 L 272.94531 68.328125 C 272.94531 84.728125 284.83562 95.900391 299.39062 95.900391 C 309.43563 95.900391 315.89266 91.902031 321.22266 85.957031 L 316.30273 81.550781 C 311.99773 86.060781 306.8732 89.033203 299.5957 89.033203 C 290.1657 89.033203 282.06891 82.575703 280.94141 71.095703 L 322.9668 71.095703 C 323.0693 70.173203 323.06836 69.558203 323.06836 68.533203 C 323.06836 53.055703 314.04773 40.550781 298.36523 40.550781 z M 356.87305 40.960938 C 349.18555 40.960938 343.44602 42.702188 337.60352 45.367188 L 339.96094 51.824219 C 344.88094 49.569219 349.80023 47.929688 356.05273 47.929688 C 365.99523 47.929688 371.83789 52.850313 371.83789 62.382812 L 371.83789 64.228516 C 367.12289 62.896016 362.30602 61.972656 355.54102 61.972656 C 342.11352 61.972656 332.88672 67.917344 332.88672 79.089844 L 332.88672 79.294922 C 332.88672 90.159922 342.82992 95.796875 352.66992 95.796875 C 361.99742 95.796875 368.14789 91.493281 371.83789 86.675781 L 371.83789 94.669922 L 379.42188 94.669922 L 379.42188 62.279297 C 379.42188 55.514297 377.57773 50.390234 373.99023 46.802734 C 370.09523 42.907734 364.35555 40.960938 356.87305 40.960938 z M 186.85547 41.677734 L 186.85547 94.669922 L 194.74805 94.669922 L 194.74805 41.677734 L 186.85547 41.677734 z M 298.16016 47.212891 C 308.71766 47.212891 314.25422 55.616953 315.07422 65.251953 L 280.94141 65.251953 C 281.96641 54.899453 288.93516 47.212891 298.16016 47.212891 z M 356.35938 67.814453 C 362.81687 67.814453 368.04445 68.942813 371.93945 70.070312 L 371.93945 75.195312 C 371.93945 83.600313 363.94453 89.544922 354.20703 89.544922 C 347.03203 89.544922 340.88281 85.650781 340.88281 78.988281 L 340.88281 78.783203 C 340.88281 72.120703 346.41688 67.814453 356.35938 67.814453 z M 512.44141 70.480469 C 516.23391 70.480469 519.71977 71.299297 522.38477 72.529297 L 522.38477 75.296875 C 522.38477 80.934375 517.465 84.933594 510.1875 84.933594 C 505.165 84.933594 501.67969 82.472031 501.67969 78.269531 L 501.67969 78.064453 C 501.67969 73.144453 505.77891 70.480469 512.44141 70.480469 z M 753.08008 70.480469 C 756.87258 70.480469 760.35844 71.299297 763.02344 72.529297 L 763.02344 75.296875 C 763.02344 80.934375 758.10367 84.933594 750.82617 84.933594 C 745.80367 84.933594 742.31836 82.472031 742.31836 78.269531 L 742.31836 78.064453 C 742.31836 73.144453 746.41758 70.480469 753.08008 70.480469 z "
       style="font-style:normal;font-variant:normal;font-weight:normal;font-stretch:normal;font-family:Gotham;-inkscape-font-specification:Gotham;letter-spacing:-0.89999998px;fill:#ffffff"
       id="path3414"
       d="m 887.50781,15.541016 -11.37695,18.142578 11.47852,0 13.32617,-12.300782 -13.42774,-5.841796 z m -690.19726,3.279296 -9.63477,14.863282 6.15039,0 11.6836,-11.070313 -8.19922,-3.792969 z m 252.51953,3.074219 c -14.6575,0 -25.11133,8.611406 -25.11133,21.628907 l 0,0.205078 c 0,14.2475 9.3268,18.243593 23.7793,21.933593 11.9925,3.075 14.45312,5.125547 14.45312,9.123047 l 0,0.205078 c 0,4.2025 -3.89601,6.765625 -10.35351,6.765625 -8.2,0 -14.96438,-3.38289 -21.42188,-8.71289 l -9.32812,11.171875 c 8.61,7.6875 19.57836,11.480468 30.44336,11.480468 15.4775,0 26.34179,-7.994687 26.34179,-22.242187 l 0,-0.205078 c 0,-12.505 -8.1989,-17.732891 -22.7539,-21.525391 -12.4025,-3.1775 -15.47852,-4.714687 -15.47852,-9.429687 l 0,-0.205078 c 0,-3.485 3.17711,-6.251953 9.22461,-6.251953 6.0475,0 12.30125,2.664765 18.65625,7.072265 l 8.19922,-11.890625 c -7.2775,-5.8425 -16.19539,-9.123047 -26.65039,-9.123047 z m -325.82227,1.025391 0,71.75 48.48242,0 0,-7.482422 -40.38476,0 0,-64.267578 -8.09766,0 z m 520.17578,0 0,71.75 15.47657,0 0,-46.535156 19.98828,30.339843 0.41015,0 20.19336,-30.646484 0,46.841797 15.68164,0 0,-71.75 -17.01562,0 -18.85938,30.339844 -18.85937,-30.339844 -17.01563,0 z m 190.60938,2.767578 0,14.042969 -6.55859,0 0,13.324219 6.55859,0 0,26.035156 c 0,12.71 6.45773,16.501953 15.99023,16.501953 5.2275,0 9.02078,-1.228281 12.30078,-3.175781 l 0,-12.50586 c -2.255,1.23 -4.8175,1.947266 -7.6875,1.947266 -3.485,0 -5.02343,-1.742578 -5.02343,-5.330078 l 0,-23.472656 12.91601,0 0,-13.324219 -12.91601,0 0,-14.042969 -15.58008,0 z M 581.32422,38.705078 c -7.8925,0 -12.50625,4.201953 -16.09375,8.814453 l 0,-7.789062 -15.58008,0 0,54.939453 15.58008,0 0,-30.646484 c 0,-7.380001 3.79328,-11.173829 9.73828,-11.173829 5.945,0 9.42969,3.793828 9.42969,11.173829 l 0,30.646484 15.58008,0 0,-35.566406 c 0,-12.6075 -6.8668,-20.398438 -18.6543,-20.398438 z m 242.07226,0 c -9.225,-0.41 -14.34984,4.510703 -17.52734,12.095703 l 0,-11.070312 -15.58008,0 0,54.939453 15.58008,0 0,-20.294922 c 0,-13.12 6.35453,-19.373047 16.70703,-19.373047 l 0.82031,0 0,-16.296875 z m 112.17969,0 c -7.8925,0 -12.50625,4.201953 -16.09375,8.814453 l 0,-7.789062 -15.58008,0 0,54.939453 15.58008,0 0,-30.646484 c 0,-7.380001 3.79328,-11.173829 9.73828,-11.173829 5.945,0 9.42969,3.793828 9.42969,11.173829 l 0,30.646484 15.58008,0 0,-35.566406 c 0,-12.6075 -6.8668,-20.398438 -18.6543,-20.398438 z m -422.92969,0.410156 c -9.3275,0 -15.27281,1.743204 -21.32031,4.408204 l 3.89649,11.888671 c 5.0225,-1.845 9.22492,-2.972656 15.16992,-2.972656 7.79,0 11.78711,3.587422 11.78711,10.044922 l 0,0.923828 c -3.895,-1.3325 -7.89274,-2.255859 -13.42774,-2.255859 -13.0175,0 -22.14062,5.534844 -22.14062,17.527344 l 0,0.205078 c 0,10.865 8.50883,16.810546 18.86133,16.810546 7.585,0 12.81101,-2.768203 16.60351,-6.970703 l 0,5.945313 15.06836,0 0,-31.876953 c 0,-7.38 -1.84531,-13.427344 -5.94531,-17.527344 -3.895,-3.895 -10.04524,-6.150391 -18.55274,-6.150391 z m 240.63868,0 c -9.3275,0 -15.27282,1.743204 -21.32032,4.408204 l 3.89454,11.888671 c 5.0225,-1.845 9.22687,-2.972656 15.17187,-2.972656 7.79,0 11.78711,3.587422 11.78711,10.044922 l 0,0.923828 c -3.895,-1.3325 -7.89274,-2.255859 -13.42774,-2.255859 -13.0175,0 -22.14062,5.534844 -22.14062,17.527344 l 0,0.205078 c 0,10.865 8.50688,16.810546 18.85938,16.810546 7.585,0 12.81296,-2.768203 16.60546,-6.970703 l 0,5.945313 15.06836,0 0,-31.876953 c 0,-7.38 -1.84531,-13.427344 -5.94531,-17.527344 -3.895,-3.895 -10.04523,-6.150391 -18.55273,-6.150391 z m 121.20507,0.615235 0,54.939453 15.58008,0 0,-54.939453 -15.58008,0 z m -635.29101,0.820312 c -9.1225,0 -14.65758,4.611563 -18.14258,10.351563 l 0,-9.22461 -7.89258,0 0,52.992188 7.89258,0 0,-30.339844 c 0,-9.9425 6.76617,-16.605469 15.88867,-16.605469 9.3275,0 14.65625,6.150235 14.65625,15.990235 l 0,30.955078 7.89258,0 0,-32.902344 c 0,-12.6075 -7.48242,-21.216797 -20.29492,-21.216797 z m 59.16601,0 c -14.6575,0 -25.41992,12.299766 -25.41992,27.572266 l 0,0.205078 c 0,16.4 11.89031,27.572266 26.44531,27.572266 10.04501,0 16.50204,-3.99836 21.83204,-9.94336 l -4.91993,-4.40625 c -4.305,4.51 -9.42953,7.482422 -16.70703,7.482422 -9.43,0 -17.52679,-6.4575 -18.65429,-17.9375 l 42.02539,0 c 0.1025,-0.9225 0.10156,-1.5375 0.10156,-2.5625 0,-15.4775 -9.02063,-27.982422 -24.70313,-27.982422 z m 58.50782,0.410157 c -7.6875,0 -13.42703,1.74125 -19.26953,4.40625 l 2.35742,6.457031 c 4.92,-2.255 9.83929,-3.894531 16.09179,-3.894531 9.9425,0 15.78516,4.920625 15.78516,14.453124 l 0,1.845704 c -4.715,-1.3325 -9.53187,-2.25586 -16.29687,-2.25586 -13.4275,0 -22.6543,5.944688 -22.6543,17.117188 l 0,0.205078 c 0,10.865 9.9432,16.501953 19.7832,16.501953 9.3275,0 15.47797,-4.303594 19.16797,-9.121094 l 0,7.994141 7.58399,0 0,-32.390625 c 0,-6.765 -1.84415,-11.889063 -5.43165,-15.476563 -3.895,-3.895 -9.63468,-5.841796 -17.11718,-5.841796 z m -170.01758,0.716796 0,52.992188 7.89258,0 0,-52.992188 -7.89258,0 z m 111.30469,5.535157 c 10.5575,0 16.09406,8.404062 16.91406,18.039062 l -34.13281,0 c 1.025,-10.3525 7.99375,-18.039062 17.21875,-18.039062 z m 58.19922,20.601562 c 6.45749,0 11.68507,1.12836 15.58007,2.255859 l 0,5.125 c 0,8.405001 -7.99492,14.34961 -17.73242,14.34961 -7.175,0 -13.32422,-3.894141 -13.32422,-10.556641 l 0,-0.205078 c 0,-6.6625 5.53407,-10.96875 15.47657,-10.96875 z m 156.08203,2.666016 c 3.7925,0 7.27836,0.818828 9.94336,2.048828 l 0,2.767578 c 0,5.6375 -4.91977,9.636719 -12.19727,9.636719 -5.0225,0 -8.50781,-2.461563 -8.50781,-6.664063 l 0,-0.205078 c 0,-4.92 4.09922,-7.583984 10.76172,-7.583984 z m 240.63867,0 c 3.7925,0 7.27836,0.818828 9.94336,2.048828 l 0,2.767578 c 0,5.6375 -4.91977,9.636719 -12.19727,9.636719 -5.0225,0 -8.50781,-2.461563 -8.50781,-6.664063 l 0,-0.205078 c 0,-4.92 4.09922,-7.583984 10.76172,-7.583984 z" />
  </g>
</svg>
