<?xml version="1.0" encoding="UTF-8" standalone="no"?>
<!-- Created with Inkscape (http://www.inkscape.org/) -->

<svg
   xmlns:dc="http://purl.org/dc/elements/1.1/"
   xmlns:cc="http://creativecommons.org/ns#"
   xmlns:rdf="http://www.w3.org/1999/02/22-rdf-syntax-ns#"
   xmlns:svg="http://www.w3.org/2000/svg"
   xmlns="http://www.w3.org/2000/svg"
   xmlns:sodipodi="http://sodipodi.sourceforge.net/DTD/sodipodi-0.dtd"
   xmlns:inkscape="http://www.inkscape.org/namespaces/inkscape"
   id="svg3336"
   version="1.1"
   inkscape:version="0.91 r13725"
   width="1078.75"
   height="112.5"
   viewBox="0 0 1078.75 112.5"
   sodipodi:docname="Sarmiento.svg">
  <metadata
     id="metadata3342">
    <rdf:RDF>
      <cc:Work
         rdf:about="">
        <dc:format>image/svg+xml</dc:format>
        <dc:type
           rdf:resource="http://purl.org/dc/dcmitype/StillImage" />
        <dc:title></dc:title>
        <cc:license
           rdf:resource="" />
      </cc:Work>
    </rdf:RDF>
  </metadata>
  <defs
     id="defs3340" />
  <sodipodi:namedview
     pagecolor="#000000"
     bordercolor="#666666"
     borderopacity="1"
     objecttolerance="10"
     gridtolerance="10"
     guidetolerance="10"
     inkscape:pageopacity="0"
     inkscape:pageshadow="2"
     inkscape:window-width="1366"
     inkscape:window-height="706"
     id="namedview3338"
     showgrid="false"
     inkscape:zoom="1.1179606"
     inkscape:cx="539.375"
     inkscape:cy="56.25"
     inkscape:window-x="-8"
     inkscape:window-y="-8"
     inkscape:window-maximized="1"
     inkscape:current-layer="layer1" />
  <g
     inkscape:groupmode="layer"
     id="layer1"
     inkscape:label="Vector"
     style="display:inline">
    <g
       style="font-style:normal;font-weight:normal;font-size:40px;line-height:125%;font-family:sans-serif;letter-spacing:0px;word-spacing:0px;fill:#ffffff;fill-opacity:1;stroke:none;stroke-width:1px;stroke-linecap:butt;stroke-linejoin:miter;stroke-opacity:1"
       id="text3333">
      <path
         sodipodi:type="inkscape:offset"
         inkscape:radius="0"
         inkscape:original="M 215.08789 18.291016 L 205.45312 33.154297 L 211.60156 33.154297 L 223.28711 22.083984 L 215.08789 18.291016 z M 705.17188 19.316406 L 705.17188 33.154297 L 721.57227 33.154297 L 721.57227 19.316406 L 705.17188 19.316406 z M 466.70703 21.365234 C 452.04953 21.365234 441.59375 29.976641 441.59375 42.994141 L 441.59375 43.199219 C 441.59375 57.446719 450.9225 61.442813 465.375 65.132812 C 477.3675 68.207813 479.82812 70.258359 479.82812 74.255859 L 479.82812 74.460938 C 479.82812 78.663438 475.93211 81.226562 469.47461 81.226562 C 461.27461 81.226562 454.51023 77.843672 448.05273 72.513672 L 438.72461 83.685547 C 447.33461 91.373047 458.30297 95.166016 469.16797 95.166016 C 484.64547 95.166016 495.50977 87.171328 495.50977 72.923828 L 495.50977 72.71875 C 495.50977 60.21375 487.30891 54.985859 472.75391 51.193359 C 460.35141 48.015859 457.27734 46.478672 457.27734 41.763672 L 457.27734 41.558594 C 457.27734 38.073594 460.45445 35.306641 466.50195 35.306641 C 472.54945 35.306641 478.80125 37.971406 485.15625 42.378906 L 493.35742 30.488281 C 486.07992 24.645781 477.16203 21.365234 466.70703 21.365234 z M 141.78516 22.390625 L 141.78516 94.140625 L 190.26758 94.140625 L 190.26758 86.658203 L 149.88281 86.658203 L 149.88281 22.390625 L 141.78516 22.390625 z M 862.48047 25.158203 L 862.48047 39.201172 L 855.92188 39.201172 L 855.92188 52.525391 L 862.48047 52.525391 L 862.48047 78.560547 C 862.48047 91.270547 868.9382 95.0625 878.4707 95.0625 C 883.6982 95.0625 887.49148 93.834219 890.77148 91.886719 L 890.77148 79.380859 C 888.51648 80.610859 885.95398 81.328125 883.08398 81.328125 C 879.59898 81.328125 878.06055 79.585547 878.06055 75.998047 L 878.06055 52.525391 L 890.97656 52.525391 L 890.97656 39.201172 L 878.06055 39.201172 L 878.06055 25.158203 L 862.48047 25.158203 z M 599.63477 38.175781 C 590.40977 37.765781 585.28492 42.686484 582.10742 50.271484 L 582.10742 39.201172 L 566.52734 39.201172 L 566.52734 94.140625 L 582.10742 94.140625 L 582.10742 73.845703 C 582.10742 60.725703 588.46195 54.472656 598.81445 54.472656 L 599.63477 54.472656 L 599.63477 38.175781 z M 640.24414 38.175781 C 632.35164 38.175781 627.63633 42.377734 624.04883 46.990234 L 624.04883 39.201172 L 608.46875 39.201172 L 608.46875 94.140625 L 624.04883 94.140625 L 624.04883 63.494141 C 624.04883 56.114141 627.63797 52.320312 633.48047 52.320312 C 639.32297 52.320312 642.60156 56.114141 642.60156 63.494141 L 642.60156 94.140625 L 658.18164 94.140625 L 658.18164 63.494141 C 658.18164 56.114141 661.76883 52.320312 667.61133 52.320312 C 673.45383 52.320312 676.73438 56.114141 676.73438 63.494141 L 676.73438 94.140625 L 692.31445 94.140625 L 692.31445 58.369141 C 692.31445 45.146641 685.34422 38.175781 673.76172 38.175781 C 666.27922 38.175781 660.54016 41.251172 655.72266 46.888672 C 652.85266 41.353672 647.41914 38.175781 640.24414 38.175781 z M 759.49219 38.175781 C 743.50219 38.175781 732.33008 51.090938 732.33008 66.773438 L 732.33008 66.978516 C 732.33008 83.788516 744.5268 95.371094 761.0293 95.371094 C 770.9718 95.371094 778.35156 91.476094 783.47656 85.121094 L 774.56055 77.228516 C 770.25555 81.226016 766.46188 82.865234 761.23438 82.865234 C 754.26437 82.865234 749.34414 79.176016 747.80664 72.103516 L 786.03906 72.103516 C 786.14156 70.668516 786.24414 69.233906 786.24414 68.003906 C 786.24414 52.423906 777.83969 38.175781 759.49219 38.175781 z M 828.62891 38.175781 C 820.73641 38.175781 816.12461 42.377734 812.53711 46.990234 L 812.53711 39.201172 L 796.95703 39.201172 L 796.95703 94.140625 L 812.53711 94.140625 L 812.53711 63.494141 C 812.53711 56.114141 816.32844 52.320312 822.27344 52.320312 C 828.21844 52.320312 831.70312 56.114141 831.70312 63.494141 L 831.70312 94.140625 L 847.2832 94.140625 L 847.2832 58.574219 C 847.2832 45.966719 840.41641 38.175781 828.62891 38.175781 z M 927.02148 38.175781 C 909.90398 38.175781 897.19336 50.988438 897.19336 66.773438 L 897.19336 66.978516 C 897.19336 82.763516 909.80141 95.371094 926.81641 95.371094 C 943.93391 95.371094 956.64258 82.558437 956.64258 66.773438 L 956.64258 66.568359 C 956.64258 50.783359 944.03648 38.175781 927.02148 38.175781 z M 529.52344 38.585938 C 520.19594 38.585938 514.25062 40.329141 508.20312 42.994141 L 512.09961 54.882812 C 517.12211 53.037813 521.32453 51.910156 527.26953 51.910156 C 535.05953 51.910156 539.05664 55.497578 539.05664 61.955078 L 539.05664 62.878906 C 535.16164 61.546406 531.16391 60.623047 525.62891 60.623047 C 512.61141 60.623047 503.48828 66.157891 503.48828 78.150391 L 503.48828 78.355469 C 503.48828 89.220469 511.99711 95.166016 522.34961 95.166016 C 529.93461 95.166016 535.16062 92.397813 538.95312 88.195312 L 538.95312 94.140625 L 554.02148 94.140625 L 554.02148 62.263672 C 554.02148 54.883672 552.17617 48.836328 548.07617 44.736328 C 544.18117 40.841328 538.03094 38.585938 529.52344 38.585938 z M 705.58203 39.201172 L 705.58203 94.140625 L 721.16211 94.140625 L 721.16211 39.201172 L 705.58203 39.201172 z M 256.97656 40.021484 C 247.85406 40.021484 242.31898 44.633047 238.83398 50.373047 L 238.83398 41.148438 L 230.94141 41.148438 L 230.94141 94.140625 L 238.83398 94.140625 L 238.83398 63.800781 C 238.83398 53.858281 245.5982 47.195312 254.7207 47.195312 C 264.0482 47.195312 269.37891 53.345547 269.37891 63.185547 L 269.37891 94.140625 L 277.27148 94.140625 L 277.27148 61.238281 C 277.27148 48.630781 269.78906 40.021484 256.97656 40.021484 z M 316.14258 40.021484 C 301.48508 40.021484 290.72266 52.32125 290.72266 67.59375 L 290.72266 67.798828 C 290.72266 84.198828 302.61297 95.371094 317.16797 95.371094 C 327.21297 95.371094 333.67 91.372734 339 85.427734 L 334.08008 81.021484 C 329.77508 85.531484 324.65055 88.503906 317.37305 88.503906 C 307.94305 88.503906 299.8443 82.046406 298.7168 70.566406 L 340.74219 70.566406 C 340.84469 69.643906 340.8457 69.028906 340.8457 68.003906 C 340.8457 52.526406 331.82508 40.021484 316.14258 40.021484 z M 374.64844 40.431641 C 366.96094 40.431641 361.22141 42.172891 355.37891 44.837891 L 357.73633 51.294922 C 362.65633 49.039922 367.57758 47.400391 373.83008 47.400391 C 383.77258 47.400391 389.61523 52.321016 389.61523 61.853516 L 389.61523 63.699219 C 384.90023 62.366719 380.08141 61.443359 373.31641 61.443359 C 359.88891 61.443359 350.66406 67.388047 350.66406 78.560547 L 350.66406 78.765625 C 350.66406 89.630625 360.60727 95.267578 370.44727 95.267578 C 379.77477 95.267578 385.92523 90.963984 389.61523 86.146484 L 389.61523 94.140625 L 397.19922 94.140625 L 397.19922 61.75 C 397.19922 54.985 395.35508 49.860937 391.76758 46.273438 C 387.87258 42.378437 382.13094 40.431641 374.64844 40.431641 z M 204.63281 41.148438 L 204.63281 94.140625 L 212.52539 94.140625 L 212.52539 41.148438 L 204.63281 41.148438 z M 315.9375 46.683594 C 326.495 46.683594 332.02961 55.087656 332.84961 64.722656 L 298.7168 64.722656 C 299.7418 54.370156 306.7125 46.683594 315.9375 46.683594 z M 759.49219 50.681641 C 766.05219 50.681641 770.15172 55.395234 771.07422 62.365234 L 747.60156 62.365234 C 748.83156 55.292734 753.03469 50.681641 759.49219 50.681641 z M 926.81641 51.603516 C 935.42641 51.603516 941.26758 58.675937 941.26758 66.773438 L 941.26758 66.978516 C 941.26758 75.076016 935.93898 81.943359 927.02148 81.943359 C 918.41148 81.943359 912.56836 74.870937 912.56836 66.773438 L 912.56836 66.568359 C 912.56836 58.470859 917.89891 51.603516 926.81641 51.603516 z M 374.13672 67.285156 C 380.59422 67.285156 385.8218 68.413516 389.7168 69.541016 L 389.7168 74.666016 C 389.7168 83.071016 381.72188 89.015625 371.98438 89.015625 C 364.80937 89.015625 358.66016 85.121484 358.66016 78.458984 L 358.66016 78.253906 C 358.66016 71.591406 364.19422 67.285156 374.13672 67.285156 z M 529.31836 69.951172 C 533.11086 69.951172 536.59672 70.77 539.26172 72 L 539.26172 74.767578 C 539.26172 80.405078 534.34195 84.404297 527.06445 84.404297 C 522.04195 84.404297 518.55664 81.942734 518.55664 77.740234 L 518.55664 77.535156 C 518.55664 72.615156 522.65586 69.951172 529.31836 69.951172 z "
         style="letter-spacing:-0.89999998px;fill:#ffffff"
         id="path3764"
         d="m 215.08789,18.291016 -9.63477,14.863281 6.14844,0 11.68555,-11.070313 -8.19922,-3.792968 z m 490.08399,1.02539 0,13.837891 16.40039,0 0,-13.837891 -16.40039,0 z m -238.46485,2.048828 c -14.6575,0 -25.11328,8.611407 -25.11328,21.628907 l 0,0.205078 c 0,14.2475 9.32875,18.243594 23.78125,21.933593 11.9925,3.075001 14.45312,5.125547 14.45312,9.123047 l 0,0.205079 c 0,4.2025 -3.89601,6.765624 -10.35351,6.765624 -8.2,0 -14.96438,-3.38289 -21.42188,-8.71289 l -9.32812,11.171875 c 8.61,7.6875 19.57836,11.480469 30.44336,11.480469 15.4775,0 26.3418,-7.994688 26.3418,-22.242188 l 0,-0.205078 c 0,-12.505 -8.20086,-17.732891 -22.75586,-21.525391 -12.4025,-3.1775 -15.47657,-4.714687 -15.47657,-9.429687 l 0,-0.205078 c 0,-3.485 3.17711,-6.251953 9.22461,-6.251953 6.0475,0 12.2993,2.664765 18.6543,7.072265 l 8.20117,-11.890625 c -7.2775,-5.8425 -16.19539,-9.123047 -26.65039,-9.123047 z m -324.92187,1.025391 0,71.75 48.48242,0 0,-7.482422 -40.38477,0 0,-64.267578 -8.09765,0 z m 720.69531,2.767578 0,14.042969 -6.55859,0 0,13.324219 6.55859,0 0,26.035156 c 0,12.71 6.45773,16.501953 15.99023,16.501953 5.2275,0 9.02078,-1.228281 12.30078,-3.175781 l 0,-12.50586 c -2.255,1.23 -4.8175,1.947266 -7.6875,1.947266 -3.485,0 -5.02343,-1.742578 -5.02343,-5.330078 l 0,-23.472656 12.91601,0 0,-13.324219 -12.91601,0 0,-14.042969 -15.58008,0 z m -262.8457,13.017578 c -9.225,-0.41 -14.34985,4.510703 -17.52735,12.095703 l 0,-11.070312 -15.58008,0 0,54.939453 15.58008,0 0,-20.294922 c 0,-13.12 6.35453,-19.373047 16.70703,-19.373047 l 0.82032,0 0,-16.296875 z m 40.60937,0 c -7.8925,0 -12.60781,4.201953 -16.19531,8.814453 l 0,-7.789062 -15.58008,0 0,54.939453 15.58008,0 0,-30.646484 c 0,-7.38 3.58914,-11.173829 9.43164,-11.173829 5.8425,0 9.12109,3.793829 9.12109,11.173829 l 0,30.646484 15.58008,0 0,-30.646484 c 0,-7.38 3.58719,-11.173829 9.42969,-11.173829 5.8425,0 9.12305,3.793829 9.12305,11.173829 l 0,30.646484 15.58007,0 0,-35.771484 c 0,-13.2225 -6.97023,-20.19336 -18.55273,-20.19336 -7.4825,0 -13.22156,3.075391 -18.03906,8.712891 -2.87,-5.535 -8.30352,-8.712891 -15.47852,-8.712891 z m 119.24805,0 c -15.99,0 -27.16211,12.915157 -27.16211,28.597657 l 0,0.205078 c 0,16.81 12.19672,28.392578 28.69922,28.392578 9.9425,0 17.32226,-3.895 22.44726,-10.25 l -8.91601,-7.892578 c -4.305,3.9975 -8.09867,5.636718 -13.32617,5.636718 -6.97001,0 -11.89024,-3.689218 -13.42774,-10.761718 l 38.23242,0 c 0.1025,-1.435 0.20508,-2.86961 0.20508,-4.09961 0,-15.58 -8.40445,-29.828125 -26.75195,-29.828125 z m 69.13672,0 c -7.8925,0 -12.5043,4.201953 -16.0918,8.814453 l 0,-7.789062 -15.58008,0 0,54.939453 15.58008,0 0,-30.646484 c 0,-7.38 3.79133,-11.173829 9.73633,-11.173829 5.945,0 9.42968,3.793829 9.42968,11.173829 l 0,30.646484 15.58008,0 0,-35.566406 c 0,-12.6075 -6.86679,-20.398438 -18.65429,-20.398438 z m 98.39257,0 c -17.1175,0 -29.82812,12.812657 -29.82812,28.597657 l 0,0.205078 c 0,15.785 12.60805,28.392578 29.62305,28.392578 17.1175,0 29.82617,-12.812657 29.82617,-28.597656 l 0,-0.205079 c 0,-15.785 -12.6061,-28.392578 -29.6211,-28.392578 z m -397.49804,0.410157 c -9.3275,0 -15.27282,1.743203 -21.32032,4.408203 l 3.89649,11.888671 c 5.0225,-1.844999 9.22492,-2.972656 15.16992,-2.972656 7.79,0 11.78711,3.587422 11.78711,10.044922 l 0,0.923828 c -3.895,-1.3325 -7.89273,-2.255859 -13.42773,-2.255859 -13.0175,0 -22.14063,5.534844 -22.14063,17.527344 l 0,0.205078 c 0,10.865 8.50883,16.810547 18.86133,16.810547 7.585,0 12.81101,-2.768203 16.60351,-6.970704 l 0,5.945313 15.06836,0 0,-31.876953 c 0,-7.38 -1.84531,-13.427344 -5.94531,-17.527344 -3.895,-3.895 -10.04523,-6.15039 -18.55273,-6.15039 z m 176.05859,0.615234 0,54.939453 15.58008,0 0,-54.939453 -15.58008,0 z m -448.60547,0.820312 c -9.1225,0 -14.65758,4.611563 -18.14258,10.351563 l 0,-9.224609 -7.89257,0 0,52.992187 7.89257,0 0,-30.339844 c 0,-9.9425 6.76422,-16.605469 15.88672,-16.605469 9.3275,0 14.65821,6.150235 14.65821,15.990235 l 0,30.955078 7.89257,0 0,-32.902344 c 0,-12.6075 -7.48242,-21.216797 -20.29492,-21.216797 z m 59.16602,0 c -14.6575,0 -25.41992,12.299766 -25.41992,27.572266 l 0,0.205078 c 0,16.4 11.89031,27.572266 26.44531,27.572266 10.045,0 16.50203,-3.99836 21.83203,-9.94336 l -4.91992,-4.40625 c -4.305,4.51 -9.42953,7.482422 -16.70703,7.482422 -9.43,0 -17.52875,-6.4575 -18.65625,-17.9375 l 42.02539,0 c 0.1025,-0.9225 0.10351,-1.5375 0.10351,-2.5625 0,-15.4775 -9.02062,-27.982422 -24.70312,-27.982422 z m 58.50586,0.410157 c -7.6875,0 -13.42703,1.74125 -19.26953,4.40625 l 2.35742,6.457031 c 4.92,-2.255 9.84125,-3.894531 16.09375,-3.894531 9.9425,0 15.78515,4.920625 15.78515,14.453125 l 0,1.845703 c -4.715,-1.3325 -9.53382,-2.25586 -16.29882,-2.25586 -13.4275,0 -22.65235,5.944688 -22.65235,17.117188 l 0,0.205078 c 0,10.865 9.94321,16.501953 19.78321,16.501953 9.3275,0 15.47796,-4.303594 19.16796,-9.121094 l 0,7.994141 7.58399,0 0,-32.390625 c 0,-6.765 -1.84414,-11.889063 -5.43164,-15.476562 -3.895,-3.895001 -9.63664,-5.841797 -17.11914,-5.841797 z m -170.01563,0.716797 0,52.992187 7.89258,0 0,-52.992187 -7.89258,0 z m 111.30469,5.535156 c 10.5575,0 16.09211,8.404062 16.91211,18.039062 l -34.13281,0 c 1.025,-10.3525 7.9957,-18.039062 17.2207,-18.039062 z m 443.55469,3.998047 c 6.56,0 10.65953,4.713593 11.58203,11.683593 l -23.47266,0 c 1.23,-7.0725 5.43313,-11.683593 11.89063,-11.683593 z m 167.32422,0.921875 c 8.61,0 14.45117,7.072421 14.45117,15.169922 l 0,0.205078 c 0,8.0975 -5.3286,14.964843 -14.2461,14.964843 -8.61,0 -14.45312,-7.072422 -14.45312,-15.169921 l 0,-0.205079 c 0,-8.0975 5.33055,-14.964843 14.24805,-14.964843 z m -552.67969,15.68164 c 6.4575,0 11.68508,1.12836 15.58008,2.25586 l 0,5.125 c 0,8.405 -7.99492,14.349609 -17.73242,14.349609 -7.17501,0 -13.32422,-3.894141 -13.32422,-10.556641 l 0,-0.205078 c 0,-6.6625 5.53406,-10.96875 15.47656,-10.96875 z m 155.18164,2.666016 c 3.7925,0 7.27836,0.818828 9.94336,2.048828 l 0,2.767578 c 0,5.6375 -4.91977,9.636719 -12.19727,9.636719 -5.0225,0 -8.50781,-2.461563 -8.50781,-6.664063 l 0,-0.205078 c 0,-4.92 4.09922,-7.583984 10.76172,-7.583984 z" />
    </g>
  </g>
</svg>
