<?xml version="1.0" encoding="UTF-8" standalone="no"?>
<!-- Created with Inkscape (http://www.inkscape.org/) -->

<svg
   xmlns:dc="http://purl.org/dc/elements/1.1/"
   xmlns:cc="http://creativecommons.org/ns#"
   xmlns:rdf="http://www.w3.org/1999/02/22-rdf-syntax-ns#"
   xmlns:svg="http://www.w3.org/2000/svg"
   xmlns="http://www.w3.org/2000/svg"
   xmlns:sodipodi="http://sodipodi.sourceforge.net/DTD/sodipodi-0.dtd"
   xmlns:inkscape="http://www.inkscape.org/namespaces/inkscape"
   id="svg3418"
   version="1.1"
   inkscape:version="0.91 r13725"
   width="1078.75"
   height="112.5"
   viewBox="0 0 1078.75 112.5"
   sodipodi:docname="TrenDeLaCosta.svg">
  <metadata
     id="metadata3424">
    <rdf:RDF>
      <cc:Work
         rdf:about="">
        <dc:format>image/svg+xml</dc:format>
        <dc:type
           rdf:resource="http://purl.org/dc/dcmitype/StillImage" />
        <dc:title></dc:title>
      </cc:Work>
    </rdf:RDF>
  </metadata>
  <defs
     id="defs3422" />
  <sodipodi:namedview
     pagecolor="#000000"
     bordercolor="#666666"
     borderopacity="1"
     objecttolerance="10"
     gridtolerance="10"
     guidetolerance="10"
     inkscape:pageopacity="0"
     inkscape:pageshadow="2"
     inkscape:window-width="1366"
     inkscape:window-height="706"
     id="namedview3420"
     showgrid="false"
     inkscape:zoom="1.1179606"
     inkscape:cx="539.375"
     inkscape:cy="10.045151"
     inkscape:window-x="-8"
     inkscape:window-y="-8"
     inkscape:window-maximized="1"
     inkscape:current-layer="layer1" />
  <g
     inkscape:groupmode="layer"
     id="layer1"
     inkscape:label="Vector"
     style="display:inline">
    <g
       style="font-style:normal;font-weight:normal;font-size:102.5px;line-height:125%;font-family:sans-serif;letter-spacing:0px;word-spacing:0px;fill:#000000;fill-opacity:1;stroke:none;stroke-width:1px;stroke-linecap:butt;stroke-linejoin:miter;stroke-opacity:1"
       id="text3333">
      <path
         sodipodi:type="inkscape:offset"
         inkscape:radius="0"
         inkscape:original="M 426.86328 20.638672 L 426.86328 47.369141 C 423.21828 43.015391 418.15633 39.269531 409.95508 39.269531 C 397.09633 39.269531 385.25 49.192656 385.25 67.316406 L 385.25 67.517578 C 385.25 85.641328 397.29883 95.564453 409.95508 95.564453 C 417.95383 95.564453 423.11703 91.818359 426.86328 86.755859 L 426.86328 94.550781 L 442.25391 94.550781 L 442.25391 20.638672 L 426.86328 20.638672 z M 543.66016 20.638672 L 543.66016 94.550781 L 559.05078 94.550781 L 559.05078 20.638672 L 543.66016 20.638672 z M 693.71484 22.460938 C 671.94609 22.460938 656.75781 38.964531 656.75781 59.113281 L 656.75781 59.316406 C 656.75781 79.667656 672.24992 95.767578 693.10742 95.767578 C 706.77617 95.767578 714.87602 90.907578 722.16602 83.111328 L 712.24414 73.085938 C 706.67539 78.148438 701.71328 81.388672 693.61328 81.388672 C 681.46328 81.388672 673.06055 71.263281 673.06055 59.113281 L 673.06055 58.912109 C 673.06055 46.762109 681.66578 36.839844 693.61328 36.839844 C 700.70078 36.839844 706.27078 39.876641 711.73828 44.837891 L 721.66016 33.396484 C 715.07891 26.916484 707.07984 22.460938 693.71484 22.460938 z M 147.27344 23.675781 L 147.27344 31.068359 L 171.06641 31.068359 L 171.06641 94.550781 L 179.16602 94.550781 L 179.16602 31.068359 L 202.96094 31.068359 L 202.96094 23.675781 L 147.27344 23.675781 z M 845.94141 26.410156 L 845.94141 40.28125 L 839.46094 40.28125 L 839.46094 53.443359 L 845.94141 53.443359 L 845.94141 79.162109 C 845.94141 91.717109 852.32008 95.462891 861.73633 95.462891 C 866.90008 95.462891 870.64672 94.247969 873.88672 92.324219 L 873.88672 79.972656 C 871.65922 81.187656 869.12797 81.894531 866.29297 81.894531 C 862.85047 81.894531 861.33203 80.174609 861.33203 76.630859 L 861.33203 53.443359 L 874.08789 53.443359 L 874.08789 40.28125 L 861.33203 40.28125 L 861.33203 26.410156 L 845.94141 26.410156 z M 478.40234 39.269531 C 462.60734 39.269531 451.57031 52.026328 451.57031 67.517578 L 451.57031 67.720703 C 451.57031 84.325703 463.61867 95.767578 479.91992 95.767578 C 489.74117 95.767578 497.03125 91.920078 502.09375 85.642578 L 493.28516 77.845703 C 489.03266 81.794453 485.2868 83.414062 480.12305 83.414062 C 473.23805 83.414062 468.37813 79.769453 466.85938 72.783203 L 504.625 72.783203 C 504.72625 71.365703 504.82812 69.947422 504.82812 68.732422 C 504.82812 53.342422 496.52609 39.269531 478.40234 39.269531 z M 756.9707 39.269531 C 740.06195 39.269531 727.50781 51.925078 727.50781 67.517578 L 727.50781 67.720703 C 727.50781 83.313203 739.96008 95.767578 756.76758 95.767578 C 773.67633 95.767578 786.23242 83.110078 786.23242 67.517578 L 786.23242 67.316406 C 786.23242 51.723906 773.7782 39.269531 756.9707 39.269531 z M 813.80273 39.472656 C 802.86773 39.472656 793.95703 45.647344 793.95703 56.683594 L 793.95703 56.886719 C 793.95703 67.416719 802.5625 70.96 810.15625 73.1875 C 816.13 75.01 821.39648 76.123594 821.39648 79.464844 L 821.39648 79.667969 C 821.39648 82.097969 819.37102 83.71875 814.91602 83.71875 C 809.85352 83.71875 803.67719 81.490781 797.80469 77.238281 L 791.22266 87.363281 C 798.41141 93.033281 806.91797 95.564453 814.51172 95.564453 C 826.25672 95.564453 835.26758 90.097578 835.26758 78.048828 L 835.26758 77.845703 C 835.26758 67.923203 826.45898 64.277344 818.86523 61.746094 C 812.99273 59.721094 807.82812 58.305078 807.82812 55.267578 L 807.82812 55.064453 C 807.82812 52.938203 809.7518 51.318359 813.49805 51.318359 C 817.4468 51.318359 822.81344 53.242109 828.17969 56.380859 L 834.05273 45.75 C 828.18023 41.80125 820.68773 39.472656 813.80273 39.472656 z M 594.18164 39.673828 C 584.96789 39.673828 579.09484 41.394844 573.12109 44.027344 L 576.96875 55.773438 C 581.93 53.950938 586.08062 52.835938 591.95312 52.835938 C 599.64813 52.835938 603.59766 56.381016 603.59766 62.759766 L 603.59766 63.669922 C 599.75016 62.353672 595.80148 61.443359 590.33398 61.443359 C 577.47523 61.443359 568.46289 66.909609 568.46289 78.755859 L 568.46289 78.958984 C 568.46289 89.691484 576.8675 95.564453 587.09375 95.564453 C 594.58625 95.564453 599.74984 92.830938 603.49609 88.679688 L 603.49609 94.550781 L 618.38086 94.550781 L 618.38086 63.0625 C 618.38086 55.7725 616.55781 49.8 612.50781 45.75 C 608.66031 41.9025 602.58539 39.673828 594.18164 39.673828 z M 905.91211 39.673828 C 896.69836 39.673828 890.82531 41.394844 884.85156 44.027344 L 888.69922 55.773438 C 893.66047 53.950938 897.81109 52.835938 903.68359 52.835938 C 911.37859 52.835938 915.32812 56.381016 915.32812 62.759766 L 915.32812 63.669922 C 911.48063 62.353672 907.53195 61.443359 902.06445 61.443359 C 889.2057 61.443359 880.19336 66.909609 880.19336 78.755859 L 880.19336 78.958984 C 880.19336 89.691484 888.59797 95.564453 898.82422 95.564453 C 906.31672 95.564453 911.48031 92.830938 915.22656 88.679688 L 915.22656 94.550781 L 930.10938 94.550781 L 930.10938 63.0625 C 930.10938 55.7725 928.28828 49.8 924.23828 45.75 C 920.39078 41.9025 914.31586 39.673828 905.91211 39.673828 z M 264.40625 41.091797 C 249.9275 41.091797 239.29688 53.241875 239.29688 68.328125 L 239.29688 68.53125 C 239.29688 84.73125 251.04242 95.767578 265.41992 95.767578 C 275.34242 95.767578 281.72133 91.817813 286.98633 85.945312 L 282.125 81.591797 C 277.8725 86.046797 272.80984 88.982422 265.62109 88.982422 C 256.30609 88.982422 248.30711 82.603672 247.19336 71.263672 L 288.70703 71.263672 C 288.80828 70.352422 288.80859 69.744922 288.80859 68.732422 C 288.80859 53.443672 279.8975 41.091797 264.40625 41.091797 z M 326.27344 41.091797 C 317.26219 41.091797 311.79406 45.648359 308.35156 51.318359 L 308.35156 42.205078 L 300.55664 42.205078 L 300.55664 94.550781 L 308.35156 94.550781 L 308.35156 64.582031 C 308.35156 54.760781 315.03562 48.179688 324.04688 48.179688 C 333.26063 48.179688 338.52539 54.254609 338.52539 63.974609 L 338.52539 94.550781 L 346.32031 94.550781 L 346.32031 62.050781 C 346.32031 49.597031 338.92969 41.091797 326.27344 41.091797 z M 234.83789 41.294922 C 224.91539 40.889922 217.32016 47.1675 213.47266 55.875 L 213.47266 42.205078 L 205.67773 42.205078 L 205.67773 94.550781 L 213.47266 94.550781 L 213.47266 73.693359 C 213.47266 57.898359 222.78922 49.697266 234.23047 49.697266 L 234.83789 49.697266 L 234.83789 41.294922 z M 264.20508 47.673828 C 274.63383 47.673828 280.10016 55.974688 280.91016 65.492188 L 247.19336 65.492188 C 248.20586 55.265937 255.09258 47.673828 264.20508 47.673828 z M 478.40234 51.621094 C 484.88234 51.621094 488.9325 56.279062 489.84375 63.164062 L 466.65625 63.164062 C 467.87125 56.177813 472.02359 51.621094 478.40234 51.621094 z M 413.9043 52.330078 C 421.09305 52.330078 427.06641 58.305156 427.06641 67.316406 L 427.06641 67.517578 C 427.06641 76.528828 421.09305 82.503906 413.9043 82.503906 C 406.71555 82.503906 400.64062 76.528828 400.64062 67.517578 L 400.64062 67.316406 C 400.64062 58.203906 406.71555 52.330078 413.9043 52.330078 z M 756.76758 52.533203 C 765.27258 52.533203 771.04492 59.518828 771.04492 67.517578 L 771.04492 67.720703 C 771.04492 75.719453 765.77945 82.503906 756.9707 82.503906 C 748.4657 82.503906 742.69531 75.516328 742.69531 67.517578 L 742.69531 67.316406 C 742.69531 59.317656 747.95883 52.533203 756.76758 52.533203 z M 593.97852 70.65625 C 597.72477 70.65625 601.16828 71.466641 603.80078 72.681641 L 603.80078 75.416016 C 603.80078 80.984766 598.9407 84.933594 591.75195 84.933594 C 586.7907 84.933594 583.34766 82.502812 583.34766 78.351562 L 583.34766 78.148438 C 583.34766 73.288438 587.39727 70.65625 593.97852 70.65625 z M 905.70898 70.65625 C 909.45523 70.65625 912.8968 71.466641 915.5293 72.681641 L 915.5293 75.416016 C 915.5293 80.984766 910.66922 84.933594 903.48047 84.933594 C 898.51922 84.933594 895.07812 82.502812 895.07812 78.351562 L 895.07812 78.148438 C 895.07812 73.288438 899.12773 70.65625 905.70898 70.65625 z "
         style="font-style:normal;font-variant:normal;font-weight:normal;font-stretch:normal;font-size:101.25px;font-family:Gotham;-inkscape-font-specification:Gotham;letter-spacing:-1.89999998px;fill:#ffffff"
         id="path3389"
         d="m 426.86328,20.638672 0,26.730469 c -3.645,-4.35375 -8.70695,-8.09961 -16.9082,-8.09961 -12.85875,0 -24.70508,9.923125 -24.70508,28.046875 l 0,0.201172 c 0,18.12375 12.04883,28.046875 24.70508,28.046875 7.99875,0 13.16195,-3.746094 16.9082,-8.808594 l 0,7.794922 15.39063,0 0,-73.912109 -15.39063,0 z m 116.79688,0 0,73.912109 15.39062,0 0,-73.912109 -15.39062,0 z m 150.05468,1.822266 c -21.76875,0 -36.95703,16.503593 -36.95703,36.652343 l 0,0.203125 c 0,20.35125 15.49211,36.451172 36.34961,36.451172 13.66875,0 21.7686,-4.86 29.0586,-12.65625 l -9.92188,-10.02539 c -5.56875,5.0625 -10.53086,8.302734 -18.63086,8.302734 -12.15,0 -20.55273,-10.125391 -20.55273,-22.275391 l 0,-0.201172 c 0,-12.15 8.60523,-22.072265 20.55273,-22.072265 7.0875,0 12.6575,3.036797 18.125,7.998047 l 9.92188,-11.441407 c -6.58125,-6.48 -14.58032,-10.935546 -27.94532,-10.935546 z m -546.4414,1.214843 0,7.392578 23.79297,0 0,63.482422 8.09961,0 0,-63.482422 23.79492,0 0,-7.392578 -55.6875,0 z m 698.66797,2.734375 0,13.871094 -6.48047,0 0,13.162109 6.48047,0 0,25.71875 c 0,12.555 6.37867,16.300782 15.79492,16.300782 5.16375,0 8.91039,-1.214922 12.15039,-3.138672 l 0,-12.351563 c -2.2275,1.215 -4.75875,1.921875 -7.59375,1.921875 -3.4425,0 -4.96094,-1.719922 -4.96094,-5.263672 l 0,-23.1875 12.75586,0 0,-13.162109 -12.75586,0 0,-13.871094 -15.39062,0 z M 478.40234,39.269531 c -15.795,0 -26.83203,12.756797 -26.83203,28.248047 l 0,0.203125 c 0,16.605 12.04836,28.046875 28.34961,28.046875 9.82125,0 17.11133,-3.8475 22.17383,-10.125 l -8.80859,-7.796875 c -4.2525,3.94875 -7.99836,5.568359 -13.16211,5.568359 -6.885,0 -11.74492,-3.644609 -13.26367,-10.630859 l 37.76562,0 c 0.10125,-1.4175 0.20312,-2.835781 0.20312,-4.050781 0,-15.39 -8.30203,-29.462891 -26.42578,-29.462891 z m 278.56836,0 c -16.90875,0 -29.46289,12.655547 -29.46289,28.248047 l 0,0.203125 c 0,15.5925 12.45227,28.046875 29.25977,28.046875 16.90875,0 29.46484,-12.6575 29.46484,-28.25 l 0,-0.201172 c 0,-15.5925 -12.45422,-28.046875 -29.26172,-28.046875 z m 56.83203,0.203125 c -10.935,0 -19.8457,6.174688 -19.8457,17.210938 l 0,0.203125 c 0,10.53 8.60547,14.073281 16.19922,16.300781 5.97375,1.8225 11.24023,2.936094 11.24023,6.277344 l 0,0.203125 c 0,2.43 -2.02546,4.050781 -6.48046,4.050781 -5.0625,0 -11.23883,-2.227969 -17.11133,-6.480469 l -6.58203,10.125 c 7.18875,5.67 15.69531,8.201172 23.28906,8.201172 11.745,0 20.75586,-5.466875 20.75586,-17.515625 l 0,-0.203125 c 0,-9.9225 -8.8086,-13.568359 -16.40235,-16.099609 -5.8725,-2.025 -11.03711,-3.441016 -11.03711,-6.478516 l 0,-0.203125 c 0,-2.12625 1.92368,-3.746094 5.66993,-3.746094 3.94875,0 9.31539,1.92375 14.68164,5.0625 L 834.05273,45.75 c -5.8725,-3.94875 -13.365,-6.277344 -20.25,-6.277344 z m -219.62109,0.201172 c -9.21375,0 -15.0868,1.721016 -21.06055,4.353516 l 3.84766,11.746094 c 4.96125,-1.8225 9.11187,-2.9375 14.98437,-2.9375 7.69501,0 11.64454,3.545078 11.64454,9.923828 l 0,0.910156 c -3.8475,-1.31625 -7.79618,-2.226563 -13.26368,-2.226563 -12.85875,0 -21.87109,5.46625 -21.87109,17.3125 l 0,0.203125 c 0,10.7325 8.40461,16.605469 18.63086,16.605469 7.4925,0 12.65609,-2.733515 16.40234,-6.884765 l 0,5.871093 14.88477,0 0,-31.488281 c 0,-7.29 -1.82305,-13.2625 -5.87305,-17.3125 -3.8475,-3.8475 -9.92242,-6.076172 -18.32617,-6.076172 z m 311.73047,0 c -9.21375,0 -15.0868,1.721016 -21.06055,4.353516 l 3.84766,11.746094 c 4.96125,-1.8225 9.11187,-2.9375 14.98437,-2.9375 7.695,0 11.64453,3.545078 11.64453,9.923828 l 0,0.910156 c -3.84749,-1.31625 -7.79617,-2.226563 -13.26367,-2.226563 -12.85875,0 -21.87109,5.46625 -21.87109,17.3125 l 0,0.203125 c 0,10.7325 8.40461,16.605469 18.63086,16.605469 7.4925,0 12.65609,-2.733515 16.40234,-6.884765 l 0,5.871093 14.88282,0 0,-31.488281 c 0,-7.29 -1.8211,-13.2625 -5.8711,-17.3125 -3.8475,-3.8475 -9.92242,-6.076172 -18.32617,-6.076172 z m -641.50586,1.417969 c -14.47875,0 -25.10937,12.150078 -25.10937,27.236328 l 0,0.203125 c 0,16.2 11.74554,27.236328 26.12304,27.236328 9.9225,0 16.30141,-3.949765 21.56641,-9.822266 L 282.125,81.591797 c -4.2525,4.455 -9.31516,7.390625 -16.50391,7.390625 -9.315,0 -17.31398,-6.37875 -18.42773,-17.71875 l 41.51367,0 c 0.10125,-0.91125 0.10156,-1.51875 0.10156,-2.53125 0,-15.28875 -8.91109,-27.640625 -24.40234,-27.640625 z m 61.86719,0 c -9.01125,0 -14.47938,4.556562 -17.92188,10.226562 l 0,-9.113281 -7.79492,0 0,52.345703 7.79492,0 0,-29.96875 c 0,-9.82125 6.68406,-16.402343 15.69532,-16.402343 9.21375,0 14.47851,6.074921 14.47851,15.794921 l 0,30.576172 7.79492,0 0,-32.5 c 0,-12.45375 -7.39062,-20.958984 -20.04687,-20.958984 z m -91.43555,0.203125 c -9.9225,-0.405 -17.51773,5.872578 -21.36523,14.580078 l 0,-13.669922 -7.79493,0 0,52.345703 7.79493,0 0,-20.857422 c 0,-15.795 9.31656,-23.996093 20.75781,-23.996093 l 0.60742,0 0,-8.402344 z m 29.36719,6.378906 c 10.42875,0 15.89508,8.30086 16.70508,17.81836 l -33.7168,0 c 1.0125,-10.226251 7.89922,-17.81836 17.01172,-17.81836 z m 214.19726,3.947266 c 6.48,0 10.53016,4.657968 11.44141,11.542968 l -23.1875,0 c 1.215,-6.986249 5.36734,-11.542968 11.74609,-11.542968 z m -64.49804,0.708984 c 7.18875,0 13.16211,5.975078 13.16211,14.986328 l 0,0.201172 c 0,9.01125 -5.97336,14.986328 -13.16211,14.986328 -7.18875,0 -13.26368,-5.975078 -13.26368,-14.986328 l 0,-0.201172 c 0,-9.1125 6.07493,-14.986328 13.26368,-14.986328 z m 342.86328,0.203125 c 8.505,0 14.27734,6.985625 14.27734,14.984375 l 0,0.203125 c 0,7.99875 -5.26547,14.783203 -14.07422,14.783203 -8.505,0 -14.27539,-6.987578 -14.27539,-14.986328 l 0,-0.201172 c 0,-7.99875 5.26352,-14.783203 14.07227,-14.783203 z M 593.97852,70.65625 c 3.74625,0 7.18976,0.810391 9.82226,2.025391 l 0,2.734375 c 0,5.56875 -4.86008,9.517578 -12.04883,9.517578 -4.96125,0 -8.40429,-2.430782 -8.40429,-6.582032 l 0,-0.203124 c 0,-4.86 4.04961,-7.492188 10.63086,-7.492188 z m 311.73046,0 c 3.74625,0 7.18782,0.810391 9.82032,2.025391 l 0,2.734375 c 0,5.56875 -4.86008,9.517578 -12.04883,9.517578 -4.96125,0 -8.40235,-2.430782 -8.40235,-6.582032 l 0,-0.203124 c 0,-4.86 4.04961,-7.492188 10.63086,-7.492188 z" />
    </g>
  </g>
</svg>
