<?xml version="1.0" encoding="UTF-8" standalone="no"?>
<!-- Created with Inkscape (http://www.inkscape.org/) -->

<svg
   xmlns:dc="http://purl.org/dc/elements/1.1/"
   xmlns:cc="http://creativecommons.org/ns#"
   xmlns:rdf="http://www.w3.org/1999/02/22-rdf-syntax-ns#"
   xmlns:svg="http://www.w3.org/2000/svg"
   xmlns="http://www.w3.org/2000/svg"
   xmlns:sodipodi="http://sodipodi.sourceforge.net/DTD/sodipodi-0.dtd"
   xmlns:inkscape="http://www.inkscape.org/namespaces/inkscape"
   id="svg3388"
   version="1.1"
   inkscape:version="0.91 r13725"
   width="2304"
   height="648"
   viewBox="0 0 2304 648"
   sodipodi:docname="brand.svg">
  <metadata
     id="metadata3394">
    <rdf:RDF>
      <cc:Work
         rdf:about="">
        <dc:format>image/svg+xml</dc:format>
        <dc:type
           rdf:resource="http://purl.org/dc/dcmitype/StillImage" />
        <dc:title />
      </cc:Work>
    </rdf:RDF>
  </metadata>
  <defs
     id="defs3392" />
  <sodipodi:namedview
     pagecolor="#ffffff"
     bordercolor="#666666"
     borderopacity="1"
     objecttolerance="10"
     gridtolerance="10"
     guidetolerance="10"
     inkscape:pageopacity="0"
     inkscape:pageshadow="2"
     inkscape:window-width="1024"
     inkscape:window-height="557"
     id="namedview3390"
     showgrid="false"
     inkscape:zoom="0.37"
     inkscape:cx="1149.7678"
     inkscape:cy="118.89772"
     inkscape:window-x="0"
     inkscape:window-y="0"
     inkscape:window-maximized="1"
     inkscape:current-layer="g4168" />
  <g
     inkscape:groupmode="layer"
     id="layer1"
     inkscape:label="Layer 1"
     style="display:none">
    <g
       style="font-style:normal;font-weight:normal;font-size:102.5px;line-height:125%;font-family:sans-serif;letter-spacing:0px;word-spacing:0px;fill:#ffffff;fill-opacity:1;stroke:#000000;stroke-width:10;stroke-linecap:butt;stroke-linejoin:miter;stroke-miterlimit:4;stroke-dasharray:none;stroke-opacity:1"
       id="text3334">
      <path
         sodipodi:type="inkscape:offset"
         inkscape:radius="0"
         inkscape:original="M 54.542969 147.96094 L 54.542969 495.0625 L 107.19336 495.0625 L 107.19336 348.32422 L 251.49219 348.32422 L 251.49219 301.03711 L 107.19336 301.03711 L 107.19336 195.25 L 276.35547 195.25 L 276.35547 147.96094 L 54.542969 147.96094 z M 1553.5859 147.96094 L 1553.5859 337.59961 L 1598.9238 337.59961 C 1604.2863 320.53711 1619.8871 306.39844 1648.1621 306.39844 C 1688.1371 306.39844 1698.8613 337.59961 1698.8613 379.03711 C 1698.8613 402.43711 1696.9121 425.34961 1682.2871 439.97461 C 1673.5121 448.74961 1660.8359 453.625 1646.2109 453.625 C 1615.0109 453.625 1599.4117 436.07383 1595.5117 405.36133 L 1545.7871 405.36133 C 1547.7371 430.22383 1553.5863 453.13711 1572.1113 471.66211 C 1587.2238 486.77461 1613.0609 498.47461 1646.2109 498.47461 C 1679.8484 498.47461 1703.7359 486.77383 1719.3359 471.17383 C 1744.6859 445.82383 1748.5859 416.08711 1748.5859 379.03711 C 1748.5859 346.37461 1744.6863 312.73711 1718.3613 286.41211 C 1704.2238 272.27461 1683.2609 263.98633 1655.9609 263.98633 C 1630.6109 263.98633 1610.1355 271.78711 1598.4355 283.97461 L 1598.4355 192.32422 L 1740.7871 192.32422 L 1740.7871 147.96094 L 1553.5859 147.96094 z M 1752.0176 147.96094 L 1752.0176 495.0625 L 1804.668 495.0625 L 1804.668 343.44922 L 1945.5547 343.44922 L 1945.5547 495.0625 L 1998.2051 495.0625 L 1998.2051 147.96094 L 1945.5547 147.96094 L 1945.5547 296.16211 L 1804.668 296.16211 L 1804.668 147.96094 L 1752.0176 147.96094 z M 2012.1992 147.96094 L 2012.1992 495.0625 L 2134.0742 495.0625 C 2170.1492 495.0625 2201.8359 484.33594 2223.7734 462.39844 C 2261.3109 424.86094 2258.873 369.28672 2258.873 319.07422 C 2258.873 268.86172 2261.3109 218.1625 2223.7734 180.625 C 2201.8359 158.6875 2170.1492 147.96094 2134.0742 147.96094 L 2012.1992 147.96094 z M 1242.6895 177.21094 L 1242.6895 252.28711 L 1214.4141 252.28711 L 1214.4141 290.3125 L 1242.6895 290.3125 L 1242.6895 426.32422 C 1242.6895 461.91172 1264.1387 495.0625 1310.4512 495.0625 L 1340.1895 495.0625 L 1340.1895 452.64844 L 1319.7148 452.64844 C 1301.1898 452.64844 1292.4141 441.92422 1292.4141 423.88672 L 1292.4141 290.3125 L 1340.1895 290.3125 L 1340.1895 252.28711 L 1292.4141 252.28711 L 1292.4141 177.21094 L 1242.6895 177.21094 z M 2064.8477 195.25 L 2128.7109 195.25 C 2153.5734 195.25 2173.0742 202.56094 2187.6992 218.64844 C 2205.7367 238.63594 2206.2227 271.29922 2206.2227 319.07422 C 2206.2227 366.84922 2205.7367 404.3875 2187.6992 424.375 C 2173.0742 440.4625 2153.5734 447.77344 2128.7109 447.77344 L 2064.8477 447.77344 L 2064.8477 195.25 z M 366.09375 244.97461 C 302.71875 244.97461 261.28125 291.28633 261.28125 371.23633 C 261.28125 465.32383 310.51914 497.98633 372.43164 497.98633 C 415.81914 497.98633 439.70664 484.82461 465.05664 459.47461 L 433.36914 429.73633 C 415.81914 447.28633 401.19375 455.08594 373.40625 455.08594 C 332.94375 455.08594 310.51953 428.27383 310.51953 385.86133 L 470.90625 385.86133 L 470.90625 363.92383 C 470.90625 293.72383 432.39375 244.97461 366.09375 244.97461 z M 593.41211 244.97461 C 565.62461 244.97461 540.27461 257.16094 527.59961 274.71094 L 527.59961 247.89844 L 478.84961 247.89844 L 478.84961 495.0625 L 528.57422 495.0625 L 528.57422 344.91211 C 528.57422 310.78711 551 289.33594 577.8125 289.33594 C 594.875 289.33594 603.65078 294.69961 614.86328 305.91211 L 652.40039 268.375 C 635.33789 251.3125 617.29961 244.97461 593.41211 244.97461 z M 770.88672 244.97461 C 746.02422 244.97461 721.64922 254.72422 705.07422 272.76172 L 705.07422 247.89844 L 656.32422 247.89844 L 656.32422 495.0625 L 706.04883 495.0625 L 706.04883 344.42383 C 706.04883 306.39883 729.44883 289.33594 757.23633 289.33594 C 785.02383 289.33594 806.96094 305.91133 806.96094 344.42383 L 806.96094 495.0625 L 856.68555 495.0625 L 856.68555 341.98633 C 856.68555 306.39883 881.06055 289.33594 907.87305 289.33594 C 935.66055 289.33594 957.59766 305.91133 957.59766 344.42383 L 957.59766 495.0625 L 1007.3242 495.0625 L 1007.3242 337.11133 C 1007.3242 309.32383 1000.0105 285.92344 980.99805 267.39844 C 966.37305 253.26094 943.94766 244.97461 918.59766 244.97461 C 885.93516 244.97461 861.07344 256.67383 841.08594 281.04883 C 825.48594 257.16133 801.59922 244.97461 770.88672 244.97461 z M 1120.5801 244.97461 C 1086.9426 244.97461 1063.0562 257.64961 1046.9688 274.22461 C 1023.5688 298.59961 1017.7188 329.79883 1017.7188 371.23633 C 1017.7188 413.16133 1023.5688 444.36133 1046.9688 468.73633 C 1063.0563 485.31133 1086.9426 497.98633 1120.5801 497.98633 C 1154.2176 497.98633 1178.5922 485.31133 1194.6797 468.73633 C 1218.0797 444.36133 1223.9297 413.16133 1223.9297 371.23633 C 1223.9297 329.79883 1218.0797 298.59961 1194.6797 274.22461 C 1178.5922 257.64961 1154.2176 244.97461 1120.5801 244.97461 z M 1438.3027 244.97461 C 1404.6652 244.97461 1380.7789 257.64961 1364.6914 274.22461 C 1341.2914 298.59961 1335.4414 329.79883 1335.4414 371.23633 C 1335.4414 413.16133 1341.2914 444.36133 1364.6914 468.73633 C 1380.7789 485.31133 1404.6652 497.98633 1438.3027 497.98633 C 1471.9402 497.98633 1496.3148 485.31133 1512.4023 468.73633 C 1535.8023 444.36133 1541.6523 413.16133 1541.6523 371.23633 C 1541.6523 329.79883 1535.8023 298.59961 1512.4023 274.22461 C 1496.3148 257.64961 1471.9402 244.97461 1438.3027 244.97461 z M 366.09375 286.41211 C 389.49375 286.41211 407.04375 299.08633 414.84375 317.61133 C 419.71875 328.82383 421.18242 336.1375 421.66992 351.25 L 310.51953 351.25 C 311.00703 336.1375 311.98242 328.82383 316.85742 317.61133 C 324.65742 299.08633 342.69375 286.41211 366.09375 286.41211 z M 1120.5801 289.33594 C 1135.2051 289.33594 1147.8801 294.21211 1157.1426 303.47461 C 1172.2551 318.58711 1174.2051 344.42383 1174.2051 371.23633 C 1174.2051 398.04883 1172.2551 423.8875 1157.1426 439 C 1147.8801 448.2625 1135.2051 453.625 1120.5801 453.625 C 1105.9551 453.625 1093.7684 448.2625 1084.5059 439 C 1069.3934 423.8875 1067.4434 398.04883 1067.4434 371.23633 C 1067.4434 344.42383 1069.3934 318.58711 1084.5059 303.47461 C 1093.7684 294.21211 1105.9551 289.33594 1120.5801 289.33594 z M 1438.3027 289.33594 C 1452.9277 289.33594 1465.6027 294.21211 1474.8652 303.47461 C 1489.9777 318.58711 1491.9277 344.42383 1491.9277 371.23633 C 1491.9277 398.04883 1489.9777 423.8875 1474.8652 439 C 1465.6027 448.2625 1452.9277 453.625 1438.3027 453.625 C 1423.6777 453.625 1411.491 448.2625 1402.2285 439 C 1387.116 423.8875 1385.166 398.04883 1385.166 371.23633 C 1385.166 344.42383 1387.116 318.58711 1402.2285 303.47461 C 1411.491 294.21211 1423.6777 289.33594 1438.3027 289.33594 z "
         style="letter-spacing:-76.88005066px;fill:#ffffff;fill-opacity:1;stroke:#282828;stroke-width:10;stroke-miterlimit:4;stroke-dasharray:none;stroke-opacity:0.52996844"
         id="path3384"
         d="m 54.542969,147.96094 0,347.10156 52.650391,0 0,-146.73828 144.29883,0 0,-47.28711 -144.29883,0 0,-105.78711 169.16211,0 0,-47.28906 -221.812501,0 z m 1499.042931,0 0,189.63867 45.3379,0 c 5.3625,-17.0625 20.9633,-31.20117 49.2383,-31.20117 39.975,0 50.6992,31.20117 50.6992,72.63867 0,23.4 -1.9492,46.3125 -16.5742,60.9375 -8.775,8.775 -21.4512,13.65039 -36.0762,13.65039 -31.2,0 -46.7992,-17.55117 -50.6992,-48.26367 l -49.7246,0 c 1.95,24.8625 7.7992,47.77578 26.3242,66.30078 15.1125,15.1125 40.9496,26.8125 74.0996,26.8125 33.6375,0 57.525,-11.70078 73.125,-27.30078 25.35,-25.35 29.25,-55.08672 29.25,-92.13672 0,-32.6625 -3.8996,-66.3 -30.2246,-92.625 -14.1375,-14.1375 -35.1004,-22.42578 -62.4004,-22.42578 -25.35,0 -45.8254,7.80078 -57.5254,19.98828 l 0,-91.65039 142.3516,0 0,-44.36328 -187.2012,0 z m 198.4317,0 0,347.10156 52.6504,0 0,-151.61328 140.8867,0 0,151.61328 52.6504,0 0,-347.10156 -52.6504,0 0,148.20117 -140.8867,0 0,-148.20117 -52.6504,0 z m 260.1816,0 0,347.10156 121.875,0 c 36.075,0 67.7617,-10.72656 89.6992,-32.66406 37.5375,-37.5375 35.0996,-93.11172 35.0996,-143.32422 0,-50.2125 2.4379,-100.91172 -35.0996,-138.44922 -21.9375,-21.9375 -53.6242,-32.66406 -89.6992,-32.66406 l -121.875,0 z m -769.5097,29.25 0,75.07617 -28.2754,0 0,38.02539 28.2754,0 0,136.01172 c 0,35.5875 21.4492,68.73828 67.7617,68.73828 l 29.7383,0 0,-42.41406 -20.4747,0 c -18.525,0 -27.3007,-10.72422 -27.3007,-28.76172 l 0,-133.57422 47.7754,0 0,-38.02539 -47.7754,0 0,-75.07617 -49.7246,0 z m 822.1582,18.03906 63.8632,0 c 24.8625,0 44.3633,7.31094 58.9883,23.39844 18.0375,19.9875 18.5235,52.65078 18.5235,100.42578 0,47.775 -0.486,85.31328 -18.5235,105.30078 -14.625,16.0875 -34.1258,23.39844 -58.9883,23.39844 l -63.8632,0 0,-252.52344 z M 366.09375,244.97461 c -63.375,0 -104.8125,46.31172 -104.8125,126.26172 0,94.0875 49.23789,126.75 111.15039,126.75 43.3875,0 67.275,-13.16172 92.625,-38.51172 l -31.6875,-29.73828 c -17.55,17.55 -32.17539,25.34961 -59.96289,25.34961 -40.4625,0 -62.88672,-26.81211 -62.88672,-69.22461 l 160.38672,0 0,-21.9375 c 0,-70.2 -38.5125,-118.94922 -104.8125,-118.94922 z m 227.31836,0 c -27.7875,0 -53.1375,12.18633 -65.8125,29.73633 l 0,-26.8125 -48.75,0 0,247.16406 49.72461,0 0,-150.15039 c 0,-34.125 22.42578,-55.57617 49.23828,-55.57617 17.0625,0 25.83828,5.36367 37.05078,16.57617 L 652.40039,268.375 c -17.0625,-17.0625 -35.10078,-23.40039 -58.98828,-23.40039 z m 177.47461,0 c -24.8625,0 -49.2375,9.74961 -65.8125,27.78711 l 0,-24.86328 -48.75,0 0,247.16406 49.72461,0 0,-150.63867 c 0,-38.025 23.4,-55.08789 51.1875,-55.08789 27.7875,0 49.72461,16.57539 49.72461,55.08789 l 0,150.63867 49.72461,0 0,-153.07617 c 0,-35.5875 24.375,-52.65039 51.1875,-52.65039 27.7875,0 49.72461,16.57539 49.72461,55.08789 l 0,150.63867 49.72654,0 0,-157.95117 c 0,-27.7875 -7.3137,-51.18789 -26.32615,-69.71289 -14.625,-14.1375 -37.05039,-22.42383 -62.40039,-22.42383 -32.6625,0 -57.52422,11.69922 -77.51172,36.07422 -15.6,-23.8875 -39.48672,-36.07422 -70.19922,-36.07422 z m 349.69338,0 c -33.6375,0 -57.5239,12.675 -73.6113,29.25 -23.4,24.375 -29.25,55.57422 -29.25,97.01172 0,41.925 5.85,73.125 29.25,97.5 16.0875,16.575 39.9738,29.25 73.6113,29.25 33.6375,0 58.0121,-12.675 74.0996,-29.25 23.4,-24.375 29.25,-55.575 29.25,-97.5 0,-41.4375 -5.85,-72.63672 -29.25,-97.01172 -16.0875,-16.575 -40.4621,-29.25 -74.0996,-29.25 z m 317.7226,0 c -33.6375,0 -57.5238,12.675 -73.6113,29.25 -23.4,24.375 -29.25,55.57422 -29.25,97.01172 0,41.925 5.85,73.125 29.25,97.5 16.0875,16.575 39.9738,29.25 73.6113,29.25 33.6375,0 58.0121,-12.675 74.0996,-29.25 23.4,-24.375 29.25,-55.575 29.25,-97.5 0,-41.4375 -5.85,-72.63672 -29.25,-97.01172 -16.0875,-16.575 -40.4621,-29.25 -74.0996,-29.25 z m -1072.20895,41.4375 c 23.4,0 40.95,12.67422 48.75,31.19922 4.875,11.2125 6.33867,18.52617 6.82617,33.63867 l -111.15039,0 c 0.4875,-15.1125 1.46289,-22.42617 6.33789,-33.63867 7.8,-18.525 25.83633,-31.19922 49.23633,-31.19922 z m 754.48635,2.92383 c 14.625,0 27.3,4.87617 36.5625,14.13867 15.1125,15.1125 17.0625,40.94922 17.0625,67.76172 0,26.8125 -1.95,52.65117 -17.0625,67.76367 -9.2625,9.2625 -21.9375,14.625 -36.5625,14.625 -14.625,0 -26.8117,-5.3625 -36.0742,-14.625 -15.1125,-15.1125 -17.0625,-40.95117 -17.0625,-67.76367 0,-26.8125 1.95,-52.64922 17.0625,-67.76172 9.2625,-9.2625 21.4492,-14.13867 36.0742,-14.13867 z m 317.7226,0 c 14.625,0 27.3,4.87617 36.5625,14.13867 15.1125,15.1125 17.0625,40.94922 17.0625,67.76172 0,26.8125 -1.95,52.65117 -17.0625,67.76367 -9.2625,9.2625 -21.9375,14.625 -36.5625,14.625 -14.625,0 -26.8117,-5.3625 -36.0742,-14.625 -15.1125,-15.1125 -17.0625,-40.95117 -17.0625,-67.76367 0,-26.8125 1.95,-52.64922 17.0625,-67.76172 9.2625,-9.2625 21.4492,-14.13867 36.0742,-14.13867 z" />
    </g>
  </g>
  <g
     inkscape:groupmode="layer"
     id="layer2"
     inkscape:label="Gidole"
     sodipodi:insensitive="true"
     style="display:none">
    <text
       xml:space="preserve"
       style="font-style:normal;font-weight:normal;font-size:40px;line-height:125%;font-family:sans-serif;letter-spacing:0px;word-spacing:0px;fill:#ffffff;fill-opacity:1;stroke:#000000;stroke-width:12;stroke-linecap:butt;stroke-linejoin:miter;stroke-miterlimit:4;stroke-dasharray:none;stroke-opacity:0.48936169"
       x="46.408859"
       y="494.56912"
       id="text3346"
       sodipodi:linespacing="125%"><tspan
         sodipodi:role="line"
         id="tspan3348"
         x="46.408859"
         y="494.56912"
         style="font-style:normal;font-variant:normal;font-weight:normal;font-stretch:normal;font-size:500px;font-family:Gidole;-inkscape-font-specification:Gidole;letter-spacing:-45px;fill:#ffffff;fill-opacity:1;stroke:#000000;stroke-width:12;stroke-miterlimit:4;stroke-dasharray:none;stroke-opacity:0.48936169">Fe<tspan
   style="letter-spacing:-35px;stroke-width:12;stroke-miterlimit:4;stroke-dasharray:none"
   id="tspan4162">r</tspan>mot<tspan
   style="letter-spacing:-65px;stroke-width:12;stroke-miterlimit:4;stroke-dasharray:none"
   id="tspan4166">o5H</tspan>D</tspan></text>
  </g>
  <g
     inkscape:label="Gidole rasterized"
     id="g4168"
     inkscape:groupmode="layer">
    <g
       style="font-style:normal;font-weight:normal;font-size:40px;line-height:125%;font-family:sans-serif;letter-spacing:0px;word-spacing:0px;fill:#ffffff;fill-opacity:1;stroke:#000000;stroke-width:12;stroke-linecap:butt;stroke-linejoin:miter;stroke-miterlimit:4;stroke-dasharray:none;stroke-opacity:0.48936169"
       id="text4170">
      <path
         sodipodi:type="inkscape:offset"
         inkscape:radius="0"
         inkscape:original="M 90.353516 148.86523 L 90.353516 494.56836 L 128.43945 494.56836 L 128.43945 335.38867 L 256.36914 335.38867 L 256.36914 301.20898 L 128.43945 301.20898 L 128.43945 183.04492 L 275.90039 183.04492 L 275.90039 148.86523 L 90.353516 148.86523 z M 1534.8848 148.86523 L 1534.8848 319.03125 L 1564.6699 333.19141 C 1581.9225 321.79818 1600.3958 316.10156 1620.0898 316.10156 C 1639.9466 316.10156 1655.7344 323.10026 1667.4531 337.09766 C 1679.3346 351.09505 1685.2754 368.91731 1685.2754 390.56445 C 1685.2754 411.72331 1679.416 429.4642 1667.6973 443.78711 C 1656.1413 457.94727 1640.2721 465.02734 1620.0898 465.02734 C 1594.6992 465.02734 1571.1803 454.36654 1549.5332 433.04492 L 1525.3633 459.16797 C 1537.0821 470.88672 1551.0795 480.48958 1567.3555 487.97656 C 1583.6315 495.46354 1601.2096 499.20703 1620.0898 499.20703 C 1650.8516 499.20703 1675.7539 488.87175 1694.7969 468.20117 C 1713.8399 447.36784 1723.3613 421.48893 1723.3613 390.56445 C 1723.3613 359.47721 1714.0026 333.84245 1695.2852 313.66016 C 1676.7305 293.3151 1654.1068 283.14258 1627.4141 283.14258 C 1607.2318 283.14258 1589.084 287.29297 1572.9707 295.59375 L 1572.9707 183.04492 L 1704.3184 183.04492 L 1704.3184 148.86523 L 1534.8848 148.86523 z M 1735.5098 148.86523 L 1735.5098 494.56836 L 1773.5957 494.56836 L 1773.5957 335.38867 L 1922.0332 335.38867 L 1922.0332 494.56836 L 1960.1191 494.56836 L 1960.1191 148.86523 L 1922.0332 148.86523 L 1922.0332 301.20898 L 1773.5957 301.20898 L 1773.5957 148.86523 L 1735.5098 148.86523 z M 1983.0098 148.86523 L 1983.0098 494.56836 L 2070.6562 494.56836 C 2095.0703 494.56836 2113.7064 492.69661 2126.5645 488.95312 C 2141.5384 484.55859 2154.3151 477.23438 2164.8945 466.98047 C 2175.6367 456.5638 2184.0189 444.60091 2190.041 431.0918 C 2194.4355 421.00065 2197.7722 408.95638 2200.0508 394.95898 C 2202.3294 380.79882 2203.6315 369.08007 2203.957 359.80273 C 2204.2826 350.52539 2204.4453 337.83008 2204.4453 321.7168 C 2204.4453 305.60352 2204.2826 292.90821 2203.957 283.63086 C 2203.6315 274.35352 2202.3294 262.71615 2200.0508 248.71875 C 2197.7722 234.5586 2194.4355 222.43294 2190.041 212.3418 C 2184.0189 198.83268 2175.6367 186.95117 2164.8945 176.69727 C 2154.3151 166.2806 2141.5384 158.875 2126.5645 154.48047 C 2113.7064 150.73698 2095.0703 148.86523 2070.6562 148.86523 L 1983.0098 148.86523 z M 1214.709 173.2793 L 1214.709 230.4082 L 1178.0879 230.4082 L 1178.0879 260.68164 L 1214.709 260.68164 L 1214.709 420.59375 C 1214.709 440.61328 1215.6041 453.7155 1217.3945 459.90039 C 1220.9753 472.27018 1227.4857 481.79166 1236.9258 488.46484 C 1246.5286 495.13802 1258.2474 498.47461 1272.082 498.47461 C 1286.0794 498.47461 1300.8906 495.05664 1316.5156 488.2207 L 1302.3555 457.94727 C 1292.2643 463.1556 1282.987 465.75977 1274.5234 465.75977 C 1264.2695 465.75977 1257.2708 461.28386 1253.5273 452.33203 C 1252.0625 448.7513 1251.3301 438.17188 1251.3301 420.59375 L 1251.3301 260.68164 L 1300.1582 260.68164 L 1300.1582 230.4082 L 1251.3301 230.4082 L 1251.3301 173.2793 L 1214.709 173.2793 z M 2021.0957 183.04492 L 2070.6562 183.04492 C 2078.957 183.04492 2085.4674 183.1263 2090.1875 183.28906 C 2095.0703 183.45182 2101.0111 184.26563 2108.0098 185.73047 C 2115.1712 187.03256 2121.0306 188.98568 2125.5879 191.58984 C 2131.2846 194.84505 2136.3301 198.91406 2140.7246 203.79688 C 2145.1191 208.67969 2148.6999 213.5625 2151.4668 218.44531 C 2154.3965 223.16536 2156.8379 229.26888 2158.791 236.75586 C 2160.7441 244.08008 2162.209 250.50912 2163.1855 256.04297 C 2164.1621 261.41406 2164.8945 268.6569 2165.3828 277.77148 C 2165.8711 286.88606 2166.1152 294.04753 2166.1152 299.25586 C 2166.278 304.30143 2166.3594 311.78841 2166.3594 321.7168 C 2166.3594 331.64518 2166.278 339.21354 2166.1152 344.42188 C 2166.1152 349.46745 2165.8711 356.54753 2165.3828 365.66211 C 2164.8945 374.7767 2164.1621 382.10091 2163.1855 387.63477 C 2162.209 393.00586 2160.7441 399.43489 2158.791 406.92188 C 2156.8379 414.24609 2154.3965 420.34962 2151.4668 425.23242 C 2148.6999 429.95248 2145.1191 434.75391 2140.7246 439.63672 C 2136.3301 444.51953 2131.2846 448.58854 2125.5879 451.84375 C 2121.0306 454.44792 2115.1712 456.48242 2108.0098 457.94727 C 2101.0111 459.24935 2095.0703 459.98177 2090.1875 460.14453 C 2085.4674 460.30729 2078.957 460.38867 2070.6562 460.38867 L 2021.0957 460.38867 L 2021.0957 183.04492 z M 372.99023 226.50195 C 351.99414 226.50195 333.43945 231.87305 317.32617 242.61523 C 301.37565 253.35742 289.98242 267.68034 283.14648 285.58398 C 280.37956 293.07096 278.26367 301.45313 276.79883 310.73047 C 275.49675 319.84506 274.68294 327.65756 274.35742 334.16797 C 274.19466 340.51563 274.11328 349.95573 274.11328 362.48828 C 274.11328 377.78776 274.27604 389.58789 274.60156 397.88867 C 275.08984 406.0267 276.79883 416.03646 279.72852 427.91797 C 282.82096 439.79948 287.37825 450.05339 293.40039 458.67969 C 301.86393 471.04948 313.33855 480.8151 327.82422 487.97656 C 342.3099 494.97526 358.99284 498.47461 377.87305 498.47461 C 404.89128 498.47461 432.80469 491.72005 461.61328 478.21094 L 447.69727 447.9375 C 422.79493 459.81901 399.52019 465.75977 377.87305 465.75977 C 353.62175 465.75977 335.88086 457.70312 324.65039 441.58984 C 320.41862 435.5677 317.16341 428.08073 314.88477 419.12891 C 312.76888 410.01432 311.54818 402.2832 311.22266 395.93555 C 310.89714 389.42513 310.73438 380.88021 310.73438 370.30078 L 471.86719 370.30078 L 471.86719 362.24414 C 471.86719 341.89909 471.3789 326.68099 470.40234 316.58984 C 469.58854 306.33594 467.14714 296.08203 463.07812 285.82812 C 456.07943 267.92448 444.44206 253.60156 428.16602 242.85938 C 412.05274 231.95443 393.66081 226.50195 372.99023 226.50195 z M 594.34766 226.50195 C 570.58464 226.50195 549.83268 237.08138 532.0918 258.24023 L 532.0918 230.4082 L 495.4707 230.4082 L 495.4707 494.56836 L 532.0918 494.56836 L 532.0918 337.58594 C 532.0918 315.61328 533.88216 300.31381 537.46289 291.6875 C 541.5319 281.75911 548.12369 273.86523 557.23828 268.00586 C 566.35286 262.14649 577.09505 259.2168 589.46484 259.2168 C 593.85938 259.2168 601.18359 259.94922 611.4375 261.41406 L 616.80859 229.1875 C 608.50781 227.39714 601.02084 226.50195 594.34766 226.50195 z M 729.26953 226.50195 C 705.66927 226.50195 684.91732 236.83724 667.01367 257.50781 L 667.01367 230.4082 L 630.39258 230.4082 L 630.39258 494.56836 L 667.01367 494.56836 L 667.01367 339.05078 C 667.01367 328.95964 667.09505 321.63542 667.25781 317.07812 C 667.42057 312.35807 667.99024 307.23112 668.9668 301.69727 C 669.94336 296.16341 671.40821 291.36198 673.36133 287.29297 C 677.5931 278.50391 684.02214 271.66797 692.64844 266.78516 C 701.4375 261.73958 711.20313 259.2168 721.94531 259.2168 C 732.6875 259.2168 742.37175 261.73958 750.99805 266.78516 C 759.78711 271.66797 766.29753 278.50391 770.5293 287.29297 C 772.48242 291.36198 773.94727 296.16341 774.92383 301.69727 C 775.90039 307.23112 776.47005 312.35807 776.63281 317.07812 C 776.79557 321.63542 776.87695 328.95964 776.87695 339.05078 L 776.87695 494.56836 L 813.49805 494.56836 L 813.49805 339.05078 C 813.49805 328.95964 813.57943 321.63542 813.74219 317.07812 C 813.90495 312.35807 814.47461 307.23112 815.45117 301.69727 C 816.42773 296.16341 817.89258 291.36198 819.8457 287.29297 C 824.07748 278.50391 830.50651 271.66797 839.13281 266.78516 C 847.92187 261.73958 857.6875 259.2168 868.42969 259.2168 C 879.17187 259.2168 888.85612 261.73958 897.48242 266.78516 C 906.27148 271.66797 912.7819 278.50391 917.01367 287.29297 C 918.9668 291.36198 920.43164 296.16341 921.4082 301.69727 C 922.38476 307.23112 922.95443 312.35807 923.11719 317.07812 C 923.27995 321.63542 923.36133 328.95964 923.36133 339.05078 L 923.36133 494.56836 L 959.98242 494.56836 L 959.98242 336.60938 C 959.98242 327.49479 959.90104 320.57748 959.73828 315.85742 C 959.57552 311.13738 959.00586 305.35938 958.0293 298.52344 C 957.05274 291.52474 955.50651 285.25846 953.39062 279.72461 C 947.20573 263.12305 937.11459 250.10222 923.11719 240.66211 C 909.28255 231.22201 893.49479 226.50195 875.75391 226.50195 C 859.96615 226.50195 845.56185 230.24545 832.54102 237.73242 C 819.52018 245.05664 808.69661 255.22917 800.07031 268.25 C 793.39713 255.22917 783.95703 245.05664 771.75 237.73242 C 759.54297 230.24545 745.38281 226.50195 729.26953 226.50195 z M 1085.8809 226.50195 C 1069.7676 226.50195 1055.1191 229.35026 1041.9355 235.04688 C 1028.7519 240.58073 1017.9284 247.98633 1009.4648 257.26367 C 1002.9544 264.42513 997.66471 272.23763 993.5957 280.70117 C 989.68945 289.00196 986.92252 298.36068 985.29492 308.77734 C 983.83008 319.03125 982.93489 327.57618 982.60938 334.41211 C 982.28386 341.08529 982.12109 350.44401 982.12109 362.48828 C 982.12109 374.53255 982.28386 383.97265 982.60938 390.80859 C 982.93489 397.48177 983.83008 406.02669 985.29492 416.44336 C 986.92252 426.69727 989.68945 436.05599 993.5957 444.51953 C 997.66471 452.82032 1002.9544 460.55144 1009.4648 467.71289 C 1017.9284 476.99024 1028.7519 484.47721 1041.9355 490.17383 C 1055.1191 495.70768 1069.7676 498.47461 1085.8809 498.47461 C 1101.9941 498.47461 1116.6426 495.70768 1129.8262 490.17383 C 1143.0098 484.47721 1153.8333 476.99024 1162.2969 467.71289 C 1168.8073 460.55144 1174.0157 452.82032 1177.9219 444.51953 C 1181.9909 436.05599 1184.7578 426.69727 1186.2227 416.44336 C 1187.8503 406.02669 1188.8268 397.48177 1189.1523 390.80859 C 1189.4779 383.97265 1189.6406 374.53255 1189.6406 362.48828 C 1189.6406 350.44401 1189.4779 341.08529 1189.1523 334.41211 C 1188.8268 327.57618 1187.8503 319.03125 1186.2227 308.77734 C 1184.7578 298.36068 1181.9909 289.00196 1177.9219 280.70117 C 1174.0157 272.23763 1168.8073 264.42513 1162.2969 257.26367 C 1153.8333 247.98633 1143.0098 240.58073 1129.8262 235.04688 C 1116.6426 229.35026 1101.9941 226.50195 1085.8809 226.50195 z M 1416.7793 226.50195 C 1400.666 226.50195 1386.0176 229.35026 1372.834 235.04688 C 1359.6504 240.58073 1348.8268 247.98633 1340.3633 257.26367 C 1333.8529 264.42513 1328.5631 272.23763 1324.4941 280.70117 C 1320.5879 289.00196 1317.821 298.36068 1316.1934 308.77734 C 1314.7285 319.03125 1313.8333 327.57618 1313.5078 334.41211 C 1313.1823 341.08529 1313.0195 350.44401 1313.0195 362.48828 C 1313.0195 374.53255 1313.1823 383.97265 1313.5078 390.80859 C 1313.8333 397.48177 1314.7285 406.02669 1316.1934 416.44336 C 1317.821 426.69727 1320.5879 436.05599 1324.4941 444.51953 C 1328.5631 452.82032 1333.8529 460.55144 1340.3633 467.71289 C 1348.8268 476.99024 1359.6504 484.47721 1372.834 490.17383 C 1386.0176 495.70768 1400.666 498.47461 1416.7793 498.47461 C 1432.8926 498.47461 1447.541 495.70768 1460.7246 490.17383 C 1473.9082 484.47721 1484.7318 476.99024 1493.1953 467.71289 C 1499.7057 460.55144 1504.914 452.82032 1508.8203 444.51953 C 1512.8893 436.05599 1515.6563 426.69727 1517.1211 416.44336 C 1518.7488 406.02669 1519.7253 397.48177 1520.0508 390.80859 C 1520.3763 383.97265 1520.5391 374.53255 1520.5391 362.48828 C 1520.5391 350.44401 1520.3763 341.08529 1520.0508 334.41211 C 1519.7253 327.57618 1518.7488 319.03125 1517.1211 308.77734 C 1515.6563 298.36068 1512.8893 289.00196 1508.8203 280.70117 C 1504.914 272.23763 1499.7057 264.42513 1493.1953 257.26367 C 1484.7318 247.98633 1473.9082 240.58073 1460.7246 235.04688 C 1447.541 229.35026 1432.8926 226.50195 1416.7793 226.50195 z M 372.99023 259.2168 C 385.68555 259.2168 396.91601 262.55338 406.68164 269.22656 C 416.61002 275.73698 423.77148 284.60742 428.16602 295.83789 C 432.56055 306.74284 434.92057 321.47266 435.24609 340.02734 L 310.97852 340.02734 C 311.30404 321.79818 313.66406 306.98698 318.05859 295.59375 C 322.29037 284.52604 329.20769 275.73698 338.81055 269.22656 C 348.41341 262.55338 359.80664 259.2168 372.99023 259.2168 z M 1085.8809 259.2168 C 1107.0397 259.2168 1123.2344 265.64583 1134.4648 278.50391 C 1138.8594 283.54948 1142.3588 289.2461 1144.9629 295.59375 C 1147.7298 301.77865 1149.6015 309.10287 1150.5781 317.56641 C 1151.7175 325.86719 1152.3685 332.86589 1152.5312 338.5625 C 1152.8568 344.09635 1153.0195 352.07161 1153.0195 362.48828 C 1153.0195 372.90495 1152.8568 380.96158 1152.5312 386.6582 C 1152.3685 392.19206 1151.7175 399.19076 1150.5781 407.6543 C 1149.6015 415.95508 1147.7298 423.27929 1144.9629 429.62695 C 1142.3588 435.81185 1138.8594 441.42708 1134.4648 446.47266 C 1123.2344 459.33073 1107.0397 465.75977 1085.8809 465.75977 C 1064.722 465.75977 1048.5273 459.33073 1037.2969 446.47266 C 1032.9023 441.42708 1029.3216 435.81185 1026.5547 429.62695 C 1023.9506 423.27929 1022.0788 415.95508 1020.9395 407.6543 C 1019.9629 399.19076 1019.3119 392.19206 1018.9863 386.6582 C 1018.8235 380.96158 1018.7422 372.90495 1018.7422 362.48828 C 1018.7422 352.07161 1018.8235 344.09635 1018.9863 338.5625 C 1019.3119 332.86589 1019.9629 325.86719 1020.9395 317.56641 C 1022.0788 309.10287 1023.9506 301.77865 1026.5547 295.59375 C 1029.3216 289.2461 1032.9023 283.54948 1037.2969 278.50391 C 1048.5273 265.64583 1064.722 259.2168 1085.8809 259.2168 z M 1416.7793 259.2168 C 1437.9381 259.2168 1454.1328 265.64583 1465.3633 278.50391 C 1469.7578 283.54948 1473.2571 289.2461 1475.8613 295.59375 C 1478.6283 301.77865 1480.5 309.10287 1481.4766 317.56641 C 1482.6159 325.86719 1483.267 332.86589 1483.4297 338.5625 C 1483.7552 344.09635 1483.918 352.07161 1483.918 362.48828 C 1483.918 372.90495 1483.7552 380.96158 1483.4297 386.6582 C 1483.267 392.19206 1482.6159 399.19076 1481.4766 407.6543 C 1480.5 415.95508 1478.6283 423.27929 1475.8613 429.62695 C 1473.2571 435.81185 1469.7578 441.42708 1465.3633 446.47266 C 1454.1328 459.33073 1437.9381 465.75977 1416.7793 465.75977 C 1395.6204 465.75977 1379.4258 459.33073 1368.1953 446.47266 C 1363.8008 441.42708 1360.2201 435.81185 1357.4531 429.62695 C 1354.8489 423.27929 1352.9772 415.95508 1351.8379 407.6543 C 1350.8614 399.19076 1350.2103 392.19206 1349.8848 386.6582 C 1349.722 380.96158 1349.6406 372.90495 1349.6406 362.48828 C 1349.6406 352.07161 1349.722 344.09635 1349.8848 338.5625 C 1350.2103 332.86589 1350.8614 325.86719 1351.8379 317.56641 C 1352.9772 309.10287 1354.8489 301.77865 1357.4531 295.59375 C 1360.2201 289.2461 1363.8008 283.54948 1368.1953 278.50391 C 1379.4258 265.64583 1395.6204 259.2168 1416.7793 259.2168 z "
         style="font-style:normal;font-variant:normal;font-weight:normal;font-stretch:normal;font-size:500px;font-family:Gidole;-inkscape-font-specification:Gidole;letter-spacing:-45px;fill:#ffffff;fill-opacity:1;stroke:#000000;stroke-width:12;stroke-miterlimit:4;stroke-dasharray:none;stroke-opacity:0.48936169"
         id="path4200"
         d="m 90.353516,148.86523 0,345.70313 38.085934,0 0,-159.17969 127.92969,0 0,-34.17969 -127.92969,0 0,-118.16406 147.46094,0 0,-34.17969 -185.546874,0 z m 1444.531284,0 0,170.16602 29.7851,14.16016 c 17.2526,-11.39323 35.7259,-17.08985 55.4199,-17.08985 19.8568,0 35.6446,6.9987 47.3633,20.9961 11.8815,13.99739 17.8223,31.81965 17.8223,53.46679 0,21.15886 -5.8594,38.89975 -17.5781,53.22266 -11.556,14.16016 -27.4252,21.24023 -47.6075,21.24023 -25.3906,0 -48.9095,-10.6608 -70.5566,-31.98242 l -24.1699,26.12305 c 11.7188,11.71875 25.7162,21.32161 41.9922,28.80859 16.276,7.48698 33.8541,11.23047 52.7343,11.23047 30.7618,0 55.6641,-10.33528 74.7071,-31.00586 19.043,-20.83333 28.5644,-46.71224 28.5644,-77.63672 0,-31.08724 -9.3587,-56.722 -28.0761,-76.90429 -18.5547,-20.34506 -41.1784,-30.51758 -67.8711,-30.51758 -20.1823,0 -38.3301,4.15039 -54.4434,12.45117 l 0,-112.54883 131.3477,0 0,-34.17969 -169.4336,0 z m 200.625,0 0,345.70313 38.0859,0 0,-159.17969 148.4375,0 0,159.17969 38.0859,0 0,-345.70313 -38.0859,0 0,152.34375 -148.4375,0 0,-152.34375 -38.0859,0 z m 247.5,0 0,345.70313 87.6464,0 c 24.4141,0 43.0502,-1.87175 55.9083,-5.61524 14.9739,-4.39453 27.7506,-11.71874 38.33,-21.97265 10.7422,-10.41667 19.1244,-22.37956 25.1465,-35.88867 4.3945,-10.09115 7.7312,-22.13542 10.0098,-36.13282 2.2786,-14.16016 3.5807,-25.87891 3.9062,-35.15625 0.3256,-9.27734 0.4883,-21.97265 0.4883,-38.08593 0,-16.11328 -0.1627,-28.80859 -0.4883,-38.08594 -0.3255,-9.27734 -1.6276,-20.91471 -3.9062,-34.91211 -2.2786,-14.16015 -5.6153,-26.28581 -10.0098,-36.37695 -6.0221,-13.50912 -14.4043,-25.39063 -25.1465,-35.64453 -10.5794,-10.41667 -23.3561,-17.82227 -38.33,-22.2168 -12.8581,-3.74349 -31.4942,-5.61524 -55.9083,-5.61524 l -87.6464,0 z m -768.3008,24.41407 0,57.1289 -36.6211,0 0,30.27344 36.6211,0 0,159.91211 c 0,20.01953 0.8951,33.12175 2.6855,39.30664 3.5808,12.36979 10.0912,21.89127 19.5313,28.56445 9.6028,6.67318 21.3216,10.00977 35.1562,10.00977 13.9974,0 28.8086,-3.41797 44.4336,-10.25391 l -14.1601,-30.27343 c -10.0912,5.20833 -19.3685,7.8125 -27.8321,7.8125 -10.2539,0 -17.2526,-4.47591 -20.9961,-13.42774 -1.4648,-3.58073 -2.1972,-14.16015 -2.1972,-31.73828 l 0,-159.91211 48.8281,0 0,-30.27344 -48.8281,0 0,-57.1289 -36.6211,0 z m 806.3867,9.76562 49.5605,0 c 8.3008,0 14.8112,0.0814 19.5313,0.24414 4.8828,0.16276 10.8236,0.97657 17.8223,2.44141 7.1614,1.30209 13.0208,3.25521 17.5781,5.85937 5.6967,3.25521 10.7422,7.32422 15.1367,12.20704 4.3945,4.88281 7.9753,9.76562 10.7422,14.64843 2.9297,4.72005 5.3711,10.82357 7.3242,18.31055 1.9531,7.32422 3.418,13.75326 4.3945,19.28711 0.9766,5.37109 1.709,12.61393 2.1973,21.72851 0.4883,9.11458 0.7324,16.27605 0.7324,21.48438 0.1628,5.04557 0.2442,12.53255 0.2442,22.46094 0,9.92838 -0.081,17.49674 -0.2442,22.70508 0,5.04557 -0.2441,12.12565 -0.7324,21.24023 -0.4883,9.11459 -1.2207,16.4388 -2.1973,21.97266 -0.9765,5.37109 -2.4414,11.80012 -4.3945,19.28711 -1.9531,7.32421 -4.3945,13.42774 -7.3242,18.31054 -2.7669,4.72006 -6.3477,9.52149 -10.7422,14.4043 -4.3945,4.88281 -9.44,8.95182 -15.1367,12.20703 -4.5573,2.60417 -10.4167,4.63867 -17.5781,6.10352 -6.9987,1.30208 -12.9395,2.0345 -17.8223,2.19726 -4.7201,0.16276 -11.2305,0.24414 -19.5313,0.24414 l -49.5605,0 0,-277.34375 z M 372.99023,226.50195 c -20.99609,0 -39.55078,5.3711 -55.66406,16.11328 -15.95052,10.74219 -27.34375,25.06511 -34.17969,42.96875 -2.76692,7.48698 -4.88281,15.86915 -6.34765,25.14649 -1.30208,9.11459 -2.11589,16.92709 -2.44141,23.4375 -0.16276,6.34766 -0.24414,15.78776 -0.24414,28.32031 0,15.29948 0.16276,27.09961 0.48828,35.40039 0.48828,8.13803 2.19727,18.14779 5.12696,30.0293 3.09244,11.88151 7.64973,22.13542 13.67187,30.76172 8.46354,12.36979 19.93816,22.13541 34.42383,29.29687 14.48568,6.9987 31.16862,10.49805 50.04883,10.49805 27.01823,0 54.93164,-6.75456 83.74023,-20.26367 L 447.69727,447.9375 c -24.90234,11.88151 -48.17708,17.82227 -69.82422,17.82227 -24.2513,0 -41.99219,-8.05665 -53.22266,-24.16993 -4.23177,-6.02214 -7.48698,-13.50911 -9.76562,-22.46093 -2.11589,-9.11459 -3.33659,-16.84571 -3.66211,-23.19336 -0.32552,-6.51042 -0.48828,-15.05534 -0.48828,-25.63477 l 161.13281,0 0,-8.05664 c 0,-20.34505 -0.48829,-35.56315 -1.46485,-45.6543 -0.8138,-10.2539 -3.2552,-20.50781 -7.32422,-30.76172 -6.99869,-17.90364 -18.63606,-32.22656 -34.9121,-42.96874 -16.11328,-10.90495 -34.50521,-16.35743 -55.17579,-16.35743 z m 221.35743,0 c -23.76302,0 -44.51498,10.57943 -62.25586,31.73828 l 0,-27.83203 -36.6211,0 0,264.16016 36.6211,0 0,-156.98242 c 0,-21.97266 1.79036,-37.27213 5.37109,-45.89844 4.06901,-9.92839 10.6608,-17.82227 19.77539,-23.68164 9.11458,-5.85937 19.85677,-8.78906 32.22656,-8.78906 4.39454,0 11.71875,0.73242 21.97266,2.19726 l 5.37109,-32.22656 c -8.30078,-1.79036 -15.78775,-2.68555 -22.46093,-2.68555 z m 134.92187,0 c -23.60026,0 -44.35221,10.33529 -62.25586,31.00586 l 0,-27.09961 -36.62109,0 0,264.16016 36.62109,0 0,-155.51758 c 0,-10.09114 0.0814,-17.41536 0.24414,-21.97266 0.16276,-4.72005 0.73243,-9.847 1.70899,-15.38085 0.97656,-5.53386 2.44141,-10.33529 4.39453,-14.4043 4.23177,-8.78906 10.66081,-15.625 19.28711,-20.50781 8.78906,-5.04558 18.55469,-7.56836 29.29687,-7.56836 10.74219,0 20.42644,2.52278 29.05274,7.56836 8.78906,4.88281 15.29948,11.71875 19.53125,20.50781 1.95312,4.06901 3.41797,8.87044 4.39453,14.4043 0.97656,5.53385 1.54622,10.6608 1.70898,15.38085 0.16276,4.5573 0.24414,11.88152 0.24414,21.97266 l 0,155.51758 36.6211,0 0,-155.51758 c 0,-10.09114 0.0814,-17.41536 0.24414,-21.97266 0.16276,-4.72005 0.73242,-9.847 1.70898,-15.38085 0.97656,-5.53386 2.44141,-10.33529 4.39453,-14.4043 4.23178,-8.78906 10.66081,-15.625 19.28711,-20.50781 8.78906,-5.04558 18.55469,-7.56836 29.29688,-7.56836 10.74218,0 20.42643,2.52278 29.05273,7.56836 8.78906,4.88281 15.29948,11.71875 19.53125,20.50781 1.95313,4.06901 3.41797,8.87044 4.39453,14.4043 0.97656,5.53385 1.54623,10.6608 1.70899,15.38085 0.16276,4.5573 0.24414,11.88152 0.24414,21.97266 l 0,155.51758 36.62109,0 0,-157.95898 c 0,-9.11459 -0.0814,-16.0319 -0.24414,-20.75196 -0.16276,-4.72004 -0.73242,-10.49804 -1.70898,-17.33398 -0.97656,-6.9987 -2.52279,-13.26498 -4.63868,-18.79883 -6.18489,-16.60156 -16.27603,-29.62239 -30.27343,-39.0625 -13.83464,-9.4401 -29.6224,-14.16016 -47.36328,-14.16016 -15.78776,0 -30.19206,3.7435 -43.21289,11.23047 -13.02084,7.32422 -23.84441,17.49675 -32.47071,30.51758 -6.67318,-13.02083 -16.11328,-23.19336 -28.32031,-30.51758 -12.20703,-7.48697 -26.36719,-11.23047 -42.48047,-11.23047 z m 356.61137,0 c -16.1133,0 -30.7618,2.84831 -43.9454,8.54493 -13.1836,5.53385 -24.0071,12.93945 -32.4707,22.21679 -6.5104,7.16146 -11.80009,14.97396 -15.8691,23.4375 -3.90625,8.30079 -6.67318,17.65951 -8.30078,28.07617 -1.46484,10.25391 -2.36003,18.79884 -2.68554,25.63477 -0.32552,6.67318 -0.48829,16.0319 -0.48829,28.07617 0,12.04427 0.16277,21.48437 0.48829,28.32031 0.32551,6.67318 1.2207,15.2181 2.68554,25.63477 1.6276,10.25391 4.39453,19.61263 8.30078,28.07617 4.06901,8.30079 9.3587,16.03191 15.8691,23.19336 8.4636,9.27735 19.2871,16.76432 32.4707,22.46094 13.1836,5.53385 27.8321,8.30078 43.9454,8.30078 16.1132,0 30.7617,-2.76693 43.9453,-8.30078 13.1836,-5.69662 24.0071,-13.18359 32.4707,-22.46094 6.5104,-7.16145 11.7188,-14.89257 15.625,-23.19336 4.069,-8.46354 6.8359,-17.82226 8.3008,-28.07617 1.6276,-10.41667 2.6041,-18.96159 2.9296,-25.63477 0.3256,-6.83594 0.4883,-16.27604 0.4883,-28.32031 0,-12.04427 -0.1627,-21.40299 -0.4883,-28.07617 -0.3255,-6.83593 -1.302,-15.38086 -2.9296,-25.63477 -1.4649,-10.41666 -4.2318,-19.77538 -8.3008,-28.07617 -3.9062,-8.46354 -9.1146,-16.27604 -15.625,-23.4375 -8.4636,-9.27734 -19.2871,-16.68294 -32.4707,-22.21679 -13.1836,-5.69662 -27.8321,-8.54493 -43.9453,-8.54493 z m 330.8984,0 c -16.1133,0 -30.7617,2.84831 -43.9453,8.54493 -13.1836,5.53385 -24.0072,12.93945 -32.4707,22.21679 -6.5104,7.16146 -11.8002,14.97396 -15.8692,23.4375 -3.9062,8.30079 -6.6731,17.65951 -8.3007,28.07617 -1.4649,10.25391 -2.3601,18.79884 -2.6856,25.63477 -0.3255,6.67318 -0.4883,16.0319 -0.4883,28.07617 0,12.04427 0.1628,21.48437 0.4883,28.32031 0.3255,6.67318 1.2207,15.2181 2.6856,25.63477 1.6276,10.25391 4.3945,19.61263 8.3007,28.07617 4.069,8.30079 9.3588,16.03191 15.8692,23.19336 8.4635,9.27735 19.2871,16.76432 32.4707,22.46094 13.1836,5.53385 27.832,8.30078 43.9453,8.30078 16.1133,0 30.7617,-2.76693 43.9453,-8.30078 13.1836,-5.69662 24.0072,-13.18359 32.4707,-22.46094 6.5104,-7.16145 11.7187,-14.89257 15.625,-23.19336 4.069,-8.46354 6.836,-17.82226 8.3008,-28.07617 1.6277,-10.41667 2.6042,-18.96159 2.9297,-25.63477 0.3255,-6.83594 0.4883,-16.27604 0.4883,-28.32031 0,-12.04427 -0.1628,-21.40299 -0.4883,-28.07617 -0.3255,-6.83593 -1.302,-15.38086 -2.9297,-25.63477 -1.4648,-10.41666 -4.2318,-19.77538 -8.3008,-28.07617 -3.9063,-8.46354 -9.1146,-16.27604 -15.625,-23.4375 -8.4635,-9.27734 -19.2871,-16.68294 -32.4707,-22.21679 -13.1836,-5.69662 -27.832,-8.54493 -43.9453,-8.54493 z M 372.99023,259.2168 c 12.69532,0 23.92578,3.33658 33.69141,10.00976 9.92838,6.51042 17.08984,15.38086 21.48438,26.61133 4.39453,10.90495 6.75455,25.63477 7.08007,44.18945 l -124.26757,0 c 0.32552,-18.22916 2.68554,-33.04036 7.08007,-44.43359 4.23178,-11.06771 11.1491,-19.85677 20.75196,-26.36719 9.60286,-6.67318 20.99609,-10.00976 34.17968,-10.00976 z m 712.89067,0 c 21.1588,0 37.3535,6.42903 48.5839,19.28711 4.3946,5.04557 7.894,10.74219 10.4981,17.08984 2.7669,6.1849 4.6386,13.50912 5.6152,21.97266 1.1394,8.30078 1.7904,15.29948 1.9531,20.99609 0.3256,5.53385 0.4883,13.50911 0.4883,23.92578 0,10.41667 -0.1627,18.4733 -0.4883,24.16992 -0.1627,5.53386 -0.8137,12.53256 -1.9531,20.9961 -0.9766,8.30078 -2.8483,15.62499 -5.6152,21.97265 -2.6041,6.1849 -6.1035,11.80013 -10.4981,16.84571 -11.2304,12.85807 -27.4251,19.28711 -48.5839,19.28711 -21.1589,0 -37.3536,-6.42904 -48.584,-19.28711 -4.3946,-5.04558 -7.9753,-10.66081 -10.7422,-16.84571 -2.6041,-6.34766 -4.4759,-13.67187 -5.6152,-21.97265 -0.9766,-8.46354 -1.6276,-15.46224 -1.9532,-20.9961 -0.1628,-5.69662 -0.2441,-13.75325 -0.2441,-24.16992 0,-10.41667 0.081,-18.39193 0.2441,-23.92578 0.3256,-5.69661 0.9766,-12.69531 1.9532,-20.99609 1.1393,-8.46354 3.0111,-15.78776 5.6152,-21.97266 2.7669,-6.34765 6.3476,-12.04427 10.7422,-17.08984 11.2304,-12.85808 27.4251,-19.28711 48.584,-19.28711 z m 330.8984,0 c 21.1588,0 37.3535,6.42903 48.584,19.28711 4.3945,5.04557 7.8938,10.74219 10.498,17.08984 2.767,6.1849 4.6387,13.50912 5.6153,21.97266 1.1393,8.30078 1.7904,15.29948 1.9531,20.99609 0.3255,5.53385 0.4883,13.50911 0.4883,23.92578 0,10.41667 -0.1628,18.4733 -0.4883,24.16992 -0.1627,5.53386 -0.8138,12.53256 -1.9531,20.9961 -0.9766,8.30078 -2.8483,15.62499 -5.6153,21.97265 -2.6042,6.1849 -6.1035,11.80013 -10.498,16.84571 -11.2305,12.85807 -27.4252,19.28711 -48.584,19.28711 -21.1589,0 -37.3535,-6.42904 -48.584,-19.28711 -4.3945,-5.04558 -7.9752,-10.66081 -10.7422,-16.84571 -2.6042,-6.34766 -4.4759,-13.67187 -5.6152,-21.97265 -0.9765,-8.46354 -1.6276,-15.46224 -1.9531,-20.9961 -0.1628,-5.69662 -0.2442,-13.75325 -0.2442,-24.16992 0,-10.41667 0.081,-18.39193 0.2442,-23.92578 0.3255,-5.69661 0.9766,-12.69531 1.9531,-20.99609 1.1393,-8.46354 3.011,-15.78776 5.6152,-21.97266 2.767,-6.34765 6.3477,-12.04427 10.7422,-17.08984 11.2305,-12.85808 27.4251,-19.28711 48.584,-19.28711 z" />
    </g>
  </g>
  <g
     style="display:none"
     inkscape:label="Layer 1 copia"
     id="g3343"
     inkscape:groupmode="layer">
    <text
       sodipodi:linespacing="125%"
       id="text3345"
       y="495.06177"
       x="9.204998"
       style="font-style:normal;font-weight:normal;font-size:102.5px;line-height:125%;font-family:sans-serif;letter-spacing:0px;word-spacing:0px;fill:#ffffff;fill-opacity:1;stroke:#000000;stroke-width:10;stroke-linecap:butt;stroke-linejoin:miter;stroke-miterlimit:4;stroke-dasharray:none;stroke-opacity:1"
       xml:space="preserve"><tspan
         style="font-style:normal;font-variant:normal;font-weight:500;font-stretch:normal;font-size:487.5px;font-family:DINPro;-inkscape-font-specification:'DINPro Medium';letter-spacing:-54.42000198px;fill:#ffffff;fill-opacity:1;stroke:#282828;stroke-width:10;stroke-miterlimit:4;stroke-dasharray:none;stroke-opacity:0.52996844"
         y="495.06177"
         x="9.204998"
         id="tspan3347"
         sodipodi:role="line"><tspan
   id="tspan3349"
   style="letter-spacing:-60.37999725px">F</tspan><tspan
   id="tspan3351"
   style="letter-spacing:-57.90000153px">e</tspan><tspan
   id="tspan3353"
   style="letter-spacing:-36.75999832px;stroke:#282828;stroke-width:10;stroke-miterlimit:4;stroke-dasharray:none;stroke-opacity:0.52996844">r</tspan><tspan
   id="tspan3355"
   style="letter-spacing:-54.41999817px;stroke:#282828;stroke-width:10;stroke-miterlimit:4;stroke-dasharray:none;stroke-opacity:0.52996844">mo</tspan>to<tspan
   id="tspan3357"
   style="letter-spacing:-68.33000946px;fill:#ffffff;fill-opacity:1;stroke:#282828;stroke-width:10;stroke-miterlimit:4;stroke-dasharray:none;stroke-opacity:0.52996844">5</tspan><tspan
   style="letter-spacing:-76.88005066px;fill:#ffffff;fill-opacity:1;stroke:#282828;stroke-width:10;stroke-miterlimit:4;stroke-dasharray:none;stroke-opacity:0.52996844"
   id="tspan3359">HD</tspan></tspan></text>
  </g>
</svg>
