<?xml version="1.0" encoding="UTF-8" standalone="no"?>
<!-- Created with Inkscape (http://www.inkscape.org/) -->

<svg
   xmlns:dc="http://purl.org/dc/elements/1.1/"
   xmlns:cc="http://creativecommons.org/ns#"
   xmlns:rdf="http://www.w3.org/1999/02/22-rdf-syntax-ns#"
   xmlns:svg="http://www.w3.org/2000/svg"
   xmlns="http://www.w3.org/2000/svg"
   xmlns:sodipodi="http://sodipodi.sourceforge.net/DTD/sodipodi-0.dtd"
   xmlns:inkscape="http://www.inkscape.org/namespaces/inkscape"
   width="512"
   height="512"
   viewBox="0 0 512.00001 512.00001"
   id="svg2"
   version="1.1"
   inkscape:version="0.91 r13725"
   sodipodi:docname="icon.svg"
   inkscape:export-filename="/var/www/html/FM5strap/sources/icon-72x72.png"
   inkscape:export-xdpi="12.66"
   inkscape:export-ydpi="12.66">
  <defs
     id="defs4" />
  <sodipodi:namedview
     id="base"
     pagecolor="#ffffff"
     bordercolor="#666666"
     borderopacity="1.0"
     inkscape:pageopacity="0.0"
     inkscape:pageshadow="2"
     inkscape:zoom="0.7"
     inkscape:cx="230.20579"
     inkscape:cy="241.73465"
     inkscape:document-units="px"
     inkscape:current-layer="layer1"
     showgrid="false"
     units="px"
     inkscape:window-width="1024"
     inkscape:window-height="557"
     inkscape:window-x="0"
     inkscape:window-y="0"
     inkscape:window-maximized="1" />
  <metadata
     id="metadata7">
    <rdf:RDF>
      <cc:Work
         rdf:about="">
        <dc:format>image/svg+xml</dc:format>
        <dc:type
           rdf:resource="http://purl.org/dc/dcmitype/StillImage" />
        <dc:title />
      </cc:Work>
    </rdf:RDF>
  </metadata>
  <g
     inkscape:label="Rasterized"
     inkscape:groupmode="layer"
     id="layer1"
     transform="translate(0,-540.36216)"
     style="display:inline">
    <rect
       style="fill:#282828;fill-opacity:1;stroke:none;stroke-width:12;stroke-miterlimit:4;stroke-dasharray:none;stroke-opacity:0.39215686"
       id="rect4136-7"
       width="460"
       height="460"
       x="27.714285"
       y="566.36218"
       ry="6.95189" />
    <g
       style="font-style:normal;font-weight:normal;font-size:40px;line-height:125%;font-family:sans-serif;letter-spacing:0px;word-spacing:0px;fill:#000000;fill-opacity:1;stroke:none;stroke-width:1px;stroke-linecap:butt;stroke-linejoin:miter;stroke-opacity:1"
       id="text4138-2" />
    <g
       style="font-style:normal;font-weight:normal;font-size:40px;line-height:125%;font-family:sans-serif;letter-spacing:0px;word-spacing:0px;fill:#000000;fill-opacity:1;stroke:none;stroke-width:1px;stroke-linecap:butt;stroke-linejoin:miter;stroke-opacity:1"
       id="icon-text">
      <path
         id="path4294"
         style="font-style:normal;font-variant:normal;font-weight:normal;font-stretch:normal;font-size:312.5px;font-family:Gidole;-inkscape-font-specification:Gidole;letter-spacing:-30px;fill:#ffffff"
         d="m 299.11621,783.08856 0,173.33985 30.97534,0 q 7.78199,0 12.20703,-0.15259 4.57764,-0.15259 11.13892,-1.37329 6.71387,-1.37329 10.98633,-3.8147 5.34057,-3.05176 9.46045,-7.62939 4.11987,-4.57764 6.71386,-9.00269 2.74659,-4.57764 4.57764,-11.44409 1.83106,-7.01905 2.74658,-12.05445 0.91553,-5.18798 1.37329,-13.73291 0.45777,-8.54492 0.45777,-13.27514 0.15259,-4.88281 0.15259,-14.19068 0,-9.30786 -0.15259,-14.03808 0,-4.88281 -0.45777,-13.42774 -0.45776,-8.54492 -1.37329,-13.58032 -0.91552,-5.18799 -2.74658,-12.05444 -1.83105,-7.01905 -4.57764,-11.44409 -2.59399,-4.57764 -6.71386,-9.15528 -4.11988,-4.57763 -9.46045,-7.62939 -4.27246,-2.44141 -10.98633,-3.66211 -6.56128,-1.37329 -11.13892,-1.52588 -4.42504,-0.15259 -12.20703,-0.15259 l -30.97534,0 z m -23.80371,-21.3623 54.77905,0 q 22.88819,0 34.94263,3.50952 14.03809,4.11987 23.9563,13.8855 10.0708,9.61303 15.71655,22.27783 4.11987,9.46045 6.2561,22.73559 2.13624,13.12256 2.44141,21.82007 0.30518,8.69751 0.30518,23.80371 0,15.10621 -0.30518,23.80371 -0.30517,8.69751 -2.44141,21.97266 -2.13623,13.12256 -6.2561,22.58301 -5.64575,12.66479 -15.71655,22.43042 -9.91821,9.61304 -23.9563,13.73291 -12.05444,3.50952 -34.94263,3.50952 l -54.77905,0 0,-216.06445 z m -165.3125,0 23.80371,0 0,95.21484 92.77344,0 0,-95.21484 23.80371,0 0,216.06445 -23.80371,0 0,-99.4873 -92.77344,0 0,99.4873 -23.80371,0 0,-216.06445 z m 295.30273,-146.27368 0,14.35546 -55.16601,0 0,47.27051 q 10.15137,-5.22949 22.86621,-5.22949 16.81641,0 28.50586,12.81738 11.79199,12.71485 11.79199,32.29981 0,19.48242 -11.99707,32.60742 -11.99707,13.02246 -31.37695,13.02246 -11.89453,0 -22.14844,-4.7168 -10.25391,-4.71679 -17.63672,-12.09961 l 10.15137,-10.97168 q 13.63769,13.43262 29.63379,13.43262 12.71484,0 19.99511,-8.9209 7.38282,-9.02343 7.38282,-22.35351 0,-13.6377 -7.48535,-22.45606 -7.38282,-8.81836 -19.89258,-8.81836 -12.40723,0 -23.27637,7.17774 l -12.50977,-5.94727 0,-71.46972 71.16211,0 z m -206.61132,145.19531 0,-145.19531 15.99609,0 42.14355,86.03027 42.14356,-86.03027 15.99609,0 0,145.19531 -15.99609,0 0,-115.04883 -34.86328,71.87988 -14.56055,0 -34.86328,-71.87988 0,115.04883 -15.99609,0 z M 110,615.45258 l 77.92969,0 0,14.35546 -61.9336,0 0,49.62891 53.73047,0 0,14.35547 -53.73047,0 0,66.85547 -15.99609,0 0,-145.19531 z" />
    </g>
  </g>
  <g
     inkscape:groupmode="layer"
     id="layer2"
     inkscape:label="Vector"
     sodipodi:insensitive="true"
     style="display:none">
    <rect
       style="fill:#282828;fill-opacity:1;stroke:none;stroke-width:12;stroke-miterlimit:4;stroke-dasharray:none;stroke-opacity:0.39215686"
       id="rect4136"
       width="460"
       height="460"
       x="27.714285"
       y="26.000019"
       ry="6.95189" />
    <text
       xml:space="preserve"
       style="font-style:normal;font-weight:normal;font-size:40px;line-height:125%;font-family:sans-serif;letter-spacing:0px;word-spacing:0px;fill:#000000;fill-opacity:1;stroke:none;stroke-width:1px;stroke-linecap:butt;stroke-linejoin:miter;stroke-opacity:1"
       x="91.542969"
       y="220.28572"
       id="text4138"
       sodipodi:linespacing="125%"><tspan
         sodipodi:role="line"
         id="tspan4140"
         x="91.542969"
         y="220.28572"
         style="font-style:normal;font-variant:normal;font-weight:normal;font-stretch:normal;font-size:210px;font-family:Gidole;-inkscape-font-specification:Gidole;letter-spacing:-20px;fill:#ffffff">FM5</tspan></text>
    <text
       xml:space="preserve"
       style="font-style:normal;font-weight:normal;font-size:40px;line-height:125%;font-family:sans-serif;letter-spacing:0px;word-spacing:0px;fill:#000000;fill-opacity:1;stroke:none;stroke-width:1px;stroke-linecap:butt;stroke-linejoin:miter;stroke-opacity:1"
       x="82.53418"
       y="437.42856"
       id="text4142"
       sodipodi:linespacing="125%"><tspan
         sodipodi:role="line"
         id="tspan4144"
         x="82.53418"
         y="437.42856"
         style="font-style:normal;font-variant:normal;font-weight:normal;font-stretch:normal;font-size:312.5px;font-family:Gidole;-inkscape-font-specification:Gidole;letter-spacing:-30px;fill:#ffffff">HD</tspan></text>
  </g>
</svg>
