<?xml version="1.0" encoding="UTF-8" standalone="no"?>
<!-- Created with Inkscape (http://www.inkscape.org/) -->

<svg
   xmlns:dc="http://purl.org/dc/elements/1.1/"
   xmlns:cc="http://creativecommons.org/ns#"
   xmlns:rdf="http://www.w3.org/1999/02/22-rdf-syntax-ns#"
   xmlns:svg="http://www.w3.org/2000/svg"
   xmlns="http://www.w3.org/2000/svg"
   xmlns:sodipodi="http://sodipodi.sourceforge.net/DTD/sodipodi-0.dtd"
   xmlns:inkscape="http://www.inkscape.org/namespaces/inkscape"
   id="svg3336"
   version="1.1"
   inkscape:version="0.91 r13725"
   width="412.5"
   height="137.5"
   viewBox="0 0 412.5 137.5"
   sodipodi:docname="brand-OFSE.svg"
   inkscape:export-filename="C:\xampp\htdocs\proximo-tren\img\brand-OFSE.png"
   inkscape:export-xdpi="90"
   inkscape:export-ydpi="90">
  <metadata
     id="metadata3342">
    <rdf:RDF>
      <cc:Work
         rdf:about="">
        <dc:format>image/svg+xml</dc:format>
        <dc:type
           rdf:resource="http://purl.org/dc/dcmitype/StillImage" />
        <dc:title />
      </cc:Work>
    </rdf:RDF>
  </metadata>
  <defs
     id="defs3340" />
  <sodipodi:namedview
     pagecolor="#000000"
     bordercolor="#666666"
     borderopacity="1"
     objecttolerance="10"
     gridtolerance="10"
     guidetolerance="10"
     inkscape:pageopacity="1"
     inkscape:pageshadow="2"
     inkscape:window-width="1366"
     inkscape:window-height="706"
     id="namedview3338"
     showgrid="false"
     inkscape:zoom="2.9236364"
     inkscape:cx="201.95105"
     inkscape:cy="68.749996"
     inkscape:window-x="-8"
     inkscape:window-y="-8"
     inkscape:window-maximized="1"
     inkscape:current-layer="layer1" />
  <g
     inkscape:groupmode="layer"
     id="layer1"
     inkscape:label="Vector"
     style="display:inline">
    <g
       style="font-style:normal;font-weight:normal;font-size:40px;line-height:125%;font-family:sans-serif;letter-spacing:0px;word-spacing:0px;fill:#000000;fill-opacity:1;stroke:none;stroke-width:1px;stroke-linecap:butt;stroke-linejoin:miter;stroke-opacity:1"
       id="text3333" />
    <g
       style="font-style:normal;font-weight:normal;font-size:40px;line-height:125%;font-family:sans-serif;letter-spacing:0px;word-spacing:0px;fill:#000000;fill-opacity:1;stroke:none;stroke-width:1px;stroke-linecap:butt;stroke-linejoin:miter;stroke-opacity:1"
       id="text3337">
      <path
         sodipodi:type="inkscape:offset"
         inkscape:radius="0"
         inkscape:original="M 11.15625 43.292969 C 4.9462498 43.292969 0.43164062 47.979922 0.43164062 53.701172 L 0.43164062 53.757812 C 0.43164062 59.479062 4.887656 64.107422 11.097656 64.107422 C 17.307656 64.107422 21.822266 59.422422 21.822266 53.701172 L 21.822266 53.642578 C 21.822266 47.921328 17.36625 43.292969 11.15625 43.292969 z M 139.66992 43.292969 C 133.45992 43.292969 128.94531 47.979922 128.94531 53.701172 L 128.94531 53.757812 C 128.94531 59.479062 133.40133 64.107422 139.61133 64.107422 C 145.82133 64.107422 150.33594 59.422422 150.33594 53.701172 L 150.33594 53.642578 C 150.33594 47.921328 145.87992 43.292969 139.66992 43.292969 z M 295.48438 43.292969 C 289.27438 43.292969 284.76172 47.979922 284.76172 53.701172 L 284.76172 53.757812 C 284.76172 59.479062 289.21773 64.107422 295.42773 64.107422 C 301.63773 64.107422 306.15234 59.422422 306.15234 53.701172 L 306.15234 53.642578 C 306.15234 47.921328 301.69437 43.292969 295.48438 43.292969 z M 91.691406 43.494141 L 83.066406 63.763672 L 87.580078 63.763672 L 89.419922 59.248047 L 97.929688 59.248047 L 99.769531 63.763672 L 104.39844 63.763672 L 95.773438 43.494141 L 91.691406 43.494141 z M 181.83984 43.494141 L 173.21484 63.763672 L 177.72852 63.763672 L 179.56836 59.248047 L 188.07812 59.248047 L 189.91797 63.763672 L 194.54688 63.763672 L 185.92188 43.494141 L 181.83984 43.494141 z M 346.75781 43.494141 L 338.13281 63.763672 L 342.64648 63.763672 L 344.48633 59.248047 L 352.99609 59.248047 L 354.83789 63.763672 L 359.46484 63.763672 L 350.83984 43.494141 L 346.75781 43.494141 z M 399.72852 43.494141 L 391.10352 63.763672 L 395.61719 63.763672 L 397.45703 59.248047 L 405.9668 59.248047 L 407.80664 63.763672 L 412.43555 63.763672 L 403.81055 43.494141 L 399.72852 43.494141 z M 25.699219 43.638672 L 25.699219 63.763672 L 30.126953 63.763672 L 30.126953 57.724609 L 33.490234 57.724609 C 38.003984 57.724609 41.626953 55.309844 41.626953 50.652344 L 41.626953 50.595703 C 41.626953 46.484453 38.723125 43.638672 33.921875 43.638672 L 25.699219 43.638672 z M 44.853516 43.638672 L 44.853516 63.763672 L 60.177734 63.763672 L 60.177734 59.824219 L 49.251953 59.824219 L 49.251953 55.597656 L 58.740234 55.597656 L 58.740234 51.658203 L 49.251953 51.658203 L 49.251953 47.576172 L 60.033203 47.576172 L 60.033203 43.638672 L 44.853516 43.638672 z M 64.064453 43.638672 L 64.064453 63.763672 L 68.492188 63.763672 L 68.492188 57.322266 L 71.970703 57.322266 L 76.283203 63.763672 L 81.457031 63.763672 L 76.541016 56.576172 C 79.099766 55.627422 80.853516 53.584687 80.853516 50.335938 L 80.853516 50.279297 C 80.853516 48.381797 80.250156 46.800938 79.128906 45.679688 C 77.806406 44.357188 75.822422 43.638672 73.263672 43.638672 L 64.064453 43.638672 z M 107.42578 43.638672 L 107.42578 63.763672 L 115.27539 63.763672 C 121.60039 63.763672 125.9707 59.364922 125.9707 53.701172 L 125.9707 53.642578 C 125.9707 47.978828 121.60039 43.638672 115.27539 43.638672 L 107.42578 43.638672 z M 154.21289 43.638672 L 154.21289 63.763672 L 158.64062 63.763672 L 158.64062 57.322266 L 162.11914 57.322266 L 166.43164 63.763672 L 171.60742 63.763672 L 166.69141 56.576172 C 169.25016 55.627422 171.00391 53.584687 171.00391 50.335938 L 171.00391 50.279297 C 171.00391 48.381797 170.39859 46.800938 169.27734 45.679688 C 167.95484 44.357188 165.97281 43.638672 163.41406 43.638672 L 154.21289 43.638672 z M 206.17188 43.638672 L 206.17188 63.763672 L 210.59961 63.763672 L 210.59961 55.970703 L 220.20312 55.970703 L 220.20312 51.947266 L 210.59961 51.947266 L 210.59961 47.662109 L 221.49609 47.662109 L 221.49609 43.638672 L 206.17188 43.638672 z M 224.99023 43.638672 L 224.99023 63.763672 L 240.31445 63.763672 L 240.31445 59.824219 L 229.38867 59.824219 L 229.38867 55.597656 L 238.87695 55.597656 L 238.87695 51.658203 L 229.38867 51.658203 L 229.38867 47.576172 L 240.16992 47.576172 L 240.16992 43.638672 L 224.99023 43.638672 z M 244.19922 43.638672 L 244.19922 63.763672 L 248.62695 63.763672 L 248.62695 57.322266 L 252.10547 57.322266 L 256.41797 63.763672 L 261.59375 63.763672 L 256.67773 56.576172 C 259.23648 55.627422 260.99023 53.584687 260.99023 50.335938 L 260.99023 50.279297 C 260.99023 48.381797 260.38688 46.800938 259.26562 45.679688 C 257.94313 44.357188 255.95914 43.638672 253.40039 43.638672 L 244.19922 43.638672 z M 264.92578 43.638672 L 264.92578 63.763672 L 269.35352 63.763672 L 269.35352 57.322266 L 272.83203 57.322266 L 277.14453 63.763672 L 282.32031 63.763672 L 277.4043 56.576172 C 279.96305 55.627422 281.7168 53.584687 281.7168 50.335938 L 281.7168 50.279297 C 281.7168 48.381797 281.11344 46.800938 279.99219 45.679688 C 278.66969 44.357188 276.6857 43.638672 274.12695 43.638672 L 264.92578 43.638672 z M 307.01172 43.638672 L 315.14844 63.90625 L 319.05859 63.90625 L 327.19531 43.638672 L 322.42188 43.638672 L 317.16211 57.810547 L 311.90039 43.638672 L 307.01172 43.638672 z M 330.45117 43.638672 L 330.45117 63.763672 L 334.87891 63.763672 L 334.87891 43.638672 L 330.45117 43.638672 z M 362.49414 43.638672 L 362.49414 63.763672 L 366.92188 63.763672 L 366.92188 57.322266 L 370.40039 57.322266 L 374.71289 63.763672 L 379.88672 63.763672 L 374.9707 56.576172 C 377.52945 55.627422 379.2832 53.584688 379.2832 50.335938 L 379.2832 50.279297 C 379.2832 48.381797 378.67984 46.800938 377.55859 45.679688 C 376.23609 44.357188 374.25211 43.638672 371.69336 43.638672 L 362.49414 43.638672 z M 383.42188 43.638672 L 383.42188 63.763672 L 387.84961 63.763672 L 387.84961 43.638672 L 383.42188 43.638672 z M 11.097656 47.375 C 14.662656 47.375 17.193359 50.251172 17.193359 53.701172 L 17.193359 53.757812 C 17.193359 57.207813 14.72125 60.025391 11.15625 60.025391 C 7.5912498 60.025391 5.0605469 57.151172 5.0605469 53.701172 L 5.0605469 53.642578 C 5.0605469 50.192578 7.532656 47.375 11.097656 47.375 z M 139.61133 47.375 C 143.17633 47.375 145.70703 50.251172 145.70703 53.701172 L 145.70703 53.757812 C 145.70703 57.207813 143.23492 60.025391 139.66992 60.025391 C 136.10492 60.025391 133.57422 57.151172 133.57422 53.701172 L 133.57422 53.642578 C 133.57422 50.192578 136.04633 47.375 139.61133 47.375 z M 295.42773 47.375 C 298.99273 47.375 301.52344 50.251172 301.52344 53.701172 L 301.52344 53.757812 C 301.52344 57.207813 299.04937 60.025391 295.48438 60.025391 C 291.91938 60.025391 289.39062 57.151172 289.39062 53.701172 L 289.39062 53.642578 C 289.39062 50.192578 291.86273 47.375 295.42773 47.375 z M 30.126953 47.634766 L 33.548828 47.634766 C 35.762578 47.634766 37.142578 48.697891 37.142578 50.681641 L 37.142578 50.738281 C 37.142578 52.463281 35.848516 53.787109 33.634766 53.787109 L 30.126953 53.787109 L 30.126953 47.634766 z M 68.492188 47.634766 L 72.890625 47.634766 C 75.046875 47.634766 76.369141 48.612266 76.369141 50.509766 L 76.369141 50.566406 C 76.369141 52.262656 75.132812 53.412109 72.976562 53.412109 L 68.492188 53.412109 L 68.492188 47.634766 z M 111.85352 47.634766 L 115.27539 47.634766 C 118.89789 47.634766 121.3418 50.136172 121.3418 53.701172 L 121.3418 53.757812 C 121.3418 57.322812 118.89789 59.765625 115.27539 59.765625 L 111.85352 59.765625 L 111.85352 47.634766 z M 158.64062 47.634766 L 163.03906 47.634766 C 165.19531 47.634766 166.51758 48.612266 166.51758 50.509766 L 166.51758 50.566406 C 166.51758 52.262656 165.28125 53.412109 163.125 53.412109 L 158.64062 53.412109 L 158.64062 47.634766 z M 248.62695 47.634766 L 253.02539 47.634766 C 255.18164 47.634766 256.50586 48.612266 256.50586 50.509766 L 256.50586 50.566406 C 256.50586 52.262656 255.26953 53.412109 253.11328 53.412109 L 248.62695 53.412109 L 248.62695 47.634766 z M 269.35352 47.634766 L 273.75195 47.634766 C 275.9082 47.634766 277.23047 48.612266 277.23047 50.509766 L 277.23047 50.566406 C 277.23047 52.262656 275.99609 53.412109 273.83984 53.412109 L 269.35352 53.412109 L 269.35352 47.634766 z M 366.92188 47.634766 L 371.32031 47.634766 C 373.47656 47.634766 374.79883 48.612266 374.79883 50.509766 L 374.79883 50.566406 C 374.79883 52.262656 373.5625 53.412109 371.40625 53.412109 L 366.92188 53.412109 L 366.92188 47.634766 z M 93.673828 48.8125 L 96.347656 55.339844 L 91 55.339844 L 93.673828 48.8125 z M 183.82422 48.8125 L 186.49805 55.339844 L 181.15039 55.339844 L 183.82422 48.8125 z M 348.74219 48.8125 L 351.41602 55.339844 L 346.06836 55.339844 L 348.74219 48.8125 z M 401.71289 48.8125 L 404.38672 55.339844 L 399.03906 55.339844 L 401.71289 48.8125 z M 32.5 73.845703 C 26.6425 73.845703 22.65625 78.491328 22.65625 83.798828 L 22.65625 83.855469 C 22.65625 89.162969 26.587813 93.753906 32.445312 93.753906 C 38.302813 93.753906 42.291016 89.106328 42.291016 83.798828 L 42.291016 83.744141 C 42.291016 78.436641 38.3575 73.845703 32.5 73.845703 z M 59.785156 73.845703 C 54.120156 73.845703 50.050781 78.353828 50.050781 83.798828 L 50.050781 83.855469 C 50.050781 89.382969 54.148125 93.753906 59.703125 93.753906 C 63.195625 93.753906 65.394844 92.408047 67.402344 90.373047 L 65.972656 88.970703 C 64.130156 90.730703 62.397813 91.748047 59.757812 91.748047 C 55.522813 91.748047 52.304688 88.253828 52.304688 83.798828 L 52.304688 83.744141 C 52.304688 79.316641 55.495312 75.851562 59.757812 75.851562 C 62.370312 75.851562 64.184141 76.952187 65.806641 78.492188 L 67.292969 76.896484 C 65.367969 75.081484 63.277656 73.845703 59.785156 73.845703 z M 402.11328 73.845703 C 396.25578 73.845703 392.26953 78.491328 392.26953 83.798828 L 392.26953 83.855469 C 392.26953 89.162969 396.20109 93.753906 402.05859 93.753906 C 407.91609 93.753906 411.9043 89.106328 411.9043 83.798828 L 411.9043 83.744141 C 411.9043 78.436641 407.97078 73.845703 402.11328 73.845703 z M 7.6914062 73.900391 C 4.0339063 73.900391 1.3652344 76.127344 1.3652344 79.152344 L 1.3652344 79.207031 C 1.3652344 82.369531 3.400625 83.799219 7.828125 84.761719 C 11.870625 85.614219 12.833984 86.632422 12.833984 88.419922 L 12.833984 88.474609 C 12.833984 90.372109 11.127969 91.748047 8.5429688 91.748047 C 5.8754687 91.748047 3.9508594 90.840391 1.9433594 89.025391 L 0.59570312 90.619141 C 2.9057031 92.681641 5.4084375 93.699219 8.4609375 93.699219 C 12.283438 93.699219 15.033203 91.553906 15.033203 88.253906 L 15.033203 88.199219 C 15.033203 85.256719 13.053672 83.688906 8.7636719 82.753906 C 4.5286719 81.846406 3.5390625 80.830625 3.5390625 79.015625 L 3.5390625 78.958984 C 3.5390625 77.226484 5.1342187 75.851562 7.6367188 75.851562 C 9.6167188 75.851562 11.403906 76.483906 13.191406 77.941406 L 14.455078 76.265625 C 12.502578 74.698125 10.496407 73.900391 7.6914062 73.900391 z M 307.09961 73.900391 C 303.44211 73.900391 300.77344 76.127344 300.77344 79.152344 L 300.77344 79.207031 C 300.77344 82.369531 302.80883 83.799219 307.23633 84.761719 C 311.27883 85.614219 312.24219 86.632422 312.24219 88.419922 L 312.24219 88.474609 C 312.24219 90.372109 310.53617 91.748047 307.95117 91.748047 C 305.28367 91.748047 303.35906 90.840391 301.35156 89.025391 L 300.00391 90.619141 C 302.31391 92.681641 304.81664 93.699219 307.86914 93.699219 C 311.69164 93.699219 314.44141 91.553906 314.44141 88.253906 L 314.44141 88.199219 C 314.44141 85.256719 312.46187 83.688906 308.17188 82.753906 C 303.93687 81.846406 302.94727 80.830625 302.94727 79.015625 L 302.94727 78.958984 C 302.94727 77.226484 304.54242 75.851562 307.04492 75.851562 C 309.02492 75.851562 310.81211 76.483906 312.59961 77.941406 L 313.86328 76.265625 C 311.91078 74.698125 309.90461 73.900391 307.09961 73.900391 z M 141.06836 74.037109 L 132.29688 93.423828 L 134.52344 93.423828 L 136.80664 88.337891 L 147.2832 88.337891 L 149.53906 93.423828 L 151.87695 93.423828 L 143.10352 74.037109 L 141.06836 74.037109 z M 349 74.037109 L 340.22852 93.423828 L 342.45508 93.423828 L 344.73828 88.337891 L 355.21484 88.337891 L 357.4707 93.423828 L 359.80859 93.423828 L 351.03516 74.037109 L 349 74.037109 z M 75.427734 74.173828 L 75.427734 93.423828 L 77.599609 93.423828 L 77.599609 74.173828 L 75.427734 74.173828 z M 87.267578 74.173828 L 87.267578 93.423828 L 101.32031 93.423828 L 101.32031 91.445312 L 89.441406 91.445312 L 89.441406 84.707031 L 99.945312 84.707031 L 99.945312 82.726562 L 89.441406 82.726562 L 89.441406 76.154297 L 101.18359 76.154297 L 101.18359 74.173828 L 87.267578 74.173828 z M 109.7207 74.173828 L 109.7207 93.423828 L 116.4043 93.423828 C 122.4543 93.423828 126.63281 89.216328 126.63281 83.798828 L 126.63281 83.744141 C 126.63281 78.326641 122.4543 74.173828 116.4043 74.173828 L 109.7207 74.173828 z M 159.67578 74.173828 L 159.67578 93.423828 L 166.35742 93.423828 C 172.40742 93.423828 176.58789 89.216328 176.58789 83.798828 L 176.58789 83.744141 C 176.58789 78.326641 172.40742 74.173828 166.35742 74.173828 L 159.67578 74.173828 z M 197.49219 74.173828 L 197.49219 93.423828 L 204.17383 93.423828 C 210.22383 93.423828 214.4043 89.216328 214.4043 83.798828 L 214.4043 83.744141 C 214.4043 78.326641 210.22383 74.173828 204.17383 74.173828 L 197.49219 74.173828 z M 223.00586 74.173828 L 223.00586 93.423828 L 237.05859 93.423828 L 237.05859 91.445312 L 225.17773 91.445312 L 225.17773 84.707031 L 235.68359 84.707031 L 235.68359 82.726562 L 225.17773 82.726562 L 225.17773 76.154297 L 236.91992 76.154297 L 236.91992 74.173828 L 223.00586 74.173828 z M 245.45898 74.173828 L 245.45898 93.423828 L 258.4668 93.423828 L 258.4668 91.417969 L 247.63086 91.417969 L 247.63086 74.173828 L 245.45898 74.173828 z M 278.81641 74.173828 L 278.81641 93.423828 L 292.86914 93.423828 L 292.86914 91.445312 L 280.98828 91.445312 L 280.98828 84.707031 L 291.49414 84.707031 L 291.49414 82.726562 L 280.98828 82.726562 L 280.98828 76.154297 L 292.73047 76.154297 L 292.73047 74.173828 L 278.81641 74.173828 z M 321.11133 74.173828 L 321.11133 76.181641 L 327.57422 76.181641 L 327.57422 93.423828 L 329.77344 93.423828 L 329.77344 76.181641 L 336.23633 76.181641 L 336.23633 74.173828 L 321.11133 74.173828 z M 367.60742 74.173828 L 367.60742 93.423828 L 374.28906 93.423828 C 380.33906 93.423828 384.51953 89.216328 384.51953 83.798828 L 384.51953 83.744141 C 384.51953 78.326641 380.33906 74.173828 374.28906 74.173828 L 367.60742 74.173828 z M 32.445312 75.851562 C 36.845312 75.851562 40.035156 79.426328 40.035156 83.798828 L 40.035156 83.855469 C 40.035156 88.227969 36.9 91.748047 32.5 91.748047 C 28.1 91.748047 24.910156 88.171328 24.910156 83.798828 L 24.910156 83.744141 C 24.910156 79.371641 28.045313 75.851562 32.445312 75.851562 z M 402.05859 75.851562 C 406.45859 75.851562 409.64844 79.426328 409.64844 83.798828 L 409.64844 83.855469 C 409.64844 88.227969 406.51328 91.748047 402.11328 91.748047 C 397.71328 91.748047 394.52344 88.171328 394.52344 83.798828 L 394.52344 83.744141 C 394.52344 79.371641 397.65859 75.851562 402.05859 75.851562 z M 111.89258 76.181641 L 116.4043 76.181641 C 121.2718 76.181641 124.37891 79.536328 124.37891 83.798828 L 124.37891 83.855469 C 124.37891 88.117969 121.2718 91.417969 116.4043 91.417969 L 111.89258 91.417969 L 111.89258 76.181641 z M 161.84766 76.181641 L 166.35742 76.181641 C 171.22492 76.181641 174.33203 79.536328 174.33203 83.798828 L 174.33203 83.855469 C 174.33203 88.117969 171.22492 91.417969 166.35742 91.417969 L 161.84766 91.417969 L 161.84766 76.181641 z M 199.66406 76.181641 L 204.17383 76.181641 C 209.04133 76.181641 212.14844 79.536328 212.14844 83.798828 L 212.14844 83.855469 C 212.14844 88.117969 209.04133 91.417969 204.17383 91.417969 L 199.66406 91.417969 L 199.66406 76.181641 z M 369.7793 76.181641 L 374.28906 76.181641 C 379.15656 76.181641 382.26562 79.536328 382.26562 83.798828 L 382.26562 83.855469 C 382.26562 88.117969 379.15656 91.417969 374.28906 91.417969 L 369.7793 91.417969 L 369.7793 76.181641 z M 142.05859 76.566406 L 146.43164 86.357422 L 137.6582 86.357422 L 142.05859 76.566406 z M 349.99023 76.566406 L 354.36328 86.357422 L 345.58984 86.357422 L 349.99023 76.566406 z "
         style="font-style:normal;font-variant:normal;font-weight:300;font-stretch:normal;font-size:27.5px;font-family:Gotham;-inkscape-font-specification:'Gotham Light';letter-spacing:4.03000021px;fill:#ffffff"
         id="path3414"
         d="m 11.15625,43.292969 c -6.2100002,0 -10.72460938,4.686953 -10.72460938,10.408203 l 0,0.05664 c 0,5.72125 4.45601538,10.34961 10.66601538,10.34961 6.21,0 10.72461,-4.685 10.72461,-10.40625 l 0,-0.05859 c 0,-5.72125 -4.456016,-10.349609 -10.666016,-10.349609 z m 128.51367,0 c -6.21,0 -10.72461,4.686953 -10.72461,10.408203 l 0,0.05664 c 0,5.72125 4.45602,10.34961 10.66602,10.34961 6.21,0 10.72461,-4.685 10.72461,-10.40625 l 0,-0.05859 c 0,-5.72125 -4.45602,-10.349609 -10.66602,-10.349609 z m 155.81446,0 c -6.21,0 -10.72266,4.686953 -10.72266,10.408203 l 0,0.05664 c 0,5.72125 4.45601,10.34961 10.66601,10.34961 6.21,0 10.72461,-4.685 10.72461,-10.40625 l 0,-0.05859 c 0,-5.72125 -4.45797,-10.349609 -10.66796,-10.349609 z m -203.792974,0.201172 -8.625,20.269531 4.513672,0 1.839844,-4.515625 8.509766,0 1.839843,4.515625 4.628909,0 -8.625002,-20.269531 -4.082032,0 z m 90.148434,0 -8.625,20.269531 4.51368,0 1.83984,-4.515625 8.50976,0 1.83985,4.515625 4.62891,0 -8.625,-20.269531 -4.08204,0 z m 164.91797,0 -8.625,20.269531 4.51367,0 1.83985,-4.515625 8.50976,0 1.8418,4.515625 4.62695,0 -8.625,-20.269531 -4.08203,0 z m 52.97071,0 -8.625,20.269531 4.51367,0 1.83984,-4.515625 8.50977,0 1.83984,4.515625 4.62891,0 -8.625,-20.269531 -4.08203,0 z m -374.029301,0.144531 0,20.125 4.427734,0 0,-6.039063 3.363281,0 c 4.51375,0 8.136719,-2.414765 8.136719,-7.072265 l 0,-0.05664 c 0,-4.11125 -2.903828,-6.957031 -7.705078,-6.957031 l -8.222656,0 z m 19.154297,0 0,20.125 15.324218,0 0,-3.939453 -10.925781,0 0,-4.226563 9.488281,0 0,-3.939453 -9.488281,0 0,-4.082031 10.78125,0 0,-3.9375 -15.179687,0 z m 19.210937,0 0,20.125 4.427735,0 0,-6.441406 3.478515,0 4.3125,6.441406 5.173828,0 -4.916015,-7.1875 c 2.55875,-0.94875 4.3125,-2.991485 4.3125,-6.240234 l 0,-0.05664 c 0,-1.8975 -0.60336,-3.478359 -1.72461,-4.599609 -1.3225,-1.3225 -3.306484,-2.041016 -5.865234,-2.041016 l -9.199219,0 z m 43.361327,0 0,20.125 7.84961,0 c 6.325,0 10.69531,-4.39875 10.69531,-10.0625 l 0,-0.05859 c 0,-5.66375 -4.37031,-10.003906 -10.69531,-10.003906 l -7.84961,0 z m 46.78711,0 0,20.125 4.42773,0 0,-6.441406 3.47852,0 4.3125,6.441406 5.17578,0 -4.91601,-7.1875 c 2.55875,-0.94875 4.3125,-2.991485 4.3125,-6.240234 l 0,-0.05664 c 0,-1.8975 -0.60532,-3.478359 -1.72657,-4.599609 -1.3225,-1.3225 -3.30453,-2.041016 -5.86328,-2.041016 l -9.20117,0 z m 51.95899,0 0,20.125 4.42773,0 0,-7.792969 9.60351,0 0,-4.023437 -9.60351,0 0,-4.285157 10.89648,0 0,-4.023437 -15.32421,0 z m 18.81835,0 0,20.125 15.32422,0 0,-3.939453 -10.92578,0 0,-4.226563 9.48828,0 0,-3.939453 -9.48828,0 0,-4.082031 10.78125,0 0,-3.9375 -15.17969,0 z m 19.20899,0 0,20.125 4.42773,0 0,-6.441406 3.47852,0 4.3125,6.441406 5.17578,0 -4.91602,-7.1875 c 2.55875,-0.94875 4.3125,-2.991485 4.3125,-6.240234 l 0,-0.05664 c 0,-1.8975 -0.60335,-3.478359 -1.72461,-4.599609 -1.32249,-1.3225 -3.30648,-2.041016 -5.86523,-2.041016 l -9.20117,0 z m 20.72656,0 0,20.125 4.42774,0 0,-6.441406 3.47851,0 4.3125,6.441406 5.17578,0 -4.91601,-7.1875 c 2.55875,-0.94875 4.3125,-2.991485 4.3125,-6.240234 l 0,-0.05664 c 0,-1.8975 -0.60336,-3.478359 -1.72461,-4.599609 -1.3225,-1.3225 -3.30649,-2.041016 -5.86524,-2.041016 l -9.20117,0 z m 42.08594,0 8.13672,20.267578 3.91015,0 8.13672,-20.267578 -4.77343,0 -5.25977,14.171875 -5.26172,-14.171875 -4.88867,0 z m 23.43945,0 0,20.125 4.42774,0 0,-20.125 -4.42774,0 z m 32.04297,0 0,20.125 4.42774,0 0,-6.441406 3.47851,0 4.3125,6.441406 5.17383,0 -4.91602,-7.1875 c 2.55875,-0.94875 4.3125,-2.991484 4.3125,-6.240234 l 0,-0.05664 c 0,-1.8975 -0.60336,-3.478359 -1.72461,-4.599609 -1.3225,-1.3225 -3.30648,-2.041016 -5.86523,-2.041016 l -9.19922,0 z m 20.92774,0 0,20.125 4.42773,0 0,-20.125 -4.42773,0 z M 11.097656,47.375 c 3.565,0 6.095703,2.876172 6.095703,6.326172 l 0,0.05664 c 0,3.450001 -2.472109,6.267579 -6.037109,6.267579 -3.5650002,0 -6.0957031,-2.874219 -6.0957031,-6.324219 l 0,-0.05859 c 0,-3.45 2.4721091,-6.267578 6.0371091,-6.267578 z m 128.513674,0 c 3.565,0 6.0957,2.876172 6.0957,6.326172 l 0,0.05664 c 0,3.450001 -2.47211,6.267579 -6.03711,6.267579 -3.565,0 -6.0957,-2.874219 -6.0957,-6.324219 l 0,-0.05859 c 0,-3.45 2.47211,-6.267578 6.03711,-6.267578 z m 155.8164,0 c 3.565,0 6.09571,2.876172 6.09571,6.326172 l 0,0.05664 c 0,3.450001 -2.47407,6.267579 -6.03906,6.267579 -3.565,0 -6.09376,-2.874219 -6.09376,-6.324219 l 0,-0.05859 c 0,-3.45 2.47211,-6.267578 6.03711,-6.267578 z m -265.300777,0.259766 3.421875,0 c 2.21375,0 3.59375,1.063125 3.59375,3.046875 l 0,0.05664 c 0,1.725 -1.294062,3.048828 -3.507812,3.048828 l -3.507813,0 0,-6.152343 z m 38.365235,0 4.398437,0 c 2.15625,0 3.478516,0.9775 3.478516,2.875 l 0,0.05664 c 0,1.69625 -1.236329,2.845703 -3.392579,2.845703 l -4.484374,0 0,-5.777343 z m 43.361332,0 3.42187,0 c 3.6225,0 6.06641,2.501406 6.06641,6.066406 l 0,0.05664 c 0,3.565 -2.44391,6.007813 -6.06641,6.007813 l -3.42187,0 0,-12.130859 z m 46.7871,0 4.39844,0 c 2.15625,0 3.47852,0.9775 3.47852,2.875 l 0,0.05664 c 0,1.69625 -1.23633,2.845703 -3.39258,2.845703 l -4.48438,0 0,-5.777343 z m 89.98633,0 4.39844,0 c 2.15625,0 3.48047,0.9775 3.48047,2.875 l 0,0.05664 c 0,1.69625 -1.23633,2.845703 -3.39258,2.845703 l -4.48633,0 0,-5.777343 z m 20.72657,0 4.39843,0 c 2.15625,0 3.47852,0.9775 3.47852,2.875 l 0,0.05664 c 0,1.69625 -1.23438,2.845703 -3.39063,2.845703 l -4.48632,0 0,-5.777343 z m 97.56836,0 4.39843,0 c 2.15625,0 3.47852,0.9775 3.47852,2.875 l 0,0.05664 c 0,1.69625 -1.23633,2.845703 -3.39258,2.845703 l -4.48437,0 0,-5.777343 z M 93.673828,48.8125 l 2.673828,6.527344 -5.347656,0 2.673828,-6.527344 z m 90.150392,0 2.67383,6.527344 -5.34766,0 2.67383,-6.527344 z m 164.91797,0 2.67383,6.527344 -5.34766,0 2.67383,-6.527344 z m 52.9707,0 2.67383,6.527344 -5.34766,0 2.67383,-6.527344 z M 32.5,73.845703 c -5.8575,0 -9.84375,4.645625 -9.84375,9.953125 l 0,0.05664 c 0,5.3075 3.931563,9.898437 9.789062,9.898437 5.857501,0 9.845704,-4.647578 9.845704,-9.955078 l 0,-0.05469 c 0,-5.3075 -3.933516,-9.898438 -9.791016,-9.898438 z m 27.285156,0 c -5.665,0 -9.734375,4.508125 -9.734375,9.953125 l 0,0.05664 c 0,5.5275 4.097344,9.898437 9.652344,9.898437 3.4925,0 5.691719,-1.345859 7.699219,-3.380859 l -1.429688,-1.402344 c -1.8425,1.76 -3.574843,2.777344 -6.214844,2.777344 -4.234999,0 -7.453124,-3.494219 -7.453124,-7.949219 l 0,-0.05469 c 0,-4.4275 3.190624,-7.892579 7.453124,-7.892579 2.6125,0 4.426329,1.100625 6.048829,2.640626 l 1.486328,-1.595704 c -1.925,-1.815 -4.015313,-3.050781 -7.507813,-3.050781 z m 342.328124,0 c -5.8575,0 -9.84375,4.645625 -9.84375,9.953125 l 0,0.05664 c 0,5.3075 3.93156,9.898437 9.78906,9.898437 5.8575,0 9.84571,-4.647578 9.84571,-9.955078 l 0,-0.05469 c 0,-5.3075 -3.93352,-9.898438 -9.79102,-9.898438 z M 7.6914062,73.900391 c -3.6574999,0 -6.3261718,2.226953 -6.3261718,5.251953 l 0,0.05469 c 0,3.1625 2.0353906,4.592188 6.4628906,5.554688 4.0425,0.8525 5.005859,1.870703 5.005859,3.658203 l 0,0.05469 c 0,1.8975 -1.706015,3.273438 -4.2910152,3.273438 -2.6675001,0 -4.5921094,-0.907656 -6.5996094,-2.722656 l -1.34765628,1.59375 c 2.30999998,2.0625 4.81273438,3.080078 7.86523438,3.080078 3.8225005,0 6.5722655,-2.145313 6.5722655,-5.445313 l 0,-0.05469 c 0,-2.9425 -1.979531,-4.510313 -6.2695311,-5.445313 -4.235,-0.9075 -5.2246094,-1.923281 -5.2246094,-3.738281 l 0,-0.05664 c 0,-1.7325 1.5951562,-3.107422 4.0976563,-3.107422 1.98,0 3.7671872,0.632344 5.5546872,2.089844 l 1.263672,-1.675781 c -1.9525,-1.5675 -3.958671,-2.365234 -6.7636718,-2.365234 z m 299.4082038,0 c -3.6575,0 -6.32617,2.226953 -6.32617,5.251953 l 0,0.05469 c 0,3.1625 2.03539,4.592188 6.46289,5.554688 4.0425,0.8525 5.00586,1.870703 5.00586,3.658203 l 0,0.05469 c 0,1.8975 -1.70602,3.273438 -4.29102,3.273438 -2.6675,0 -4.59211,-0.907656 -6.59961,-2.722656 l -1.34765,1.59375 c 2.31,2.0625 4.81273,3.080078 7.86523,3.080078 3.8225,0 6.57227,-2.145313 6.57227,-5.445313 l 0,-0.05469 c 0,-2.9425 -1.97954,-4.510313 -6.26953,-5.445313 -4.23501,-0.9075 -5.22461,-1.923281 -5.22461,-3.738281 l 0,-0.05664 c 0,-1.7325 1.59515,-3.107422 4.09765,-3.107422 1.98,0 3.76719,0.632344 5.55469,2.089844 l 1.26367,-1.675781 c -1.9525,-1.5675 -3.95867,-2.365234 -6.76367,-2.365234 z m -166.03125,0.136718 -8.77148,19.386719 2.22656,0 2.2832,-5.085937 10.47656,0 2.25586,5.085937 2.33789,0 -8.77343,-19.386719 -2.03516,0 z m 207.93164,0 -8.77148,19.386719 2.22656,0 2.2832,-5.085937 10.47656,0 2.25586,5.085937 2.33789,0 -8.77343,-19.386719 -2.03516,0 z m -273.572266,0.136719 0,19.25 2.171875,0 0,-19.25 -2.171875,0 z m 11.839844,0 0,19.25 14.052732,0 0,-1.978516 -11.878904,0 0,-6.738281 10.503906,0 0,-1.980469 -10.503906,0 0,-6.572265 11.742184,0 0,-1.980469 -13.916012,0 z m 22.453122,0 0,19.25 6.6836,0 c 6.05,0 10.22851,-4.2075 10.22851,-9.625 l 0,-0.05469 c 0,-5.4175 -4.17851,-9.570313 -10.22851,-9.570313 l -6.6836,0 z m 49.95508,0 0,19.25 6.68164,0 c 6.05,0 10.23047,-4.2075 10.23047,-9.625 l 0,-0.05469 c 0,-5.4175 -4.18047,-9.570313 -10.23047,-9.570313 l -6.68164,0 z m 37.81641,0 0,19.25 6.68164,0 c 6.05,0 10.23047,-4.2075 10.23047,-9.625 l 0,-0.05469 c 0,-5.4175 -4.18047,-9.570313 -10.23047,-9.570313 l -6.68164,0 z m 25.51367,0 0,19.25 14.05273,0 0,-1.978516 -11.88086,0 0,-6.738281 10.50586,0 0,-1.980469 -10.50586,0 0,-6.572265 11.74219,0 0,-1.980469 -13.91406,0 z m 22.45312,0 0,19.25 13.00782,0 0,-2.005859 -10.83594,0 0,-17.244141 -2.17188,0 z m 33.35743,0 0,19.25 14.05273,0 0,-1.978516 -11.88086,0 0,-6.738281 10.50586,0 0,-1.980469 -10.50586,0 0,-6.572265 11.74219,0 0,-1.980469 -13.91406,0 z m 42.29492,0 0,2.007813 6.46289,0 0,17.242187 2.19922,0 0,-17.242187 6.46289,0 0,-2.007813 -15.125,0 z m 46.49609,0 0,19.25 6.68164,0 c 6.05,0 10.23047,-4.2075 10.23047,-9.625 l 0,-0.05469 c 0,-5.4175 -4.18047,-9.570313 -10.23047,-9.570313 l -6.68164,0 z M 32.445312,75.851562 c 4.4,0 7.589844,3.574766 7.589844,7.947266 l 0,0.05664 c 0,4.3725 -3.135156,7.892578 -7.535156,7.892578 -4.4,0 -7.589844,-3.576719 -7.589844,-7.949219 l 0,-0.05469 c 0,-4.3725 3.135157,-7.892579 7.535156,-7.892579 z m 369.613278,0 c 4.4,0 7.58985,3.574766 7.58985,7.947266 l 0,0.05664 c 0,4.3725 -3.13516,7.892578 -7.53516,7.892578 -4.4,0 -7.58984,-3.576719 -7.58984,-7.949219 l 0,-0.05469 c 0,-4.3725 3.13515,-7.892579 7.53515,-7.892579 z m -290.16601,0.330079 4.51172,0 c 4.8675,0 7.97461,3.354687 7.97461,7.617187 l 0,0.05664 c 0,4.2625 -3.10711,7.5625 -7.97461,7.5625 l -4.51172,0 0,-15.236328 z m 49.95508,0 4.50976,0 c 4.8675,0 7.97461,3.354687 7.97461,7.617187 l 0,0.05664 c 0,4.2625 -3.10711,7.5625 -7.97461,7.5625 l -4.50976,0 0,-15.236328 z m 37.8164,0 4.50977,0 c 4.8675,0 7.97461,3.354687 7.97461,7.617187 l 0,0.05664 c 0,4.2625 -3.10711,7.5625 -7.97461,7.5625 l -4.50977,0 0,-15.236328 z m 170.11524,0 4.50976,0 c 4.8675,0 7.97656,3.354687 7.97656,7.617187 l 0,0.05664 c 0,4.2625 -3.10906,7.5625 -7.97656,7.5625 l -4.50976,0 0,-15.236328 z m -227.72071,0.384765 4.37305,9.791016 -8.77344,0 4.40039,-9.791016 z m 207.93164,0 4.37305,9.791016 -8.77344,0 4.40039,-9.791016 z" />
    </g>
  </g>
</svg>
