<?xml version="1.0" encoding="utf-8"?>
<!-- Generator: Adobe Illustrator 16.0.0, SVG Export Plug-In . SVG Version: 6.00 Build 0)  -->
<!DOCTYPE svg PUBLIC "-//W3C//DTD SVG 1.1//EN" "http://www.w3.org/Graphics/SVG/1.1/DTD/svg11.dtd">
<svg version="1.1" id="Layer_1" xmlns="http://www.w3.org/2000/svg" xmlns:xlink="http://www.w3.org/1999/xlink" x="0px" y="0px"
	 width="350px" height="100px" viewBox="0 0 350 100" enable-background="new 0 0 350 100" xml:space="preserve">
<g>
	<path fill="#FFFFFF" d="M33.576,22.799h-5.538v-3.692h15.08v3.692H37.58v14.508h-4.004V22.799z"/>
	<path fill="#FFFFFF" d="M45.926,19.106h8.32c2.314,0,4.108,0.65,5.304,1.846c1.014,1.014,1.56,2.444,1.56,4.16v0.052
		c0,2.938-1.586,4.784-3.9,5.642l4.446,6.5h-4.68l-3.9-5.824H49.93v5.824h-4.004V19.106z M53.986,27.947
		c1.95,0,3.068-1.04,3.068-2.574v-0.052c0-1.716-1.196-2.6-3.146-2.6H49.93v5.226H53.986z"/>
	<path fill="#FFFFFF" d="M64.463,19.106h13.729v3.562h-9.75v3.692h8.581v3.562h-8.581v3.822h9.88v3.562H64.463V19.106z"/>
	<path fill="#FFFFFF" d="M81.624,19.106h3.692l8.528,11.207V19.106h3.952v18.201H94.39l-8.814-11.57v11.57h-3.952V19.106z"/>
	<path fill="#FFFFFF" d="M101.903,19.106h13.729v3.562h-9.75v3.692h8.581v3.562h-8.581v3.822h9.88v3.562h-13.858V19.106z"/>
	<path fill="#FFFFFF" d="M117.815,34.655l2.366-2.834c1.638,1.352,3.354,2.21,5.434,2.21c1.638,0,2.626-0.65,2.626-1.716v-0.052
		c0-1.014-0.624-1.534-3.666-2.314c-3.666-0.936-6.032-1.95-6.032-5.564v-0.052c0-3.302,2.652-5.486,6.37-5.486
		c2.652,0,4.915,0.832,6.76,2.314l-2.08,3.016c-1.612-1.118-3.198-1.794-4.732-1.794c-1.534,0-2.34,0.702-2.34,1.586v0.052
		c0,1.196,0.78,1.586,3.926,2.392c3.692,0.962,5.772,2.288,5.772,5.46v0.052c0,3.614-2.756,5.643-6.682,5.643
		C122.782,37.567,120,36.605,117.815,34.655z"/>
	<path fill="#FFFFFF" d="M149.223,18.977h3.692l7.801,18.331h-4.187l-1.664-4.082h-7.696l-1.664,4.082h-4.082L149.223,18.977z
		 M153.436,29.689l-2.418-5.902l-2.418,5.902H153.436z"/>
	<path fill="#FFFFFF" d="M163.263,19.106h8.32c2.314,0,4.108,0.65,5.304,1.846c1.015,1.014,1.561,2.444,1.561,4.16v0.052
		c0,2.938-1.586,4.784-3.9,5.642l4.446,6.5h-4.68l-3.9-5.824h-3.146v5.824h-4.004V19.106z M171.323,27.947
		c1.95,0,3.068-1.04,3.068-2.574v-0.052c0-1.716-1.196-2.6-3.146-2.6h-3.979v5.226H171.323z"/>
	<path fill="#FFFFFF" d="M180.994,28.259v-0.052c0-5.174,4.03-9.413,9.543-9.413c3.275,0,5.252,0.884,7.149,2.496l-2.521,3.042
		c-1.404-1.17-2.652-1.846-4.759-1.846c-2.912,0-5.226,2.574-5.226,5.668v0.052c0,3.328,2.288,5.772,5.512,5.772
		c1.456,0,2.757-0.364,3.771-1.092v-2.6h-4.03v-3.458h7.904v7.904c-1.872,1.586-4.446,2.886-7.774,2.886
		C184.895,37.619,180.994,33.641,180.994,28.259z"/>
	<path fill="#FFFFFF" d="M201.924,19.106h13.729v3.562h-9.75v3.692h8.58v3.562h-8.58v3.822h9.881v3.562h-13.859V19.106z"/>
	<path fill="#FFFFFF" d="M219.084,19.106h3.692l8.528,11.207V19.106h3.952v18.201h-3.406l-8.813-11.57v11.57h-3.953V19.106z"/>
	<path fill="#FFFFFF" d="M243.602,22.799h-5.538v-3.692h15.081v3.692h-5.538v14.508h-4.005V22.799z"/>
	<path fill="#FFFFFF" d="M256.134,19.106h4.004v18.201h-4.004V19.106z"/>
	<path fill="#FFFFFF" d="M264.428,19.106h3.692l8.528,11.207V19.106h3.952v18.201h-3.406l-8.813-11.57v11.57h-3.953V19.106z"/>
	<path fill="#FFFFFF" d="M283.901,28.259v-0.052c0-5.174,4.082-9.413,9.698-9.413s9.646,4.186,9.646,9.36v0.052
		c0,5.174-4.082,9.412-9.698,9.412S283.901,33.433,283.901,28.259z M299.061,28.259v-0.052c0-3.12-2.289-5.721-5.513-5.721
		s-5.46,2.548-5.46,5.668v0.052c0,3.12,2.288,5.72,5.512,5.72C296.824,33.927,299.061,31.379,299.061,28.259z"/>
	<path fill="#FFFFFF" d="M305.17,34.655l2.365-2.834c1.639,1.352,3.354,2.21,5.435,2.21c1.638,0,2.626-0.65,2.626-1.716v-0.052
		c0-1.014-0.624-1.534-3.666-2.314c-3.666-0.936-6.032-1.95-6.032-5.564v-0.052c0-3.302,2.652-5.486,6.37-5.486
		c2.652,0,4.914,0.832,6.761,2.314l-2.08,3.016c-1.612-1.118-3.198-1.794-4.732-1.794s-2.34,0.702-2.34,1.586v0.052
		c0,1.196,0.779,1.586,3.926,2.392c3.692,0.962,5.772,2.288,5.772,5.46v0.052c0,3.614-2.756,5.643-6.683,5.643
		C310.136,37.567,307.354,36.605,305.17,34.655z"/>
</g>
<g>
	<path fill="#FFFFFF" d="M28.995,66.586v-0.084c0-8.359,6.595-15.207,15.668-15.207c9.074,0,15.585,6.764,15.585,15.123v0.084
		c0,8.359-6.595,15.207-15.669,15.207S28.995,74.945,28.995,66.586z M53.485,66.586v-0.084c0-5.041-3.697-9.242-8.906-9.242
		s-8.821,4.117-8.821,9.158v0.084c0,5.041,3.696,9.242,8.905,9.242S53.485,71.627,53.485,66.586z"/>
	<path fill="#FFFFFF" d="M65.409,51.799h12.014c7.015,0,11.258,4.159,11.258,10.166v0.084c0,6.805-5.293,10.334-11.888,10.334
		h-4.915v8.822h-6.469V51.799z M77.003,66.629c3.235,0,5.125-1.934,5.125-4.453v-0.084c0-2.898-2.016-4.453-5.251-4.453h-4.999v8.99
		H77.003z"/>
	<path fill="#FFFFFF" d="M92.877,51.799h22.18v5.756H99.304v5.965h13.863v5.756H99.304v6.174h15.963v5.756h-22.39V51.799z"/>
	<path fill="#FFFFFF" d="M120.429,51.799h13.442c3.738,0,6.637,1.051,8.569,2.982c1.638,1.639,2.521,3.949,2.521,6.723v0.084
		c0,4.746-2.563,7.729-6.301,9.115l7.184,10.502h-7.562l-6.301-9.41h-5.083v9.41h-6.469V51.799z M133.451,66.082
		c3.151,0,4.957-1.68,4.957-4.158V61.84c0-2.773-1.932-4.201-5.083-4.201h-6.427v8.443H133.451z"/>
	<path fill="#FFFFFF" d="M160.288,51.59h5.965l12.602,29.615h-6.764l-2.688-6.596H156.97l-2.688,6.596h-6.595L160.288,51.59z
		 M167.093,68.896l-3.907-9.535l-3.907,9.535H167.093z"/>
	<path fill="#FFFFFF" d="M179.606,66.586v-0.084c0-8.359,6.301-15.207,15.333-15.207c5.545,0,8.863,1.849,11.594,4.537l-4.117,4.746
		c-2.269-2.058-4.578-3.318-7.519-3.318c-4.957,0-8.528,4.117-8.528,9.158v0.084c0,5.041,3.487,9.242,8.528,9.242
		c3.36,0,5.419-1.346,7.729-3.445l4.117,4.158c-3.024,3.234-6.385,5.252-12.057,5.252C186.033,81.709,179.606,75.029,179.606,66.586
		z"/>
	<path fill="#FFFFFF" d="M211.609,51.799h6.47v29.406h-6.47V51.799z"/>
	<path fill="#FFFFFF" d="M223.538,66.586v-0.084c0-8.359,6.595-15.207,15.669-15.207c9.073,0,15.584,6.764,15.584,15.123v0.084
		c0,8.359-6.595,15.207-15.668,15.207C230.049,81.709,223.538,74.945,223.538,66.586z M248.028,66.586v-0.084
		c0-5.041-3.696-9.242-8.905-9.242s-8.822,4.117-8.822,9.158v0.084c0,5.041,3.697,9.242,8.906,9.242S248.028,71.627,248.028,66.586z
		"/>
	<path fill="#FFFFFF" d="M259.951,51.799h5.966l13.778,18.105V51.799h6.385v29.406h-5.503l-14.24-18.693v18.693h-6.386V51.799z"/>
	<path fill="#FFFFFF" d="M292.543,51.799h22.181v5.756h-15.753v5.965h13.862v5.756h-13.862v6.174h15.963v5.756h-22.391V51.799z"/>
	<path fill="#FFFFFF" d="M318.079,76.92l3.822-4.578c2.646,2.184,5.419,3.57,8.779,3.57c2.646,0,4.243-1.051,4.243-2.773v-0.084
		c0-1.639-1.009-2.479-5.923-3.738c-5.924-1.512-9.746-3.15-9.746-8.99v-0.084c0-5.334,4.285-8.863,10.292-8.863
		c4.284,0,7.939,1.345,10.922,3.739l-3.36,4.872c-2.604-1.806-5.167-2.898-7.646-2.898s-3.781,1.135-3.781,2.563v0.084
		c0,1.934,1.261,2.563,6.344,3.865c5.965,1.555,9.325,3.697,9.325,8.822v0.084c0,5.838-4.452,9.115-10.796,9.115
		C326.103,81.625,321.607,80.07,318.079,76.92z"/>
</g>
<rect x="10.256" y="15" fill="#FFFFFF" width="3.59" height="70"/>
</svg>
